<svg id="Calque_1" data-name="Calque 1" xmlns="http://www.w3.org/2000/svg" xmlns:xlink="http://www.w3.org/1999/xlink" viewBox="0 0 3679.57 3679.57"><defs><style>.cls-1{fill:url(#Dégradé_sans_nom_133);}.cls-2{fill:#ededed;}.cls-3{fill:#898a8a;}.cls-4{fill:#f08184;}.cls-5{fill:#fff;}.cls-6{fill:#f6f6f6;}.cls-7{fill:#9d9d9c;}.cls-8{fill:#5568ad;}.cls-9{fill:#2f90b6;}.cls-10{fill:#b63266;}.cls-11{fill:#82368c;}.cls-12{fill:#98b5df;}.cls-13{fill:url(#Dégradé_sans_nom_10);}.cls-14{font-size:74px;fill:#2564aa;font-family:HelveticaNeueHeavy, HelveticaNeue;}.cls-15{fill:#706f6f;}.cls-16{fill:url(#Dégradé_sans_nom_129);}</style><linearGradient id="Dégradé_sans_nom_133" x1="990.08" y1="2689.48" x2="2689.48" y2="990.08" gradientUnits="userSpaceOnUse"><stop offset="0" stop-color="#5ac2d8"/><stop offset="0.19" stop-color="#53b6d2"/><stop offset="0.53" stop-color="#4197c3"/><stop offset="0.98" stop-color="#2464ab"/><stop offset="1" stop-color="#2362aa"/></linearGradient><linearGradient id="Dégradé_sans_nom_10" x1="1679.7" y1="2156.71" x2="2052" y2="2156.71" gradientUnits="userSpaceOnUse"><stop offset="0" stop-color="#5ac2d8"/><stop offset="0.9" stop-color="#2362aa"/></linearGradient><linearGradient id="Dégradé_sans_nom_129" x1="1427.89" y1="2682.48" x2="2297.82" y2="2682.48" gradientUnits="userSpaceOnUse"><stop offset="0" stop-color="#e9b3d3"/><stop offset="1" stop-color="#727aba"/></linearGradient></defs><g id="Com"><circle class="cls-1" cx="1839.78" cy="1839.78" r="1201.66"/><rect class="cls-2" x="2896.41" y="2115.83" width="372.13" height="372.13" rx="53.39"/><path class="cls-3" d="M3115.63,2213.48h-66.31a55.27,55.27,0,0,0-55.26,55.26v66.32a55.27,55.27,0,0,0,55.26,55.26h66.31a55.27,55.27,0,0,0,55.27-55.26v-66.32A55.27,55.27,0,0,0,3115.63,2213.48Zm38.69,121.58a38.72,38.72,0,0,1-38.69,38.68h-66.31a38.72,38.72,0,0,1-38.68-38.68v-66.32a38.72,38.72,0,0,1,38.68-38.68h66.31a38.72,38.72,0,0,1,38.69,38.68Z"/><path class="cls-3" d="M3082.48,2257.69a44.21,44.21,0,1,0,44.21,44.21A44.21,44.21,0,0,0,3082.48,2257.69Zm0,71.84a27.63,27.63,0,1,1,27.63-27.63A27.67,27.67,0,0,1,3082.48,2329.53Z"/><circle class="cls-3" cx="3130" cy="2254.37" r="5.89"/><rect class="cls-2" x="2653.33" y="583.7" width="372.13" height="372.13" rx="53.39"/><circle class="cls-4" cx="3025.46" cy="583.7" r="57.02"/><path class="cls-5" d="M3033.74,610.4h-10.06V568.82l-6.5,2.46V560.6l8-3.6h8.59Z"/><path class="cls-3" d="M2866.92,711.84h15.84V684.27a203.57,203.57,0,0,0-23.07-1.22c-22.83,0-38.47,14.35-38.47,40.75v24.29H2796v30.82h25.19v77.58h30.89V778.92h24.17l3.84-30.83h-28V726.85c0-8.91,2.41-15,14.82-15Z"/><rect class="cls-2" x="2653.33" y="2938.04" width="372.13" height="372.13" rx="53.39"/><path class="cls-3" d="M2922.12,3206.87h0v-60.71c0-29.69-6.4-52.57-41.12-52.57-16.69,0-27.89,9.16-32.46,17.84h-.48v-15.07h-32.92v110.51h34.28v-54.72c0-14.41,2.73-28.34,20.57-28.34,17.58,0,17.84,16.44,17.84,29.26v53.81Z"/><path class="cls-3" d="M2759.36,3096.36h34.32v110.51h-34.32Z"/><path class="cls-3" d="M2776.51,3041.34a20,20,0,1,0,19.88,19.88A19.89,19.89,0,0,0,2776.51,3041.34Z"/><rect class="cls-2" x="593.2" y="2544.83" width="372.13" height="372.13" rx="53.39"/><circle class="cls-4" cx="965.34" cy="2544.83" r="57.02"/><path class="cls-5" d="M973.62,2571.53H963.55V2530l-6.5,2.46v-10.69l8-3.6h8.6Z"/><path class="cls-3" d="M845,2697.22a67.41,67.41,0,0,0,17-17.6h0a71,71,0,0,1-19.53,5.35,33.72,33.72,0,0,0,14.92-18.74,67.76,67.76,0,0,1-21.5,8.21,33.91,33.91,0,0,0-58.66,23.18,34.86,34.86,0,0,0,.79,7.74,96,96,0,0,1-69.89-35.47,33.88,33.88,0,0,0,10.42,45.31,33.42,33.42,0,0,1-15.32-4.17v.37a34.07,34.07,0,0,0,27.16,33.32,33.63,33.63,0,0,1-8.89,1.12,30.17,30.17,0,0,1-6.41-.58,34.24,34.24,0,0,0,31.68,23.62,68.18,68.18,0,0,1-42.05,14.46,65.69,65.69,0,0,1-8.11-.46,95.51,95.51,0,0,0,52,15.21c59.84,0,98.83-49.92,96.38-100.87Z"/><rect class="cls-2" x="641.38" y="766.77" width="372.13" height="372.13" rx="53.39"/><path class="cls-3" d="M943.31,950.67a311.32,311.32,0,0,0-5.13-56.44l.29,1.89a29.37,29.37,0,0,0-20-20.39l-.21-.05c-18.06-4.91-90.75-4.91-90.75-4.91s-72.51-.09-90.76,4.91a29.38,29.38,0,0,0-20.11,20.24l0,.2c-6.75,35.25-6.8,77.6.3,115.35l-.3-1.92a29.38,29.38,0,0,0,20,20.4l.2,0c18,4.92,90.76,4.92,90.76,4.92s72.5,0,90.75-4.92a29.36,29.36,0,0,0,20.12-20.23l.05-.21A301.84,301.84,0,0,0,943.31,955c0-.7,0-1.42,0-2.13S943.31,951.45,943.31,950.67ZM804.36,988.09V917.68l60.49,35.26Z"/><rect class="cls-6" x="1271.76" y="726.78" width="1182.2" height="2199.05" rx="128.3"/><rect class="cls-7" x="1624.47" y="836.79" width="476.76" height="58" rx="29"/><circle class="cls-8" cx="1491.53" cy="1049.18" r="64.72"/><circle class="cls-9" cx="1739.08" cy="1049.18" r="64.72"/><circle class="cls-10" cx="1986.63" cy="1049.18" r="64.72"/><circle class="cls-11" cx="2234.18" cy="1049.18" r="64.72"/><rect class="cls-2" x="1358.45" y="1188.55" width="1008.81" height="1630.7" rx="67.85"/><circle class="cls-12" cx="1518.16" cy="1332.91" r="97.08"/><rect class="cls-5" x="1415.24" y="1946.34" width="901.21" height="600.81" rx="30.57"/><path class="cls-13" d="M2029.58,2025.81a57.23,57.23,0,0,0-79.43,10.45l-63.85,84.09h0v0l-21,27.69-20.56-27.13-.44-.56h0l-62.26-82c-.27-.43-.58-.85-.88-1.25l-.27-.37a56.92,56.92,0,0,0-79.8-10.94c-28.43,21.59-24.55,60.83-11,79.7.44.61.84,1.14,1.14,1.5l62.61,82.46,0,0L1819,2275.3c.26.41.57.83.93,1.32a56.64,56.64,0,0,0,37.65,22,57.86,57.86,0,0,0,7.85.54,57.31,57.31,0,0,0,46-23.52l65.17-85.89h0l63.79-84h0l0-.05.45-.62A57.16,57.16,0,0,0,2029.58,2025.81ZM1742.5,2160.62l-44.63-58.78c-.28-.35-.59-.75-.93-1.22-10.17-14.17-15.79-49,9.24-68a48.47,48.47,0,0,1,67.89,9.26l.3.4a7.85,7.85,0,0,1,.47.66l44.78,59c-.2-.08-.4-.12-.6-.19a58,58,0,0,0-5.87-1.87l-.18,0a55.54,55.54,0,0,0-5.86-1.12c-.64-.09-1.29-.14-1.94-.21-1.43-.15-2.86-.26-4.3-.3-.7,0-1.4,0-2.11,0-1.54,0-3.09.09-4.63.23-.53.05-1.06.06-1.58.12a56.68,56.68,0,0,0-6,1c-.53.13-1,.3-1.58.43-1.5.4-3,.84-4.49,1.36-.68.24-1.36.51-2,.78-1.38.54-2.74,1.15-4.09,1.81-.61.3-1.22.58-1.83.91a55.65,55.65,0,0,0-5.59,3.37l-.41.28c-.6.41-1.16.83-1.7,1.24l-.1.08c-.44.33-.89.69-1.33,1.06l-.69.53-.07.07a56.27,56.27,0,0,0-4.67,4.44c-.48.49-.91,1-1.36,1.52-1,1.13-2,2.29-2.85,3.48-.44.58-.87,1.16-1.28,1.75q-1.35,1.95-2.52,4c-.27.47-.57.92-.82,1.39a57.15,57.15,0,0,0-2.65,5.6c-.18.45-.32.91-.49,1.36-.56,1.49-1.07,3-1.51,4.54-.19.67-.35,1.34-.52,2-.34,1.39-.62,2.8-.86,4.22-.11.65-.23,1.31-.31,2-.24,1.83-.4,3.66-.46,5.5,0,.22,0,.44,0,.66a57.18,57.18,0,0,0,.22,6.13C1742.49,2160.23,1742.48,2160.43,1742.5,2160.62Zm162.12,110a47.5,47.5,0,0,1-10,10.2,48.52,48.52,0,0,1-53.51,3.42,50.24,50.24,0,0,1-14.42-12.74c-8.73-11-33.44-43.07-66.09-87.06a48.35,48.35,0,0,1-9.69-25.34c0-.13,0-.26-.05-.39-.09-1.25-.11-2.5-.1-3.75,0-.26,0-.51,0-.77,0-1.08.12-2.15.21-3.21,0-.44,0-.87.08-1.3.11-.94.29-1.88.46-2.82.09-.54.15-1.09.26-1.63.17-.81.4-1.6.61-2.39s.31-1.34.51-2,.52-1.44.78-2.15.47-1.43.76-2.12.69-1.49,1-2.23.57-1.28.9-1.9.88-1.49,1.32-2.24c.34-.57.65-1.16,1-1.72s1-1.36,1.48-2,.81-1.16,1.26-1.72,1.17-1.32,1.76-2,.89-1.05,1.37-1.55c.66-.67,1.38-1.29,2.08-1.92.49-.45.94-.92,1.45-1.34l.11-.09h0l0,0h0c.59-.41,1.13-.82,1.68-1.23l.34-.27,1.15-.92.17-.12a48.3,48.3,0,0,1,66,10.28l45.89,60.4,1.35,1.88c.14.2.33.43.48.64.43.6.9,1.23,1.41,1.86.17.22.3.42.48.64l1.17,1.41c.88,1,1.87,2,2.85,3,.39.39.74.81,1.14,1.2a58.78,58.78,0,0,0,4.62,3.91l0,0a53.82,53.82,0,0,0,5.59,3.68c.42.25.84.5,1.27.74a56.21,56.21,0,0,0,5.8,2.81l.91.34a55.9,55.9,0,0,0,5.57,1.85c.35.1.69.21,1,.3a60.65,60.65,0,0,0,6.23,1.22l1.19.14a60,60,0,0,0,6.27.42h.46a57.79,57.79,0,0,0,6.7-.41c.35,0,.7-.13,1-.18a56.91,56.91,0,0,0,5.66-1c.64-.15,1.27-.36,1.91-.54,1.56-.43,3.11-.9,4.63-1.46.23-.09.47-.13.69-.22Zm65.65-86.49-.4.5a48.58,48.58,0,0,1-60.7,13.52,47.91,47.91,0,0,1-7.06-4.4c-1.26-.95-2.45-2-3.6-3-.32-.3-.6-.62-.91-.92-.81-.79-1.61-1.59-2.39-2.46l-.55-.64-3.52-4.64h0l-20.52-27,22.4-29.53a48.47,48.47,0,0,1,31.34-18.44c.81-.12,1.62-.16,2.42-.24s1.39-.17,2.09-.21a48.11,48.11,0,0,1,26.48,6.37l.16.08c.77.45,1.51,1,2.26,1.47s1.23.75,1.83,1.18l1.22.94c.27.2.54.4.82.59l1,1h.35a58.11,58.11,0,0,0,5.53,3.31l1.15.61a57,57,0,0,0,5.56,2.46c.35.14.71.25,1.06.37q2.65.95,5.34,1.62c.26.06.52.15.78.21a58.05,58.05,0,0,0,5.82,1c.47.06.93.11,1.4.15a54.29,54.29,0,0,0,5.54.31h.22c1,0,2-.11,3-.17,1.2-.07,2.4-.1,3.59-.24s2.09-.36,3.13-.54,2.22-.37,3.32-.64,2.09-.59,3.14-.91,2.11-.62,3.15-1c.26-.1.54-.16.8-.26Zm63.81-84.1-.44.59a47.51,47.51,0,0,1-3.15,3.74c-.94,1-1.94,2-3,2.89-.16.15-.31.32-.47.46a48,48,0,0,1-38.23,11.64h-.16c-1.24-.17-2.48-.43-3.72-.7-.27-.06-.55-.09-.82-.15-1-.24-2-.56-3-.86-.51-.15-1-.27-1.52-.44-.77-.27-1.53-.61-2.29-.91s-1.41-.53-2.1-.84-1.09-.57-1.64-.85c-.88-.44-1.77-.86-2.64-1.37-.33-.19-.65-.43-1-.63-1.06-.65-2.12-1.3-3.14-2l-.09-.07-.15-.11c-.28-.23-.6-.47-1-.79-.22-.16-.43-.32-.71-.5l-.13-.09h0l-.1-.08a58.48,58.48,0,0,0-5.61-3.54c-.56-.31-1.14-.59-1.71-.88q-2.14-1.11-4.33-2c-.64-.26-1.28-.53-1.92-.77-1.61-.59-3.22-1.11-4.85-1.56-.45-.12-.88-.27-1.32-.38a58.16,58.16,0,0,0-6.22-1.17c-.54-.07-1.07-.09-1.61-.15-1.57-.15-3.14-.26-4.71-.29-.72,0-1.43,0-2.14,0-1.49,0-3,.13-4.44.28-.64.06-1.28.1-1.92.18a59.62,59.62,0,0,0-6,1.13c-.39.1-.77.24-1.16.35-1.63.44-3.25.94-4.84,1.53-.27.1-.56.16-.83.26l45.58-60,.33-.44a48.47,48.47,0,0,1,77.2,58.62Z"/><text class="cls-14" transform="translate(1621.58 2461.93)">VisualKraken</text><rect class="cls-15" x="1421.08" y="1496.94" width="883.55" height="58" rx="11.8"/><rect class="cls-15" x="1421.08" y="1593.57" width="883.55" height="58" rx="11.8"/><rect class="cls-15" x="1421.08" y="1690.19" width="883.55" height="58" rx="11.8"/><rect class="cls-15" x="1421.08" y="1786.82" width="538.31" height="58" rx="11.8"/><rect class="cls-7" x="1662.76" y="1303.91" width="476.76" height="58" rx="29"/><rect class="cls-16" x="1427.89" y="2634.71" width="869.93" height="95.55" rx="47.78"/></g></svg>