<svg id="Calque_1" data-name="Calque 1" xmlns="http://www.w3.org/2000/svg" xmlns:xlink="http://www.w3.org/1999/xlink" viewBox="0 0 3679.57 3679.57"><defs><style>.cls-1{fill:url(#Dégradé_sans_nom_133);}.cls-2{fill:#c6c6c6;}.cls-3,.cls-4{fill:none;stroke:#878787;stroke-miterlimit:10;stroke-width:8px;}.cls-4{stroke-dasharray:24.93 24.93;}.cls-5{fill:#f6f6f6;}.cls-6{fill:#5568ad;}.cls-7{fill:#b63266;}.cls-8{fill:#2f90b6;}.cls-9{fill:url(#Dégradé_sans_nom_129);}.cls-10{fill:#706f6f;}.cls-11{fill:#2463aa;}.cls-12{fill:#5ac2d8;}</style><linearGradient id="Dégradé_sans_nom_133" x1="990.08" y1="2689.48" x2="2689.48" y2="990.08" gradientUnits="userSpaceOnUse"><stop offset="0" stop-color="#5ac2d8"/><stop offset="0.19" stop-color="#53b6d2"/><stop offset="0.53" stop-color="#4197c3"/><stop offset="0.98" stop-color="#2464ab"/><stop offset="1" stop-color="#2362aa"/></linearGradient><linearGradient id="Dégradé_sans_nom_129" x1="582.75" y1="1774.9" x2="1845.79" y2="511.87" gradientTransform="translate(1164.15 -523.73) rotate(45)" gradientUnits="userSpaceOnUse"><stop offset="0" stop-color="#e9b3d3"/><stop offset="1" stop-color="#727aba"/></linearGradient></defs><g id="Graph"><circle class="cls-1" cx="1839.78" cy="1839.78" r="1201.66"/><rect class="cls-2" x="851.82" y="831.06" width="180.92" height="180.92"/><rect class="cls-2" x="2796.12" y="831.06" width="180.92" height="180.92"/><rect class="cls-2" x="2796.12" y="2775.35" width="180.92" height="180.92"/><rect class="cls-2" x="851.82" y="2765.84" width="180.92" height="180.92"/><polyline class="cls-3" points="2886.57 2853.31 2886.57 2865.81 2874.07 2865.81"/><line class="cls-4" x1="2849.15" y1="2865.81" x2="967.25" y2="2865.81"/><polyline class="cls-3" points="954.78 2865.81 942.28 2865.81 942.28 2853.31"/><line class="cls-4" x1="942.28" y1="2828.39" x2="942.28" y2="946.48"/><polyline class="cls-3" points="942.28 934.02 942.28 921.52 954.78 921.52"/><line class="cls-4" x1="979.71" y1="921.52" x2="2861.61" y2="921.52"/><polyline class="cls-3" points="2874.07 921.52 2886.57 921.52 2886.57 934.02"/><line class="cls-4" x1="2886.57" y1="958.95" x2="2886.57" y2="2840.85"/><rect class="cls-5" x="1221.57" y="1247.34" width="1356.76" height="1356.76" rx="92.79"/><path class="cls-6" d="M1769.18,1784c0-2.55,0-5.1.11-7.63H1487.9V2338.9h562.57V2055.19q-4.92.18-9.87.18C1890.7,2055.37,1769.18,1933.86,1769.18,1784Z"/><path class="cls-7" d="M2312,1784c0-149.9-121.51-271.42-271.41-271.42-147.35,0-267.27,117.42-271.31,263.79h281.18v278.86C2195.79,2050,2312,1930.55,2312,1784Z"/><path class="cls-8" d="M1769.29,1776.33c-.07,2.53-.11,5.08-.11,7.63,0,149.9,121.52,271.41,271.42,271.41q5,0,9.87-.18V1776.33Z"/><rect class="cls-9" x="321.17" y="1065.72" width="1786.2" height="155.33" transform="translate(-452.84 1193.51) rotate(-45)"/><rect class="cls-2" x="684.11" y="1713.94" width="12.94" height="52.17" transform="translate(-1028.11 997.95) rotate(-45)"/><rect class="cls-2" x="713.85" y="1684.19" width="12.94" height="52.17" transform="translate(-998.37 1010.27) rotate(-45)"/><rect class="cls-2" x="743.6" y="1654.44" width="12.94" height="52.17" transform="translate(-968.62 1022.6) rotate(-45)"/><rect class="cls-2" x="773.35" y="1624.7" width="12.94" height="52.17" transform="translate(-938.88 1034.92) rotate(-45)"/><rect class="cls-2" x="803.09" y="1594.95" width="12.94" height="52.17" transform="translate(-909.13 1047.24) rotate(-45)"/><rect class="cls-2" x="832.84" y="1565.21" width="12.94" height="52.17" transform="translate(-879.38 1059.56) rotate(-45)"/><rect class="cls-2" x="862.58" y="1535.46" width="12.94" height="52.17" transform="translate(-849.64 1071.88) rotate(-45)"/><rect class="cls-2" x="892.33" y="1505.71" width="12.94" height="52.17" transform="translate(-819.89 1084.2) rotate(-45)"/><rect class="cls-2" x="922.08" y="1475.97" width="12.94" height="52.17" transform="translate(-790.15 1096.52) rotate(-45)"/><rect class="cls-2" x="951.82" y="1446.22" width="12.94" height="52.17" transform="translate(-760.4 1108.84) rotate(-45)"/><rect class="cls-2" x="981.57" y="1416.48" width="12.94" height="52.17" transform="translate(-730.65 1121.17) rotate(-45)"/><rect class="cls-2" x="1011.31" y="1386.73" width="12.94" height="52.17" transform="translate(-700.91 1133.49) rotate(-45)"/><rect class="cls-2" x="1041.06" y="1356.98" width="12.94" height="52.17" transform="translate(-671.16 1145.81) rotate(-45)"/><rect class="cls-2" x="1070.81" y="1327.24" width="12.94" height="52.17" transform="translate(-641.41 1158.13) rotate(-45)"/><rect class="cls-2" x="1100.55" y="1297.49" width="12.94" height="52.17" transform="translate(-611.67 1170.45) rotate(-45)"/><rect class="cls-2" x="1130.3" y="1267.74" width="12.94" height="52.17" transform="translate(-581.92 1182.77) rotate(-45)"/><rect class="cls-2" x="1160.05" y="1238" width="12.94" height="52.17" transform="translate(-552.18 1195.09) rotate(-45)"/><rect class="cls-2" x="1189.79" y="1208.25" width="12.94" height="52.17" transform="translate(-522.43 1207.41) rotate(-45)"/><rect class="cls-2" x="1219.54" y="1178.51" width="12.94" height="52.17" transform="translate(-492.68 1219.74) rotate(-45)"/><rect class="cls-2" x="1249.28" y="1148.76" width="12.94" height="52.17" transform="translate(-462.94 1232.06) rotate(-45)"/><rect class="cls-2" x="1279.03" y="1119.01" width="12.94" height="52.17" transform="translate(-433.19 1244.38) rotate(-45)"/><rect class="cls-2" x="1308.78" y="1089.27" width="12.94" height="52.17" transform="translate(-403.45 1256.7) rotate(-45)"/><rect class="cls-2" x="1338.52" y="1059.52" width="12.94" height="52.17" transform="translate(-373.7 1269.02) rotate(-45)"/><rect class="cls-2" x="1368.27" y="1029.78" width="12.94" height="52.17" transform="translate(-343.95 1281.34) rotate(-45)"/><rect class="cls-2" x="1398.01" y="1000.03" width="12.94" height="52.17" transform="translate(-314.21 1293.66) rotate(-45)"/><rect class="cls-2" x="1427.76" y="970.28" width="12.94" height="52.17" transform="translate(-284.46 1305.98) rotate(-45)"/><rect class="cls-2" x="1457.51" y="940.54" width="12.94" height="52.17" transform="translate(-254.71 1318.31) rotate(-45)"/><rect class="cls-2" x="1487.25" y="910.79" width="12.94" height="52.17" transform="translate(-224.97 1330.63) rotate(-45)"/><rect class="cls-2" x="1517" y="881.04" width="12.94" height="52.17" transform="translate(-195.22 1342.95) rotate(-45)"/><rect class="cls-2" x="1546.75" y="851.3" width="12.94" height="52.17" transform="translate(-165.48 1355.27) rotate(-45)"/><rect class="cls-2" x="1576.49" y="821.55" width="12.94" height="52.17" transform="translate(-135.73 1367.59) rotate(-45)"/><rect class="cls-2" x="1606.24" y="791.81" width="12.94" height="52.17" transform="translate(-105.98 1379.91) rotate(-45)"/><rect class="cls-2" x="1635.98" y="762.06" width="12.94" height="52.17" transform="translate(-76.24 1392.23) rotate(-45)"/><rect class="cls-2" x="1665.73" y="732.31" width="12.94" height="52.17" transform="translate(-46.49 1404.56) rotate(-45)"/><rect class="cls-2" x="1695.48" y="702.57" width="12.94" height="52.17" transform="translate(-16.75 1416.88) rotate(-45)"/><rect class="cls-2" x="1725.22" y="672.82" width="12.94" height="52.17" transform="translate(13 1429.2) rotate(-45)"/><rect class="cls-2" x="1754.97" y="643.08" width="12.94" height="52.17" transform="translate(42.75 1441.52) rotate(-45)"/><rect class="cls-2" x="1784.71" y="613.33" width="12.94" height="52.17" transform="translate(72.49 1453.84) rotate(-45)"/><rect class="cls-2" x="1814.46" y="583.58" width="12.94" height="52.17" transform="translate(102.24 1466.16) rotate(-45)"/><circle class="cls-2" cx="622.35" cy="1735.31" r="15.3"/><rect class="cls-5" x="2703.62" y="1649.01" width="640.72" height="890.15"/><rect class="cls-10" x="2765.1" y="1763.4" width="517.75" height="41.93" rx="20.97"/><rect class="cls-10" x="2765.1" y="1851.89" width="517.75" height="41.93" rx="20.97"/><rect class="cls-10" x="2765.1" y="1940.38" width="517.75" height="41.93" rx="20.97"/><rect class="cls-10" x="2765.1" y="2028.87" width="517.75" height="41.93" rx="20.97"/><rect class="cls-10" x="2765.1" y="2117.36" width="517.75" height="41.93" rx="20.97"/><rect class="cls-10" x="2765.1" y="2205.85" width="517.75" height="41.93" rx="20.97"/><rect class="cls-10" x="2765.1" y="2294.34" width="517.75" height="41.93" rx="20.97"/><rect class="cls-10" x="2765.1" y="2382.83" width="517.75" height="41.93" rx="20.97"/><circle class="cls-11" cx="2614.83" cy="522.52" r="131.31"/><circle class="cls-12" cx="1493.73" cy="3272.74" r="118.98"/><circle class="cls-12" cx="627.46" cy="2668.01" r="63.91"/></g></svg>