<svg id="Calque_1" data-name="Calque 1" xmlns="http://www.w3.org/2000/svg" viewBox="0 0 157.12 120.81"><defs><style>.cls-1{fill:#fff;}</style></defs><path class="cls-1" d="M140.72,10.71a21.72,21.72,0,0,0-30.15,4L86.33,46.6h0l-8,10.51-7.81-10.3-.17-.21h0L46.73,15.49c-.1-.16-.22-.32-.33-.47l-.11-.14A21.6,21.6,0,0,0,16,10.72C5.2,18.92,6.68,33.82,11.82,41c.16.23.32.43.43.57L36,72.86h0l24.75,32.56c.09.15.21.31.35.5a21.52,21.52,0,0,0,14.29,8.36,23.07,23.07,0,0,0,3,.2,21.38,21.38,0,0,0,13-4.41,20.9,20.9,0,0,0,4.44-4.52L120.61,73h0l24.22-31.9h0l0,0,.17-.24A21.69,21.69,0,0,0,140.72,10.71Zm-109,51.18L14.79,39.57a5,5,0,0,1-.35-.46c-3.87-5.38-6-18.61,3.5-25.82A18.29,18.29,0,0,1,29,9.53a18,18,0,0,1,2.53.18A18.28,18.28,0,0,1,43.72,16.8l.11.15a2.27,2.27,0,0,1,.18.25L61,39.6l-.23-.07a19.26,19.26,0,0,0-2.23-.71l-.06,0c-.74-.18-1.48-.31-2.23-.42l-.73-.08c-.55-.06-1.09-.1-1.64-.11l-.8,0c-.58,0-1.17,0-1.76.09l-.6.05a20.5,20.5,0,0,0-2.3.4c-.2,0-.39.11-.59.16-.57.15-1.14.32-1.71.52l-.77.29c-.52.21-1,.44-1.55.69l-.7.34A24.35,24.35,0,0,0,41,42l-.16.11-.64.47,0,0-.5.4-.26.21,0,0a22,22,0,0,0-1.78,1.69c-.18.19-.34.38-.51.58q-.57.63-1.08,1.32l-.49.66c-.34.49-.66,1-1,1.52-.1.17-.21.34-.31.52a22.82,22.82,0,0,0-1,2.13c-.07.17-.12.34-.19.51-.21.57-.41,1.15-.57,1.73-.07.25-.14.51-.2.76-.13.54-.24,1.07-.33,1.61l-.12.74c-.09.7-.14,1.39-.17,2.09,0,.08,0,.17,0,.25a20.16,20.16,0,0,0,.08,2.33C31.73,61.74,31.72,61.81,31.73,61.89Zm61.55,41.76a18.11,18.11,0,0,1-3.8,3.87,18.44,18.44,0,0,1-20.32,1.3A18.89,18.89,0,0,1,63.69,104c-3.32-4.16-12.7-16.35-25.1-33a18.35,18.35,0,0,1-3.67-9.62.77.77,0,0,1,0-.15c0-.48,0-.95,0-1.42,0-.1,0-.2,0-.3,0-.4,0-.81.08-1.22,0-.16,0-.32,0-.49,0-.36.11-.71.18-1.07,0-.21,0-.41.09-.62s.16-.6.24-.91.12-.5.19-.75.2-.55.3-.82.18-.54.28-.8.27-.57.4-.85.22-.48.34-.72.33-.57.5-.85.25-.44.39-.65.37-.52.56-.78.31-.44.48-.65.44-.5.67-.75.33-.4.52-.59.52-.49.79-.73.35-.34.55-.51l0,0h0c.22-.15.43-.31.63-.46a.69.69,0,0,0,.13-.11l.44-.34.07,0a18.33,18.33,0,0,1,25.06,3.9L85.25,71.51l.52.72.18.24c.16.23.34.47.53.71l.19.24c.15.18.29.36.44.53.34.4.71.76,1.08,1.14.15.14.28.3.44.45A21,21,0,0,0,90.38,77h0a19.4,19.4,0,0,0,2.12,1.4l.48.28a21.23,21.23,0,0,0,2.2,1.07l.35.13c.69.27,1.4.5,2.11.7l.4.11a21.37,21.37,0,0,0,2.36.46l.45.06c.8.09,1.59.15,2.39.16h.17a21.52,21.52,0,0,0,2.54-.16l.4-.07c.72-.1,1.44-.22,2.15-.39.24-.06.48-.14.72-.21.6-.16,1.19-.34,1.76-.55.09,0,.18,0,.27-.09Zm24.93-32.84-.16.19a18.43,18.43,0,0,1-23,5.13,17.07,17.07,0,0,1-2.68-1.67c-.48-.36-.93-.74-1.37-1.14-.12-.12-.23-.24-.35-.35-.3-.3-.61-.61-.9-.94l-.21-.24L88.16,70h0L80.37,59.77l8.51-11.22a18.42,18.42,0,0,1,11.9-7c.3,0,.61-.06.92-.09s.52-.06.79-.07a18.25,18.25,0,0,1,10.05,2.41l.06,0c.29.17.57.37.86.56s.47.29.69.45l.47.35a3.55,3.55,0,0,0,.31.23l.4.37h.13a23.69,23.69,0,0,0,2.1,1.25l.43.24a22,22,0,0,0,2.12.93l.4.14a18.85,18.85,0,0,0,2,.61l.29.08a21.32,21.32,0,0,0,2.21.39l.53.06c.7.07,1.41.11,2.11.11h.08c.38,0,.75,0,1.12-.06s.91,0,1.37-.1.79-.13,1.18-.2.85-.14,1.26-.24.8-.23,1.19-.35.81-.24,1.2-.38l.3-.1Zm24.22-31.93-.16.23c-.38.49-.78,1-1.2,1.42s-.74.74-1.12,1.09l-.18.18a18.26,18.26,0,0,1-14.52,4.42h-.06c-.47-.06-.94-.16-1.41-.26-.1,0-.21,0-.31-.06-.38-.09-.75-.21-1.13-.33l-.58-.16c-.29-.1-.57-.23-.86-.35s-.54-.2-.8-.32l-.62-.32c-.34-.17-.68-.33-1-.52-.13-.07-.25-.16-.38-.24-.4-.25-.8-.5-1.19-.78l0,0-.06,0-.39-.3-.27-.19,0,0h0l0,0a19.94,19.94,0,0,0-2.13-1.34c-.21-.12-.43-.23-.65-.34-.54-.28-1.08-.54-1.64-.77l-.73-.29c-.61-.23-1.22-.42-1.84-.59-.17-.05-.33-.11-.5-.15a21.29,21.29,0,0,0-2.36-.44l-.61-.06c-.6-.06-1.2-.1-1.79-.11H103c-.57,0-1.13.05-1.69.11l-.73.07a20.23,20.23,0,0,0-2.3.43l-.44.13c-.62.17-1.23.36-1.83.58l-.32.1L113,16.79l.12-.16a18.4,18.4,0,0,1,29.31,22.25Z"/></svg>