<?xml version="1.0" encoding="utf-8"?>
<!-- Generator: Adobe Illustrator 25.1.0, SVG Export Plug-In . SVG Version: 6.00 Build 0)  -->
<svg version="1.1" id="Calque_1" xmlns="http://www.w3.org/2000/svg" xmlns:xlink="http://www.w3.org/1999/xlink" x="0px" y="0px"
	 viewBox="0 0 867 1027" style="enable-background:new 0 0 867 1027;" xml:space="preserve">
<style type="text/css">
	.st0{fill-rule:evenodd;clip-rule:evenodd;fill:#DFDFDF;}
	.st1{fill:#4B4B4B;}
	.st2{fill:none;stroke:#C4C4C4;stroke-width:4;stroke-linecap:square;stroke-linejoin:round;stroke-dasharray:12,20;}
	.st3{fill:url(#SVGID_1_);}
	.st4{clip-path:url(#SVGID_3_);}
	.st5{fill:#FFFFFF;}
	.st6{fill:url(#SVGID_4_);}
	.st7{fill:url(#SVGID_5_);}
	.st8{clip-path:url(#SVGID_7_);}
	.st9{fill:url(#SVGID_8_);}
	.st10{clip-path:url(#SVGID_10_);}
	.st11{fill:url(#SVGID_11_);}
</style>
<path class="st0" d="M180,145.3h405v0c39.9-0.2,72.2-32.7,72.2-72.6c0-40-32.3-72.4-72.2-72.6v0l-0.3,0l-0.1,0l-0.1,0L181.1,0
	c20.9,17.1,34.2,43.1,34.2,72.2C215.3,101.8,201.5,128.2,180,145.3z"/>
<path class="st1" d="M342.7,40.3V26.6h3.8v12.5c0,1.9,0.2,3.3,0.7,4.2c0.7,1.4,2.2,2,4.4,2s3.6-0.7,4.4-2c0.5-0.8,0.7-2.2,0.7-4.2
	V26.6h3.8v13.7c0,2.7-0.8,4.7-2.4,6.2c-1.5,1.4-3.7,2-6.4,2s-4.8-0.7-6.4-2C343.5,45,342.7,43,342.7,40.3z M364.1,48V32.5h3.2v2.3
	l0.1,0.1c1.1-1.8,2.7-2.8,4.8-2.8c1.7,0,3.1,0.5,4,1.3c1,0.9,1.5,2.2,1.5,3.9V48h-3.4v-9.8c0-2.3-1-3.5-3-3.5c-1.1,0-2,0.4-2.7,1.2
	c-0.7,0.8-1,1.8-1,2.9V48H364.1z M395.4,41.1H384c0,1.3,0.3,2.4,1,3.2c0.7,0.9,1.8,1.4,3.1,1.4c1.9,0,3.2-0.9,3.8-2.6h3.2
	c-0.4,1.7-1.2,3-2.5,3.9c-1.3,0.9-2.8,1.4-4.5,1.4c-2.4,0-4.2-0.8-5.6-2.2s-2-3.5-2-5.9c0-2.3,0.7-4.2,2-5.8
	c1.4-1.6,3.2-2.4,5.5-2.4c2.2,0,4,0.8,5.4,2.4c1.3,1.5,2,3.3,2,5.5C395.5,40.4,395.4,40.8,395.4,41.1z M384,38.9h8
	c-0.1-1.1-0.5-2.1-1.2-2.9c-0.7-0.8-1.6-1.2-2.7-1.2c-1.2,0-2.1,0.4-2.9,1.2C384.4,36.7,384,37.7,384,38.9z M406.4,48V32.5h3.4V48
	H406.4z M406.4,29.8v-3.2h3.4v3.2H406.4z M416.3,40.4c0,1.5,0.3,2.7,1,3.7c0.8,1.1,1.9,1.7,3.3,1.7c1.4,0,2.5-0.6,3.3-1.7
	c0.7-1,1-2.2,1-3.8c0-1.7-0.4-3-1.2-4c-0.8-1-1.8-1.5-3.1-1.5c-1.5,0-2.6,0.6-3.4,1.8C416.6,37.5,416.3,38.8,416.3,40.4z
	 M428.2,26.6V48H425v-2.1h-0.1c-0.9,1.7-2.5,2.5-4.8,2.5c-2.4,0-4.2-0.8-5.5-2.4c-1.2-1.5-1.8-3.4-1.8-5.9c0-2.6,0.7-4.7,2.1-6.1
	c1.2-1.3,2.8-1.9,4.6-1.9c2.4,0,4.2,0.8,5.2,2.4h0.1v-7.9H428.2z M446,41.1h-11.4c0,1.3,0.3,2.4,1,3.2c0.7,0.9,1.8,1.4,3.1,1.4
	c1.9,0,3.2-0.9,3.8-2.6h3.2c-0.4,1.7-1.2,3-2.5,3.9c-1.3,0.9-2.8,1.4-4.5,1.4c-2.4,0-4.2-0.8-5.6-2.2s-2-3.5-2-5.9
	c0-2.3,0.7-4.2,2-5.8c1.4-1.6,3.2-2.4,5.5-2.4c2.2,0,4,0.8,5.4,2.4c1.3,1.5,2,3.3,2,5.5C446.1,40.4,446,40.8,446,41.1z M434.6,38.9
	h8c-0.1-1.1-0.4-2.1-1.2-2.9c-0.7-0.8-1.6-1.2-2.7-1.2c-1.2,0-2.1,0.4-2.9,1.2C435,36.7,434.6,37.7,434.6,38.9z M436.2,30.4l2.7-4.3
	h4.1l-4.3,4.3H436.2z M462.7,41.1h-11.4c0,1.3,0.3,2.4,1,3.2c0.7,0.9,1.8,1.4,3.1,1.4c1.9,0,3.2-0.9,3.8-2.6h3.2
	c-0.4,1.7-1.2,3-2.5,3.9c-1.3,0.9-2.8,1.4-4.5,1.4c-2.4,0-4.2-0.8-5.6-2.2s-2-3.5-2-5.9c0-2.3,0.7-4.2,2-5.8
	c1.4-1.6,3.2-2.4,5.5-2.4c2.2,0,4,0.8,5.4,2.4c1.3,1.5,2,3.3,2,5.5C462.7,40.4,462.7,40.8,462.7,41.1z M451.3,38.9h8
	c-0.1-1.1-0.5-2.1-1.2-2.9c-0.7-0.8-1.6-1.2-2.7-1.2c-1.2,0-2.1,0.4-2.9,1.2C451.7,36.7,451.3,37.7,451.3,38.9z M476.7,33.4h-3.4
	c0-2.2,0.6-4,1.9-5.3c1.3-1.3,3.1-2,5.3-2c1.9,0,3.5,0.5,4.7,1.6c1.2,1.1,1.9,2.6,1.9,4.4c0,1.2-0.3,2.3-0.8,3.1
	c-0.3,0.5-0.9,1.1-1.8,1.9c-1,0.8-1.6,1.5-1.9,2c-0.5,0.8-0.8,1.8-0.8,3.1h-3.2c0-1.7,0.2-2.9,0.6-3.8c0.3-0.8,0.9-1.5,1.8-2.2
	c0.9-0.8,1.5-1.3,1.7-1.6c0.5-0.6,0.7-1.4,0.7-2.2c0-1.1-0.4-2-1-2.6c-0.6-0.5-1.2-0.8-1.9-0.8C477.9,28.9,476.7,30.4,476.7,33.4z
	 M478.1,48v-3.8h4V48H478.1z M340.2,75.3V61.6h3.8v12.5c0,1.9,0.2,3.3,0.7,4.2c0.7,1.4,2.2,2,4.4,2c2.2,0,3.6-0.7,4.3-2
	c0.5-0.8,0.7-2.2,0.7-4.2V61.6h3.8v13.7c0,2.7-0.8,4.7-2.4,6.2c-1.5,1.4-3.7,2-6.4,2s-4.8-0.7-6.4-2C341,80,340.2,78,340.2,75.3z
	 M361.6,83V67.5h3.2v2.3l0.1,0.1c1.1-1.8,2.7-2.8,4.8-2.8c1.7,0,3.1,0.4,4,1.3c1,0.9,1.5,2.2,1.5,3.9V83h-3.4v-9.8
	c0-2.3-1-3.5-3-3.5c-1.1,0-2,0.4-2.7,1.2c-0.7,0.8-1,1.8-1,2.9V83H361.6z M399.2,75.3c0-1.5-0.4-2.8-1.1-3.8
	c-0.8-1.1-1.9-1.7-3.2-1.7c-1.4,0-2.5,0.5-3.2,1.5c-0.7,1-1.1,2.3-1.1,4c0,1.6,0.4,2.9,1.2,3.9c0.8,1,1.8,1.5,3.2,1.5
	c1.4,0,2.6-0.6,3.3-1.7C398.9,78,399.2,76.8,399.2,75.3z M387.3,88.7V67.5h3.2v2.1h0.1c0.9-1.7,2.5-2.5,4.8-2.5
	c2.3,0,4.2,0.8,5.5,2.4c1.2,1.5,1.8,3.4,1.8,5.8c0,2.3-0.5,4.1-1.6,5.6c-1.2,1.7-2.9,2.5-5.1,2.5c-2.4,0-4.2-0.8-5.2-2.4h-0.1v7.7
	H387.3z M405.5,83V67.5h3.2v3h0.1c0.2-0.9,0.8-1.6,1.6-2.3c0.9-0.7,1.9-1.1,2.9-1.1c0.3,0,0.7,0,1.3,0.1v3.3
	c-0.8-0.1-1.3-0.2-1.5-0.2c-1.2,0-2.2,0.5-3,1.4c-0.8,1-1.2,2.3-1.2,3.9V83H405.5z M423.2,80.7c1.4,0,2.6-0.6,3.4-1.7
	c0.7-1,1.1-2.2,1.1-3.8c0-1.5-0.4-2.7-1.1-3.7c-0.8-1.2-1.9-1.7-3.4-1.7s-2.6,0.6-3.4,1.7c-0.7,1-1,2.2-1,3.7c0,1.5,0.4,2.8,1,3.8
	C420.6,80.1,421.7,80.7,423.2,80.7z M423.2,83.4c-2.4,0-4.4-0.8-5.8-2.3c-1.4-1.5-2-3.4-2-5.9c0-2.4,0.7-4.4,2.1-5.9
	c1.4-1.5,3.3-2.3,5.8-2.3s4.4,0.8,5.8,2.3c1.4,1.5,2,3.4,2,5.9c0,2.4-0.7,4.4-2,5.9C427.6,82.7,425.6,83.4,423.2,83.4z M433.9,84.2
	V67.5h3.4v16.8c0,3.2-1.5,4.8-4.4,4.8c-0.4,0-0.9,0-1.5-0.1v-2.7c0.6,0.1,1,0.1,1.2,0.1c0.6,0,1-0.2,1.2-0.6
	C433.9,85.6,433.9,85,433.9,84.2z M433.9,64.8v-3.2h3.4v3.2H433.9z M455.2,76.1h-11.4c0,1.3,0.3,2.4,1,3.2c0.7,0.9,1.8,1.4,3.1,1.4
	c1.9,0,3.2-0.9,3.8-2.6h3.2c-0.4,1.7-1.2,3-2.5,3.9c-1.3,0.9-2.8,1.4-4.5,1.4c-2.4,0-4.2-0.8-5.6-2.2s-2-3.5-2-5.9
	c0-2.3,0.7-4.2,2-5.8c1.4-1.6,3.2-2.4,5.5-2.4c2.2,0,4,0.8,5.4,2.4c1.3,1.5,2,3.3,2,5.5C455.2,75.4,455.2,75.8,455.2,76.1z
	 M443.8,73.9h8c-0.1-1.1-0.5-2.1-1.2-2.9c-0.7-0.8-1.6-1.2-2.7-1.2c-1.2,0-2.1,0.4-2.9,1.2C444.2,71.7,443.8,72.7,443.8,73.9z
	 M456.2,70v-2.6h2.6v-4.6h3.4v4.6h3.1V70h-3.1v8.3c0,0.8,0.1,1.3,0.2,1.6c0.2,0.4,0.7,0.5,1.4,0.5c0.6,0,1.1,0,1.4-0.1V83
	c-1.5,0.1-2.2,0.2-2.2,0.2c-1.7,0-2.8-0.3-3.5-1c-0.5-0.6-0.8-1.5-0.8-2.9V70H456.2z M479.2,68.4h-3.4c0-2.2,0.6-4,1.9-5.3
	c1.3-1.3,3.1-2,5.3-2c1.9,0,3.5,0.5,4.7,1.6c1.2,1.1,1.9,2.6,1.9,4.4c0,1.2-0.3,2.3-0.8,3.1c-0.3,0.5-0.9,1.1-1.8,1.9
	c-1,0.8-1.6,1.4-1.9,1.9c-0.5,0.8-0.8,1.8-0.8,3.1H481c0-1.7,0.2-2.9,0.6-3.8c0.3-0.8,0.9-1.5,1.8-2.2c0.9-0.8,1.5-1.3,1.7-1.6
	c0.5-0.6,0.7-1.4,0.7-2.2c0-1.1-0.4-2-1-2.6c-0.6-0.5-1.2-0.8-1.9-0.8C480.4,63.9,479.2,65.4,479.2,68.4z M480.5,83v-3.8h4V83H480.5
	z M354.9,110.3V96.6h3.8v12.5c0,1.9,0.2,3.3,0.7,4.2c0.7,1.4,2.2,2,4.4,2s3.6-0.7,4.4-2c0.5-0.8,0.7-2.2,0.7-4.2V96.6h3.8v13.7
	c0,2.7-0.8,4.7-2.4,6.2c-1.5,1.4-3.7,2-6.4,2s-4.8-0.7-6.4-2C355.7,115,354.9,113,354.9,110.3z M376.3,118v-15.5h3.2v2.3l0.1,0.1
	c1.1-1.8,2.7-2.8,4.8-2.8c1.7,0,3.1,0.4,4,1.3c1,0.9,1.5,2.2,1.5,3.9V118h-3.4v-9.8c0-2.3-1-3.5-3-3.5c-1.1,0-2,0.4-2.7,1.2
	c-0.7,0.8-1,1.8-1,2.9v9.2H376.3z M401.9,118v-15.5h3.2v3h0.1c0.2-0.9,0.8-1.6,1.7-2.3c0.9-0.7,1.9-1.1,2.9-1.1c0.3,0,0.7,0,1.3,0.1
	v3.3c-0.8-0.1-1.3-0.2-1.5-0.2c-1.2,0-2.2,0.5-3,1.4c-0.8,1-1.2,2.3-1.2,3.9v7.4H401.9z M426.5,111.1h-11.4c0,1.3,0.3,2.4,1,3.2
	c0.7,0.9,1.8,1.4,3.1,1.4c1.9,0,3.2-0.9,3.8-2.6h3.2c-0.4,1.7-1.2,3-2.5,3.9c-1.3,0.9-2.8,1.4-4.5,1.4c-2.4,0-4.2-0.8-5.6-2.2
	s-2-3.5-2-5.9c0-2.3,0.7-4.2,2-5.8c1.4-1.6,3.2-2.4,5.5-2.4c2.2,0,4,0.8,5.4,2.4c1.3,1.5,2,3.3,2,5.5
	C426.6,110.4,426.6,110.8,426.5,111.1z M415.1,108.9h8c-0.1-1.1-0.4-2.1-1.2-2.9c-0.7-0.8-1.6-1.2-2.7-1.2c-1.2,0-2.1,0.4-2.9,1.2
	C415.6,106.7,415.2,107.7,415.1,108.9z M419,97.7l-2.1,2.7h-2.8l3.2-4.3h3.3l3.2,4.3h-2.8L419,97.7z M433.2,118l-5.6-15.5h3.7
	l3.9,11.9h0.1l3.8-11.9h3.5l-5.6,15.5H433.2z M458.8,111.1h-11.4c0,1.3,0.3,2.4,1,3.2c0.7,0.9,1.8,1.4,3.1,1.4
	c1.9,0,3.2-0.9,3.8-2.6h3.2c-0.4,1.7-1.2,3-2.5,3.9c-1.3,0.9-2.8,1.4-4.5,1.4c-2.4,0-4.2-0.8-5.6-2.2c-1.3-1.5-2-3.5-2-5.9
	c0-2.3,0.7-4.2,2-5.8c1.4-1.6,3.2-2.4,5.5-2.4c2.2,0,4,0.8,5.4,2.4c1.3,1.5,2,3.3,2,5.5C458.8,110.4,458.8,110.8,458.8,111.1z
	 M447.4,108.9h8c-0.1-1.1-0.5-2.1-1.2-2.9c-0.7-0.8-1.6-1.2-2.7-1.2c-1.2,0-2.1,0.4-2.9,1.2S447.4,107.7,447.4,108.9z M472.8,103.4
	h-3.4c0-2.2,0.6-4,1.9-5.3c1.3-1.3,3.1-2,5.3-2c1.9,0,3.5,0.5,4.7,1.6c1.2,1.1,1.9,2.6,1.9,4.4c0,1.2-0.3,2.3-0.8,3.1
	c-0.3,0.5-0.9,1.1-1.8,1.9c-1,0.8-1.6,1.4-1.9,1.9c-0.5,0.8-0.8,1.8-0.8,3.1h-3.2c0-1.7,0.2-2.9,0.6-3.8c0.3-0.8,0.9-1.5,1.8-2.2
	c0.9-0.8,1.5-1.3,1.7-1.6c0.5-0.6,0.7-1.4,0.7-2.2c0-1.1-0.4-2-1-2.6c-0.6-0.5-1.2-0.8-1.9-0.8C474,98.9,472.8,100.4,472.8,103.4z
	 M474.2,118v-3.8h4v3.8H474.2z"/>
<path class="st0" d="M389,366.3h405v0c39.9-0.2,72.2-32.7,72.2-72.6c0-40-32.3-72.4-72.2-72.6v0h-0.2c-0.1,0-0.2,0-0.3,0
	c-0.1,0-0.2,0-0.3,0H390.1c20.9,17.1,34.2,43.1,34.2,72.2C424.3,322.8,410.5,349.2,389,366.3z"/>
<path class="st1" d="M495.7,272.1h-3.8c-0.7-2.8-2.5-4.3-5.3-4.3c-2.1,0-3.8,0.9-5,2.5c-1,1.5-1.5,3.4-1.5,5.6
	c0,2.3,0.5,4.1,1.5,5.6c1.2,1.7,2.8,2.6,5,2.6c1.6,0,2.9-0.6,3.9-1.7c0.9-1,1.4-2.3,1.6-4h3.7c-0.2,2.6-1.1,4.7-2.8,6.3
	c-1.7,1.6-3.8,2.4-6.4,2.4c-3.1,0-5.6-1.1-7.5-3.3c-1.8-2.1-2.7-4.7-2.7-7.9c0-3.2,0.9-5.8,2.7-7.9c1.9-2.2,4.4-3.3,7.5-3.3
	c2.5,0,4.5,0.6,6.2,1.9C494.5,268,495.4,269.8,495.7,272.1z M505.7,284.4c1.4,0,2.6-0.6,3.4-1.7c0.7-1,1-2.2,1-3.8
	c0-1.5-0.4-2.7-1-3.7c-0.8-1.2-1.9-1.7-3.4-1.7s-2.6,0.6-3.4,1.7c-0.7,1-1.1,2.2-1.1,3.7c0,1.5,0.4,2.8,1.1,3.8
	C503.2,283.8,504.3,284.4,505.7,284.4z M505.7,287.1c-2.4,0-4.4-0.8-5.8-2.3c-1.4-1.5-2-3.4-2-5.9c0-2.4,0.7-4.4,2.1-5.9
	c1.4-1.5,3.3-2.3,5.8-2.3s4.4,0.8,5.8,2.3c1.4,1.5,2,3.4,2,5.9c0,2.4-0.7,4.4-2,5.9C510.1,286.3,508.2,287.1,505.7,287.1z
	 M516.4,286.7v-15.5h3.2v2.3l0.1,0.1c1.1-1.8,2.7-2.8,4.8-2.8c1.7,0,3.1,0.4,4,1.4c1,0.9,1.5,2.2,1.5,3.9v10.6h-3.4v-9.8
	c0-2.3-1-3.5-3-3.5c-1.1,0-2,0.4-2.7,1.2c-0.7,0.8-1,1.8-1,2.9v9.1H516.4z M532.1,273.7v-2.6h2.6v-4.6h3.4v4.6h3.1v2.6h-3.1v8.3
	c0,0.8,0.1,1.3,0.2,1.6c0.2,0.4,0.7,0.5,1.4,0.5c0.6,0,1.1,0,1.4-0.1v2.6c-1.5,0.1-2.2,0.2-2.2,0.2c-1.7,0-2.8-0.3-3.5-1
	c-0.5-0.6-0.8-1.5-0.8-2.9v-9.1H532.1z M553.2,281.4v-2.5c-0.4,0.3-1.1,0.5-1.9,0.6c-0.8,0.1-1.5,0.2-2.3,0.3
	c-1.9,0.3-2.8,1.2-2.8,2.6c0,0.7,0.4,1.2,1.1,1.6c0.6,0.3,1.2,0.4,2,0.4c0.9,0,1.8-0.2,2.5-0.7C552.7,283.2,553.2,282.4,553.2,281.4
	z M556.6,275.2v8c0,0.8,0.3,1.2,0.8,1.2c0.3,0,0.6,0,0.8-0.1v2.4c-0.7,0.3-1.5,0.4-2.2,0.4c-1.5,0-2.4-0.6-2.6-1.9
	c-1.3,1.3-3.1,1.9-5.4,1.9c-1.5,0-2.7-0.4-3.7-1.1c-1.1-0.8-1.6-2-1.6-3.4c0-1.7,0.6-3,1.9-3.7c0.8-0.5,2.1-0.8,4-1.1
	c2.2-0.3,3.2-0.5,3.2-0.5c0.9-0.3,1.4-0.8,1.4-1.7c0-1.4-1.1-2.1-3.2-2.1s-3.3,0.8-3.4,2.5h-3.4c0.2-3.4,2.5-5.2,7-5.2
	c1.7,0,3.1,0.3,4.2,1C555.9,272.6,556.6,273.7,556.6,275.2z M574.2,276.3h-3.4c-0.3-1.9-1.5-2.9-3.5-2.9c-1.1,0-2.1,0.4-2.8,1.1
	c-1,1-1.5,2.5-1.5,4.6c0,1.5,0.3,2.7,0.9,3.6c0.7,1.1,1.8,1.7,3.2,1.7c1,0,1.8-0.3,2.5-0.9c0.7-0.6,1.1-1.5,1.2-2.6h3.4
	c-0.7,4.2-3,6.2-7.1,6.2c-2.4,0-4.2-0.8-5.6-2.3c-1.3-1.4-2-3.3-2-5.7c0-2.5,0.6-4.4,1.9-5.9c1.4-1.6,3.3-2.4,5.7-2.4
	c1.9,0,3.5,0.5,4.7,1.4C573.3,273.1,574,274.5,574.2,276.3z M575.4,273.7v-2.6h2.6v-4.6h3.4v4.6h3.1v2.6h-3.1v8.3
	c0,0.8,0.1,1.3,0.2,1.6c0.2,0.4,0.7,0.5,1.4,0.5c0.6,0,1.1,0,1.4-0.1v2.6c-1.5,0.1-2.2,0.2-2.2,0.2c-1.7,0-2.8-0.3-3.5-1
	c-0.5-0.6-0.8-1.5-0.8-2.9v-9.1H575.4z M601,279.8h-11.4c0,1.3,0.3,2.4,1,3.2c0.7,0.9,1.8,1.4,3.1,1.4c1.9,0,3.2-0.9,3.8-2.6h3.2
	c-0.4,1.7-1.2,3-2.5,3.9c-1.3,0.9-2.8,1.4-4.5,1.4c-2.4,0-4.2-0.8-5.6-2.2c-1.3-1.5-2-3.5-2-5.9c0-2.3,0.7-4.2,2-5.8
	c1.4-1.6,3.2-2.4,5.5-2.4c2.2,0,4,0.8,5.4,2.4c1.3,1.5,2,3.3,2,5.5C601.1,279,601.1,279.4,601,279.8z M589.6,277.5h8
	c-0.1-1.1-0.5-2.1-1.2-2.9c-0.7-0.8-1.6-1.2-2.7-1.2c-1.2,0-2.1,0.4-2.9,1.2S589.7,276.4,589.6,277.5z M603.1,273.9v-2.7h12.6v2.4
	l-8.9,10.4h9.3v2.7h-13.7v-2.4l8.6-10.4H603.1z M618.3,280.1v-3.2h8.7v3.2H618.3z M630.3,286.7v-15.5h3.2v2.3l0.1,0.1
	c1.1-1.8,2.7-2.8,4.8-2.8c1.7,0,3.1,0.4,4,1.4c1,0.9,1.5,2.2,1.5,3.9v10.6h-3.4v-9.8c0-2.3-1-3.5-3-3.5c-1.1,0-2,0.4-2.7,1.2
	c-0.7,0.8-1,1.8-1,2.9v9.1H630.3z M654.6,284.4c1.4,0,2.6-0.6,3.4-1.7c0.7-1,1-2.2,1-3.8c0-1.5-0.4-2.7-1-3.7
	c-0.8-1.2-1.9-1.7-3.4-1.7s-2.6,0.6-3.4,1.7c-0.7,1-1,2.2-1,3.7c0,1.5,0.3,2.8,1,3.8C652.1,283.8,653.2,284.4,654.6,284.4z
	 M654.6,287.1c-2.4,0-4.4-0.8-5.8-2.3c-1.4-1.5-2-3.4-2-5.9c0-2.4,0.7-4.4,2.1-5.9c1.4-1.5,3.3-2.3,5.8-2.3s4.4,0.8,5.8,2.3
	c1.4,1.5,2,3.4,2,5.9c0,2.4-0.7,4.4-2,5.9C659,286.3,657.1,287.1,654.6,287.1z M678.9,271.2v15.5h-3.4v-2.2h-0.1
	c-0.4,0.8-1,1.4-1.9,1.9c-0.8,0.5-1.7,0.7-2.5,0.7c-3.9,0-5.8-2-5.8-6.1v-9.8h3.4v9.5c0,2.5,1,3.7,3,3.7c2.5,0,3.8-1.4,3.8-4.2v-9
	H678.9z M681.7,281.7h3.4c0.2,1.8,1.3,2.7,3.5,2.7c2.4,0,3.5-0.7,3.4-2c0-1-0.9-1.6-2.7-2.1c-2.9-0.7-4.5-1.1-4.8-1.3
	c-1.7-0.8-2.6-2-2.6-3.8c0-1.5,0.7-2.7,2.2-3.5c1.2-0.6,2.6-1,4.3-1c1.7,0,3.2,0.4,4.3,1.1c1.3,0.8,2,2.1,2.2,3.7h-3.6
	c-0.3-1.4-1.3-2.1-3.2-2.1c-1.9,0-2.8,0.5-2.8,1.6c0,0.7,0.5,1.3,1.6,1.7c0.2,0.1,1.3,0.4,3.5,0.8c1.6,0.4,2.7,0.8,3.5,1.3
	c1,0.8,1.6,1.8,1.6,3.2c0,1.7-0.8,3-2.2,3.9c-1.3,0.8-2.8,1.1-4.7,1.1c-2,0-3.7-0.4-4.9-1.3C682.4,284.8,681.7,283.4,681.7,281.7z
	 M698.3,286.7v-4h4.2v4c0,1.2-0.4,2.2-1.1,3.1c-0.7,0.9-1.7,1.4-2.9,1.6v-1.8c0.6-0.2,1.1-0.5,1.5-1.1c0.3-0.5,0.5-1.1,0.5-1.8
	H698.3z M714.8,286.7v-15.5h3.2v2.3l0.1,0.1c1.1-1.8,2.7-2.8,4.8-2.8c1.7,0,3.1,0.4,4,1.4c1,0.9,1.5,2.2,1.5,3.9v10.6H725v-9.8
	c0-2.3-1-3.5-3-3.5c-1.1,0-2,0.4-2.7,1.2c-0.7,0.8-1,1.8-1,2.9v9.1H714.8z M739.1,284.4c1.4,0,2.6-0.6,3.4-1.7c0.7-1,1-2.2,1-3.8
	c0-1.5-0.3-2.7-1-3.7c-0.8-1.2-1.9-1.7-3.4-1.7s-2.6,0.6-3.4,1.7c-0.7,1-1,2.2-1,3.7c0,1.5,0.4,2.8,1,3.8
	C736.5,283.8,737.7,284.4,739.1,284.4z M739.1,287.1c-2.4,0-4.4-0.8-5.8-2.3c-1.4-1.5-2-3.4-2-5.9c0-2.4,0.7-4.4,2.1-5.9
	c1.4-1.5,3.3-2.3,5.8-2.3s4.4,0.8,5.8,2.3c1.4,1.5,2,3.4,2,5.9c0,2.4-0.7,4.4-2,5.9C743.5,286.3,741.5,287.1,739.1,287.1z
	 M763.4,271.2v15.5H760v-2.2H760c-0.4,0.8-1,1.4-1.9,1.9c-0.8,0.5-1.7,0.7-2.5,0.7c-3.9,0-5.8-2-5.8-6.1v-9.8h3.4v9.5
	c0,2.5,1,3.7,3,3.7c2.5,0,3.8-1.4,3.8-4.2v-9H763.4z M766.2,281.7h3.4c0.2,1.8,1.3,2.7,3.5,2.7c2.4,0,3.5-0.7,3.5-2
	c0-1-0.9-1.6-2.7-2.1c-2.9-0.7-4.5-1.1-4.8-1.3c-1.7-0.8-2.6-2-2.6-3.8c0-1.5,0.7-2.7,2.2-3.5c1.2-0.6,2.6-1,4.3-1
	c1.7,0,3.2,0.4,4.3,1.1c1.3,0.8,2,2.1,2.2,3.7h-3.6c-0.3-1.4-1.3-2.1-3.2-2.1c-1.9,0-2.8,0.5-2.8,1.6c0,0.7,0.5,1.3,1.6,1.7
	c0.2,0.1,1.3,0.4,3.5,0.8c1.6,0.4,2.7,0.8,3.5,1.3c1,0.8,1.6,1.8,1.6,3.2c0,1.7-0.8,3-2.2,3.9c-1.3,0.8-2.8,1.1-4.7,1.1
	c-2,0-3.7-0.4-4.9-1.3C766.9,284.8,766.2,283.4,766.2,281.7z M501.7,313.9c0-1.5-0.4-2.8-1.1-3.8c-0.8-1.1-1.9-1.7-3.2-1.7
	c-1.4,0-2.5,0.5-3.2,1.5c-0.7,1-1.1,2.3-1.1,4c0,1.6,0.4,2.9,1.2,3.9s1.8,1.5,3.2,1.5c1.4,0,2.6-0.6,3.3-1.7
	C501.4,316.7,501.7,315.4,501.7,313.9z M489.8,327.4v-21.2h3.2v2.1h0.1c0.9-1.7,2.5-2.5,4.8-2.5c2.3,0,4.2,0.8,5.5,2.4
	c1.2,1.5,1.8,3.4,1.8,5.8c0,2.3-0.5,4.1-1.6,5.6c-1.2,1.7-2.9,2.5-5.1,2.5c-2.4,0-4.2-0.8-5.2-2.4h-0.1v7.7H489.8z M515.2,319.4
	c1.4,0,2.6-0.6,3.4-1.7c0.7-1,1-2.2,1-3.8c0-1.5-0.4-2.7-1-3.7c-0.8-1.2-1.9-1.7-3.4-1.7s-2.6,0.6-3.4,1.7c-0.7,1-1,2.2-1,3.7
	c0,1.5,0.4,2.8,1,3.8C512.6,318.8,513.7,319.4,515.2,319.4z M515.2,322.1c-2.4,0-4.4-0.8-5.8-2.3c-1.4-1.5-2-3.4-2-5.9
	c0-2.4,0.7-4.4,2.1-5.9c1.4-1.5,3.3-2.3,5.8-2.3s4.4,0.8,5.8,2.3c1.4,1.5,2,3.4,2,5.9c0,2.4-0.7,4.4-2,5.9
	C519.5,321.3,517.6,322.1,515.2,322.1z M539.5,306.2v15.5h-3.4v-2.2H536c-0.4,0.8-1,1.4-1.9,1.9c-0.8,0.5-1.7,0.7-2.5,0.7
	c-3.9,0-5.8-2-5.8-6.1v-9.8h3.4v9.5c0,2.5,1,3.7,3,3.7c2.5,0,3.8-1.4,3.8-4.2v-9H539.5z M547.2,321.7l-5.6-15.5h3.7l3.9,11.9h0.1
	l3.8-11.9h3.5l-5.5,15.5H547.2z M565.7,319.4c1.4,0,2.6-0.6,3.4-1.7c0.7-1,1.1-2.2,1.1-3.8c0-1.5-0.4-2.7-1.1-3.7
	c-0.8-1.2-1.9-1.7-3.4-1.7s-2.6,0.6-3.4,1.7c-0.7,1-1,2.2-1,3.7c0,1.5,0.3,2.8,1,3.8C563.2,318.8,564.3,319.4,565.7,319.4z
	 M565.7,322.1c-2.4,0-4.4-0.8-5.8-2.3c-1.4-1.5-2-3.4-2-5.9c0-2.4,0.7-4.4,2.1-5.9c1.4-1.5,3.3-2.3,5.8-2.3s4.4,0.8,5.8,2.3
	c1.4,1.5,2,3.4,2,5.9c0,2.4-0.7,4.4-2,5.9C570.1,321.3,568.2,322.1,565.7,322.1z M576.4,321.7v-15.5h3.2v2.3l0.1,0.1
	c1.1-1.8,2.7-2.8,4.8-2.8c1.7,0,3.1,0.4,4,1.4c1,0.9,1.5,2.2,1.5,3.9v10.6h-3.4v-9.8c0-2.3-1-3.5-3-3.5c-1.1,0-2,0.4-2.7,1.2
	c-0.7,0.8-1,1.8-1,2.9v9.1H576.4z M592.8,316.7h3.4c0.2,1.8,1.3,2.7,3.5,2.7c2.4,0,3.5-0.7,3.5-2c0-1-0.9-1.6-2.7-2.1
	c-2.9-0.7-4.5-1.1-4.8-1.3c-1.7-0.8-2.6-2-2.6-3.8c0-1.5,0.7-2.7,2.2-3.5c1.2-0.6,2.6-1,4.3-1c1.7,0,3.2,0.4,4.3,1.1
	c1.3,0.8,2,2.1,2.2,3.7h-3.6c-0.3-1.4-1.3-2.1-3.2-2.1c-1.9,0-2.8,0.5-2.8,1.6c0,0.7,0.5,1.3,1.6,1.7c0.2,0.1,1.3,0.4,3.5,0.8
	c1.6,0.4,2.7,0.8,3.4,1.3c1,0.8,1.6,1.8,1.6,3.2c0,1.7-0.8,3-2.2,3.9c-1.3,0.8-2.8,1.1-4.7,1.1c-2,0-3.7-0.4-4.9-1.3
	C593.5,319.8,592.8,318.4,592.8,316.7z M621.6,321.7l-5.6-15.5h3.7l3.9,11.9h0.1l3.8-11.9h3.5l-5.6,15.5H621.6z M640.2,319.4
	c1.4,0,2.6-0.6,3.4-1.7c0.7-1,1-2.2,1-3.8c0-1.5-0.4-2.7-1-3.7c-0.8-1.2-1.9-1.7-3.4-1.7s-2.6,0.6-3.4,1.7c-0.7,1-1,2.2-1,3.7
	c0,1.5,0.3,2.8,1,3.8C637.6,318.8,638.8,319.4,640.2,319.4z M640.2,322.1c-2.4,0-4.4-0.8-5.8-2.3c-1.4-1.5-2-3.4-2-5.9
	c0-2.4,0.7-4.4,2.1-5.9c1.4-1.5,3.3-2.3,5.8-2.3s4.4,0.8,5.8,2.3c1.4,1.5,2,3.4,2,5.9c0,2.4-0.7,4.4-2,5.9
	C644.6,321.3,642.6,322.1,640.2,322.1z M664.5,306.2v15.5h-3.4v-2.2h-0.1c-0.4,0.8-1,1.4-1.9,1.9c-0.8,0.5-1.7,0.7-2.5,0.7
	c-3.9,0-5.8-2-5.8-6.1v-9.8h3.4v9.5c0,2.5,1,3.7,3,3.7c2.5,0,3.8-1.4,3.8-4.2v-9H664.5z M667.3,316.7h3.4c0.2,1.8,1.3,2.7,3.5,2.7
	c2.4,0,3.5-0.7,3.4-2c0-1-0.9-1.6-2.7-2.1c-2.9-0.7-4.5-1.1-4.8-1.3c-1.7-0.8-2.6-2-2.6-3.8c0-1.5,0.7-2.7,2.2-3.5
	c1.2-0.6,2.6-1,4.3-1c1.7,0,3.2,0.4,4.3,1.1c1.3,0.8,2,2.1,2.2,3.7H677c-0.3-1.4-1.3-2.1-3.2-2.1c-1.9,0-2.8,0.5-2.8,1.6
	c0,0.7,0.5,1.3,1.6,1.7c0.2,0.1,1.3,0.4,3.5,0.8c1.6,0.4,2.7,0.8,3.5,1.3c1,0.8,1.6,1.8,1.6,3.2c0,1.7-0.8,3-2.2,3.9
	c-1.3,0.8-2.8,1.1-4.7,1.1c-2,0-3.7-0.4-4.9-1.3C667.9,319.8,667.3,318.4,667.3,316.7z M701.6,316.4v-2.5c-0.4,0.3-1.1,0.5-1.9,0.6
	c-0.8,0.1-1.5,0.2-2.3,0.3c-1.9,0.3-2.8,1.2-2.8,2.6c0,0.7,0.4,1.2,1.1,1.6c0.6,0.3,1.2,0.4,2,0.4c0.9,0,1.8-0.2,2.5-0.7
	C701.1,318.2,701.6,317.4,701.6,316.4z M705,310.2v8c0,0.8,0.3,1.2,0.8,1.2c0.3,0,0.6,0,0.8-0.1v2.4c-0.7,0.3-1.5,0.4-2.2,0.4
	c-1.5,0-2.4-0.6-2.6-1.9c-1.3,1.3-3.1,1.9-5.4,1.9c-1.5,0-2.7-0.4-3.7-1.1c-1.1-0.8-1.6-2-1.6-3.4c0-1.7,0.6-3,1.9-3.7
	c0.8-0.5,2.1-0.8,4-1.1c2.2-0.3,3.2-0.5,3.2-0.5c0.9-0.3,1.4-0.8,1.4-1.7c0-1.4-1.1-2.1-3.2-2.1s-3.3,0.8-3.4,2.5h-3.4
	c0.2-3.4,2.5-5.2,7-5.2c1.7,0,3.1,0.3,4.2,1C704.3,307.6,705,308.7,705,310.2z M708.8,321.7v-15.5h3.4v15.5H708.8z M708.8,303.5
	v-3.2h3.4v3.2H708.8z M718.6,314.1c0,1.5,0.3,2.7,1,3.7c0.8,1.1,1.9,1.6,3.3,1.6c1.4,0,2.5-0.6,3.3-1.7c0.7-1,1-2.2,1-3.8
	c0-1.7-0.4-3-1.2-4c-0.8-1-1.8-1.5-3.1-1.5c-1.5,0-2.6,0.6-3.4,1.8C718.9,311.2,718.6,312.5,718.6,314.1z M730.5,300.2v21.4h-3.2
	v-2.1h-0.1c-0.9,1.7-2.5,2.5-4.8,2.5c-2.4,0-4.2-0.8-5.5-2.4c-1.2-1.5-1.8-3.4-1.8-5.9c0-2.6,0.7-4.7,2.1-6.1
	c1.2-1.3,2.8-1.9,4.6-1.9c2.4,0,4.2,0.8,5.2,2.4h0.1v-7.9H730.5z M748.3,314.8h-11.4c0,1.3,0.3,2.4,1,3.2c0.7,0.9,1.8,1.4,3.1,1.4
	c1.9,0,3.2-0.9,3.8-2.6h3.2c-0.4,1.7-1.2,3-2.5,3.9c-1.3,0.9-2.8,1.4-4.5,1.4c-2.4,0-4.2-0.8-5.6-2.2c-1.3-1.5-2-3.5-2-5.9
	c0-2.3,0.7-4.2,2-5.8c1.4-1.6,3.2-2.4,5.5-2.4c2.2,0,4,0.8,5.4,2.4c1.3,1.5,2,3.3,2,5.5C748.4,314,748.4,314.4,748.3,314.8z
	 M736.9,312.5h8c-0.1-1.1-0.4-2.1-1.2-2.9c-0.7-0.8-1.6-1.2-2.7-1.2c-1.2,0-2.1,0.4-2.9,1.2S737,311.4,736.9,312.5z M750.9,321.7
	v-15.5h3.2v3h0.1c0.2-0.9,0.8-1.6,1.7-2.3c0.9-0.7,1.9-1.1,2.9-1.1c0.3,0,0.7,0,1.3,0.1v3.3c-0.8-0.1-1.3-0.1-1.5-0.1
	c-1.2,0-2.2,0.5-3,1.4c-0.8,1-1.2,2.3-1.2,3.9v7.4H750.9z M761.7,321.7v-4h4.2v4H761.7z"/>
<path class="st0" d="M173,585.3h405v0c39.9-0.2,72.2-32.7,72.2-72.6S617.9,440.2,578,440v0h-0.3h-0.2h-0.2H174.1
	c20.9,17.1,34.2,43.1,34.2,72.2C208.3,541.8,194.5,568.2,173,585.3z"/>
<path class="st1" d="M261.9,487.6l-3.2,9.2h6.5L261.9,487.6L261.9,487.6z M251.7,505.3l8.2-21.4h4l8.2,21.4h-4l-2-5.7h-8.5l-2,5.7
	H251.7z M273.8,505.3v-15.5h3.2v2.3l0.1,0.1c1.1-1.8,2.7-2.8,4.8-2.8c1.7,0,3.1,0.4,4,1.4c1,0.9,1.5,2.2,1.5,3.9v10.6H284v-9.8
	c0-2.3-1-3.5-3-3.5c-1.1,0-2,0.4-2.7,1.2c-0.7,0.8-1,1.8-1,2.9v9.1H273.8z M300.6,500.1v-2.5c-0.4,0.3-1.1,0.5-1.9,0.6
	c-0.8,0.1-1.5,0.2-2.3,0.3c-1.9,0.3-2.8,1.2-2.8,2.6c0,0.7,0.4,1.2,1.1,1.6c0.6,0.3,1.2,0.4,2,0.4c0.9,0,1.8-0.2,2.5-0.7
	C300.1,501.8,300.6,501.1,300.6,500.1z M304,493.9v8c0,0.8,0.3,1.2,0.8,1.2c0.3,0,0.6,0,0.8-0.1v2.4c-0.7,0.3-1.5,0.4-2.2,0.4
	c-1.5,0-2.4-0.6-2.6-1.9c-1.3,1.3-3.1,1.9-5.4,1.9c-1.5,0-2.7-0.4-3.7-1.1c-1.1-0.8-1.6-1.9-1.6-3.4c0-1.7,0.6-3,1.9-3.7
	c0.8-0.5,2.1-0.8,4-1.1c2.2-0.3,3.2-0.5,3.2-0.5c0.9-0.3,1.4-0.9,1.4-1.7c0-1.4-1.1-2.1-3.2-2.1c-2.1,0-3.3,0.8-3.4,2.5h-3.4
	c0.2-3.4,2.5-5.2,7-5.2c1.7,0,3.1,0.3,4.2,1C303.3,491.2,304,492.4,304,493.9z M307.8,505.3v-21.4h3.4v21.4H307.8z M319.1,505.3
	l-5.9-15.5h3.8l4,11.6h0.1l3.9-11.6h3.6l-6,16.4c-0.7,1.8-1.3,3.1-1.8,3.7c-0.9,1.1-2.1,1.6-3.7,1.6c-0.8,0-1.6-0.1-2.4-0.2v-2.9
	c0.8,0.1,1.4,0.2,1.6,0.2c0.7,0,1.3-0.2,1.6-0.6c0.3-0.3,0.5-0.8,0.8-1.6L319.1,505.3z M329.6,500.3h3.4c0.2,1.8,1.3,2.7,3.5,2.7
	c2.4,0,3.5-0.7,3.4-2c0-1-0.9-1.6-2.7-2.1c-2.9-0.7-4.5-1.1-4.8-1.3c-1.7-0.8-2.6-2-2.6-3.8c0-1.5,0.7-2.7,2.2-3.5
	c1.2-0.6,2.6-1,4.3-1c1.7,0,3.2,0.4,4.3,1.1c1.3,0.8,2,2.1,2.2,3.7h-3.6c-0.3-1.4-1.3-2.1-3.2-2.1c-1.9,0-2.8,0.5-2.8,1.6
	c0,0.7,0.5,1.3,1.6,1.6c0.2,0.1,1.3,0.4,3.4,0.8c1.6,0.4,2.7,0.8,3.5,1.3c1,0.8,1.6,1.8,1.6,3.2c0,1.7-0.8,3-2.2,3.9
	c-1.3,0.8-2.8,1.1-4.7,1.1c-2,0-3.7-0.4-4.9-1.3C330.3,503.5,329.6,502.1,329.6,500.3z M360.1,498.5h-11.4c0,1.3,0.3,2.4,1,3.2
	c0.7,0.9,1.8,1.4,3.2,1.4c1.9,0,3.2-0.9,3.8-2.6h3.2c-0.4,1.7-1.2,3-2.5,3.9c-1.3,0.9-2.8,1.4-4.5,1.4c-2.4,0-4.2-0.8-5.6-2.2
	s-2-3.5-2-5.9c0-2.3,0.7-4.2,2-5.8c1.4-1.6,3.2-2.4,5.5-2.4c2.2,0,4,0.8,5.4,2.4c1.3,1.5,2,3.3,2,5.5
	C360.1,497.7,360.1,498.1,360.1,498.5z M348.7,496.2h8c-0.1-1.1-0.5-2.1-1.2-2.9c-0.7-0.8-1.6-1.2-2.7-1.2c-1.2,0-2.1,0.4-2.9,1.2
	C349.1,494,348.7,495,348.7,496.2z M383.1,497.6c0-1.5-0.4-2.8-1.1-3.8c-0.8-1.1-1.9-1.7-3.2-1.7c-1.4,0-2.5,0.5-3.2,1.5
	c-0.7,1-1.1,2.3-1.1,4c0,1.6,0.4,2.9,1.2,3.9s1.8,1.5,3.2,1.5c1.4,0,2.6-0.6,3.3-1.7C382.7,500.4,383.1,499.1,383.1,497.6z
	 M371.1,511.1v-21.2h3.2v2.1h0.1c0.9-1.7,2.5-2.5,4.8-2.5c2.3,0,4.2,0.8,5.5,2.4c1.2,1.5,1.8,3.4,1.8,5.8c0,2.3-0.5,4.1-1.6,5.6
	c-1.2,1.7-2.9,2.5-5.1,2.5c-2.4,0-4.2-0.8-5.2-2.4h-0.1v7.7H371.1z M389.4,505.3v-15.5h3.2v3h0.1c0.2-0.9,0.8-1.6,1.6-2.3
	c0.9-0.7,1.9-1.1,2.9-1.1c0.3,0,0.7,0,1.3,0.1v3.3c-0.8-0.1-1.3-0.1-1.5-0.1c-1.2,0-2.2,0.5-3,1.4c-0.8,1-1.2,2.3-1.2,3.9v7.4H389.4
	z M414,498.5h-11.4c0,1.3,0.3,2.4,1,3.2c0.7,0.9,1.8,1.4,3.1,1.4c1.9,0,3.2-0.9,3.8-2.6h3.2c-0.4,1.7-1.2,3-2.5,3.9
	c-1.3,0.9-2.8,1.4-4.5,1.4c-2.4,0-4.2-0.8-5.6-2.2s-2-3.5-2-5.9c0-2.3,0.7-4.2,2-5.8c1.4-1.6,3.2-2.4,5.5-2.4c2.2,0,4,0.8,5.4,2.4
	c1.3,1.5,2,3.3,2,5.5C414,497.7,414,498.1,414,498.5z M402.6,496.2h8c-0.1-1.1-0.4-2.1-1.2-2.9c-0.7-0.8-1.6-1.2-2.7-1.2
	c-1.2,0-2.1,0.4-2.9,1.2C403,494,402.6,495,402.6,496.2z M404.2,487.7l2.7-4.3h4l-4.3,4.3H404.2z M430.5,495h-3.4
	c-0.3-1.9-1.5-2.9-3.5-2.9c-1.1,0-2.1,0.4-2.8,1.1c-1,1-1.5,2.5-1.5,4.6c0,1.5,0.3,2.7,0.9,3.6c0.7,1.1,1.8,1.7,3.2,1.7
	c1,0,1.8-0.3,2.5-0.9c0.7-0.6,1.1-1.5,1.2-2.6h3.4c-0.7,4.2-3,6.2-7.1,6.2c-2.4,0-4.2-0.8-5.6-2.3c-1.3-1.4-1.9-3.3-1.9-5.7
	c0-2.5,0.6-4.4,1.9-5.9c1.4-1.6,3.3-2.4,5.7-2.4c1.9,0,3.5,0.5,4.7,1.4C429.6,491.8,430.3,493.2,430.5,495z M433.3,505.3v-15.5h3.4
	v15.5H433.3z M433.3,487.1v-3.2h3.4v3.2H433.3z M439.7,500.3h3.4c0.2,1.8,1.3,2.7,3.5,2.7c2.4,0,3.5-0.7,3.4-2c0-1-0.9-1.6-2.7-2.1
	c-2.9-0.7-4.5-1.1-4.8-1.3c-1.7-0.8-2.6-2-2.6-3.8c0-1.5,0.7-2.7,2.2-3.5c1.2-0.6,2.6-1,4.3-1c1.7,0,3.2,0.4,4.3,1.1
	c1.3,0.8,2,2.1,2.2,3.7h-3.6c-0.3-1.4-1.3-2.1-3.1-2.1c-1.9,0-2.8,0.5-2.8,1.6c0,0.7,0.5,1.3,1.6,1.6c0.2,0.1,1.3,0.4,3.4,0.8
	c1.6,0.4,2.7,0.8,3.5,1.3c1,0.8,1.6,1.8,1.6,3.2c0,1.7-0.8,3-2.2,3.9c-1.3,0.8-2.8,1.1-4.7,1.1c-2,0-3.7-0.4-4.9-1.3
	C440.3,503.5,439.7,502.1,439.7,500.3z M470.1,498.5h-11.4c0,1.3,0.3,2.4,1,3.2c0.7,0.9,1.8,1.4,3.2,1.4c1.9,0,3.2-0.9,3.8-2.6h3.2
	c-0.4,1.7-1.2,3-2.5,3.9c-1.3,0.9-2.8,1.4-4.5,1.4c-2.4,0-4.2-0.8-5.6-2.2s-2-3.5-2-5.9c0-2.3,0.7-4.2,2-5.8
	c1.4-1.6,3.2-2.4,5.5-2.4c2.2,0,4,0.8,5.4,2.4c1.3,1.5,2,3.3,2,5.5C470.2,497.7,470.2,498.1,470.1,498.5z M458.7,496.2h8
	c-0.1-1.1-0.5-2.1-1.2-2.9c-0.7-0.8-1.6-1.2-2.7-1.2c-1.2,0-2.1,0.4-2.9,1.2C459.2,494,458.8,495,458.7,496.2z M483.7,497.7
	c0,1.5,0.3,2.7,1,3.7c0.8,1.1,1.9,1.6,3.3,1.6c1.4,0,2.5-0.6,3.3-1.7c0.7-1,1-2.2,1-3.8c0-1.7-0.4-3-1.2-4c-0.8-1-1.8-1.5-3.1-1.5
	c-1.5,0-2.6,0.6-3.4,1.8C484.1,494.9,483.7,496.2,483.7,497.7z M495.7,483.9v21.4h-3.2v-2.1h-0.1c-0.9,1.7-2.5,2.5-4.8,2.5
	c-2.4,0-4.2-0.8-5.5-2.4c-1.2-1.5-1.8-3.4-1.8-5.9c0-2.6,0.7-4.7,2.1-6.2c1.2-1.3,2.8-1.9,4.6-1.9c2.4,0,4.2,0.8,5.2,2.4h0.1v-7.9
	H495.7z M513.5,498.5h-11.4c0,1.3,0.3,2.4,1,3.2c0.7,0.9,1.8,1.4,3.1,1.4c1.9,0,3.2-0.9,3.8-2.6h3.2c-0.4,1.7-1.2,3-2.5,3.9
	c-1.3,0.9-2.8,1.4-4.5,1.4c-2.4,0-4.2-0.8-5.6-2.2s-2-3.5-2-5.9c0-2.3,0.7-4.2,2-5.8c1.4-1.6,3.2-2.4,5.5-2.4c2.2,0,4,0.8,5.4,2.4
	c1.3,1.5,2,3.3,2,5.5C513.5,497.7,513.5,498.1,513.5,498.5z M502.1,496.2h8c-0.1-1.1-0.4-2.1-1.2-2.9c-0.7-0.8-1.6-1.2-2.7-1.2
	c-1.2,0-2.1,0.4-2.9,1.2C502.5,494,502.1,495,502.1,496.2z M528.5,505.3l-5.6-15.5h3.7l3.9,11.9h0.1l3.8-11.9h3.5l-5.5,15.5H528.5z
	 M547.1,503c1.4,0,2.6-0.6,3.4-1.7c0.7-1,1-2.2,1-3.8c0-1.5-0.3-2.7-1-3.7c-0.8-1.2-1.9-1.7-3.4-1.7c-1.4,0-2.6,0.6-3.4,1.7
	c-0.7,1-1,2.2-1,3.7c0,1.5,0.3,2.8,1,3.8C544.5,502.5,545.7,503,547.1,503z M547.1,505.7c-2.4,0-4.4-0.8-5.8-2.3
	c-1.4-1.5-2-3.4-2-5.9c0-2.4,0.7-4.4,2.1-5.9c1.4-1.5,3.3-2.3,5.8-2.3c2.4,0,4.4,0.8,5.8,2.3c1.4,1.5,2,3.4,2,5.9
	c0,2.4-0.7,4.4-2,5.9C551.5,505,549.5,505.7,547.1,505.7z M556.9,500.3h3.4c0.2,1.8,1.3,2.7,3.5,2.7c2.4,0,3.5-0.7,3.5-2
	c0-1-0.9-1.6-2.7-2.1c-2.9-0.7-4.5-1.1-4.8-1.3c-1.7-0.8-2.6-2-2.6-3.8c0-1.5,0.7-2.7,2.2-3.5c1.2-0.6,2.6-1,4.3-1
	c1.7,0,3.2,0.4,4.3,1.1c1.3,0.8,2,2.1,2.2,3.7h-3.6c-0.3-1.4-1.3-2.1-3.2-2.1c-1.9,0-2.8,0.5-2.8,1.6c0,0.7,0.5,1.3,1.6,1.6
	c0.2,0.1,1.3,0.4,3.5,0.8c1.6,0.4,2.7,0.8,3.5,1.3c1,0.8,1.6,1.8,1.6,3.2c0,1.7-0.8,3-2.2,3.9c-1.3,0.8-2.8,1.1-4.7,1.1
	c-2,0-3.7-0.4-4.9-1.3C557.6,503.5,556.9,502.1,556.9,500.3z M301.1,532.6c0-1.5-0.4-2.8-1.1-3.8c-0.8-1.1-1.9-1.7-3.2-1.7
	c-1.4,0-2.5,0.5-3.2,1.5c-0.7,1-1.1,2.3-1.1,4c0,1.6,0.4,2.9,1.2,3.9c0.8,1,1.8,1.5,3.2,1.5c1.4,0,2.6-0.6,3.3-1.7
	C300.8,535.4,301.1,534.1,301.1,532.6z M289.1,540.3v-21.4h3.4v7.9h0.1c0.5-0.7,1.1-1.3,2-1.8c0.9-0.4,1.7-0.7,2.6-0.7
	c2.3,0,4.2,0.8,5.5,2.4c1.2,1.5,1.8,3.4,1.8,5.8c0,2.3-0.5,4.1-1.6,5.6c-1.2,1.7-2.9,2.5-5.1,2.5c-2.7,0-4.5-0.9-5.4-2.5h-0.1v2.1
	H289.1z M321.5,533.5h-11.4c0,1.3,0.3,2.4,1,3.2c0.7,0.9,1.8,1.4,3.1,1.4c1.9,0,3.2-0.9,3.8-2.6h3.2c-0.4,1.7-1.2,3-2.5,3.9
	c-1.3,0.9-2.8,1.4-4.5,1.4c-2.4,0-4.2-0.8-5.6-2.2s-2-3.5-2-5.9c0-2.3,0.7-4.2,2-5.8c1.4-1.6,3.2-2.4,5.5-2.4c2.2,0,4,0.8,5.4,2.4
	c1.3,1.5,2,3.3,2,5.5C321.5,532.7,321.5,533.1,321.5,533.5z M310.1,531.2h8c-0.1-1.1-0.4-2.1-1.2-2.9c-0.7-0.8-1.6-1.2-2.7-1.2
	c-1.2,0-2.1,0.4-2.9,1.2C310.5,529,310.1,530,310.1,531.2z M323.2,535.3h3.4c0.2,1.8,1.3,2.7,3.5,2.7c2.4,0,3.5-0.7,3.4-2
	c0-1-0.9-1.7-2.7-2.1c-2.9-0.7-4.5-1.1-4.8-1.3c-1.7-0.8-2.6-2-2.6-3.8c0-1.5,0.7-2.7,2.2-3.5c1.2-0.6,2.6-1,4.3-1
	c1.7,0,3.2,0.4,4.3,1.1c1.3,0.8,2,2.1,2.2,3.7h-3.6c-0.3-1.4-1.3-2.1-3.2-2.1c-1.9,0-2.8,0.5-2.8,1.6c0,0.7,0.5,1.3,1.6,1.6
	c0.2,0.1,1.4,0.4,3.4,0.8c1.6,0.4,2.7,0.8,3.5,1.3c1,0.8,1.6,1.8,1.6,3.2c0,1.7-0.8,3-2.2,3.9c-1.3,0.8-2.8,1.1-4.7,1.1
	c-2,0-3.7-0.4-4.9-1.3C323.9,538.5,323.2,537.1,323.2,535.3z M346.7,538c1.4,0,2.6-0.6,3.4-1.7c0.7-1,1-2.2,1-3.8
	c0-1.5-0.4-2.7-1-3.7c-0.8-1.2-1.9-1.7-3.4-1.7s-2.6,0.6-3.4,1.7c-0.7,1-1.1,2.2-1.1,3.7c0,1.5,0.4,2.8,1.1,3.8
	C344.2,537.5,345.3,538,346.7,538z M346.7,540.7c-2.4,0-4.4-0.8-5.8-2.3c-1.4-1.5-2-3.4-2-5.9c0-2.4,0.7-4.4,2.1-5.9
	c1.4-1.5,3.3-2.3,5.8-2.3s4.4,0.8,5.8,2.3c1.4,1.5,2,3.4,2,5.9c0,2.4-0.7,4.4-2,5.9C351.1,540,349.2,540.7,346.7,540.7z
	 M357.5,540.3v-15.5h3.4v15.5H357.5z M357.5,522.1v-3.2h3.4v3.2H357.5z M364.6,540.3v-15.5h3.2v2.3l0.1,0.1c1.1-1.8,2.7-2.8,4.8-2.8
	c1.7,0,3.1,0.5,4,1.4c1,0.9,1.5,2.2,1.5,3.9v10.7h-3.4v-9.8c0-2.3-1-3.5-3-3.5c-1.1,0-2,0.4-2.7,1.2c-0.7,0.8-1,1.8-1,2.9v9.2H364.6
	z M381,535.3h3.4c0.2,1.8,1.3,2.7,3.5,2.7c2.4,0,3.5-0.7,3.4-2c0-1-0.9-1.7-2.7-2.1c-2.9-0.7-4.5-1.1-4.8-1.3
	c-1.7-0.8-2.6-2-2.6-3.8c0-1.5,0.7-2.7,2.2-3.5c1.2-0.6,2.6-1,4.3-1c1.7,0,3.2,0.4,4.3,1.1c1.3,0.8,2,2.1,2.2,3.7h-3.6
	c-0.3-1.4-1.3-2.1-3.1-2.1c-1.9,0-2.8,0.5-2.8,1.6c0,0.7,0.5,1.3,1.6,1.6c0.2,0.1,1.3,0.4,3.4,0.8c1.6,0.4,2.7,0.8,3.5,1.3
	c1,0.8,1.6,1.8,1.6,3.2c0,1.7-0.8,3-2.2,3.9c-1.3,0.8-2.8,1.1-4.7,1.1c-2,0-3.7-0.4-4.9-1.3C381.7,538.5,381,537.1,381,535.3z
	 M419.8,533.5h-11.4c0,1.3,0.3,2.4,1,3.2c0.7,0.9,1.8,1.4,3.1,1.4c1.9,0,3.2-0.9,3.8-2.6h3.2c-0.4,1.7-1.2,3-2.5,3.9
	c-1.3,0.9-2.8,1.4-4.5,1.4c-2.4,0-4.2-0.8-5.6-2.2s-2-3.5-2-5.9c0-2.3,0.7-4.2,2-5.8c1.4-1.6,3.2-2.4,5.5-2.4c2.2,0,4,0.8,5.4,2.4
	c1.3,1.5,2,3.3,2,5.5C419.9,532.7,419.9,533.1,419.8,533.5z M408.4,531.2h8c-0.1-1.1-0.4-2.1-1.2-2.9c-0.7-0.8-1.6-1.2-2.7-1.2
	c-1.2,0-2.1,0.4-2.9,1.2C408.9,529,408.5,530,408.4,531.2z M420.9,527.4v-2.5h2.6v-4.7h3.4v4.7h3.1v2.5h-3.1v8.3
	c0,0.8,0.1,1.3,0.2,1.6c0.2,0.4,0.7,0.5,1.4,0.5c0.6,0,1.1,0,1.4-0.1v2.6c-1.5,0.1-2.2,0.2-2.2,0.2c-1.7,0-2.8-0.3-3.5-1
	c-0.5-0.6-0.8-1.5-0.8-2.9v-9.2H420.9z M454.8,533.5h-11.4c0,1.3,0.3,2.4,1,3.2c0.7,0.9,1.8,1.4,3.1,1.4c1.9,0,3.2-0.9,3.8-2.6h3.2
	c-0.4,1.7-1.2,3-2.5,3.9c-1.3,0.9-2.8,1.4-4.5,1.4c-2.4,0-4.2-0.8-5.6-2.2s-2-3.5-2-5.9c0-2.3,0.7-4.2,2-5.8
	c1.4-1.6,3.2-2.4,5.5-2.4c2.2,0,4,0.8,5.4,2.4c1.3,1.5,2,3.3,2,5.5C454.9,532.7,454.9,533.1,454.8,533.5z M443.4,531.2h8
	c-0.1-1.1-0.4-2.1-1.2-2.9c-0.7-0.8-1.6-1.2-2.7-1.2c-1.2,0-2.1,0.4-2.9,1.2C443.9,529,443.5,530,443.4,531.2z M457.4,540.3v-15.5
	h3.2v2.3l0.1,0.1c1.1-1.8,2.7-2.8,4.8-2.8c1.7,0,3.1,0.5,4,1.4c1,0.9,1.5,2.2,1.5,3.9v10.7h-3.4v-9.8c0-2.3-1-3.5-3-3.5
	c-1.1,0-2,0.4-2.7,1.2c-0.7,0.8-1,1.8-1,2.9v9.2H457.4z M478.8,540.3l-5.6-15.5h3.7l3.9,11.9h0.1l3.8-11.9h3.5l-5.5,15.5H478.8z
	 M490.3,540.3v-15.5h3.4v15.5H490.3z M490.3,522.1v-3.2h3.4v3.2H490.3z M511.5,533.5h-11.4c0,1.3,0.3,2.4,1,3.2
	c0.7,0.9,1.8,1.4,3.1,1.4c1.9,0,3.2-0.9,3.8-2.6h3.2c-0.4,1.7-1.2,3-2.5,3.9c-1.3,0.9-2.8,1.4-4.5,1.4c-2.4,0-4.2-0.8-5.6-2.2
	s-2-3.5-2-5.9c0-2.3,0.7-4.2,2-5.8c1.4-1.6,3.2-2.4,5.5-2.4c2.2,0,4,0.8,5.4,2.4c1.3,1.5,2,3.3,2,5.5
	C511.6,532.7,511.6,533.1,511.5,533.5z M500.1,531.2h8c-0.1-1.1-0.4-2.1-1.2-2.9c-0.7-0.8-1.6-1.2-2.7-1.2c-1.2,0-2.1,0.4-2.9,1.2
	C500.6,529,500.2,530,500.1,531.2z M513.3,535.3h3.4c0.2,1.8,1.3,2.7,3.5,2.7c2.4,0,3.5-0.7,3.5-2c0-1-0.9-1.7-2.7-2.1
	c-2.9-0.7-4.5-1.1-4.8-1.3c-1.7-0.8-2.6-2-2.6-3.8c0-1.5,0.7-2.7,2.2-3.5c1.2-0.6,2.6-1,4.3-1c1.7,0,3.2,0.4,4.3,1.1
	c1.3,0.8,2,2.1,2.2,3.7H523c-0.3-1.4-1.3-2.1-3.1-2.1c-1.9,0-2.8,0.5-2.8,1.6c0,0.7,0.5,1.3,1.6,1.6c0.2,0.1,1.4,0.4,3.5,0.8
	c1.6,0.4,2.7,0.8,3.5,1.3c1,0.8,1.6,1.8,1.6,3.2c0,1.7-0.8,3-2.2,3.9c-1.3,0.8-2.8,1.1-4.7,1.1c-2,0-3.7-0.4-4.9-1.3
	C514,538.5,513.3,537.1,513.3,535.3z M530,540.3v-4.1h4.2v4.1H530z"/>
<path class="st0" d="M363,804.3h405v0c39.9-0.2,72.2-32.7,72.2-72.6c0-40-32.3-72.4-72.2-72.6v0h-0.3h-0.2h-0.2H364.1
	c20.9,17.1,34.2,43.1,34.2,72.2C398.3,760.8,384.5,787.2,363,804.3z"/>
<path class="st1" d="M507.5,725v-21.4H523v3.2h-11.7v5.6h10.8v3.1h-10.8v6.3h11.9v3.2H507.5z M526.1,725v-21.4h3.4V725H526.1z
	 M542.8,719.8v-2.6c-0.4,0.3-1.1,0.5-1.9,0.6c-0.8,0.1-1.5,0.2-2.3,0.3c-1.9,0.3-2.8,1.2-2.8,2.6c0,0.7,0.4,1.2,1.1,1.6
	c0.6,0.3,1.2,0.4,2,0.4c0.9,0,1.8-0.2,2.5-0.7C542.3,721.5,542.8,720.8,542.8,719.8z M546.2,713.6v8c0,0.8,0.3,1.2,0.8,1.2
	c0.3,0,0.6,0,0.8-0.1v2.4c-0.7,0.3-1.5,0.4-2.2,0.4c-1.5,0-2.4-0.6-2.6-1.9c-1.3,1.3-3.1,1.9-5.4,1.9c-1.5,0-2.7-0.4-3.7-1.1
	c-1.1-0.8-1.6-2-1.6-3.4c0-1.7,0.6-3,1.9-3.7c0.8-0.5,2.1-0.8,4-1.1c2.2-0.3,3.2-0.5,3.2-0.5c0.9-0.3,1.4-0.9,1.4-1.7
	c0-1.4-1.1-2.1-3.2-2.1s-3.3,0.8-3.4,2.5h-3.4c0.2-3.4,2.5-5.2,7-5.2c1.7,0,3.1,0.3,4.2,1C545.5,710.9,546.2,712,546.2,713.6z
	 M561.9,717.2c0-1.5-0.4-2.8-1.1-3.8c-0.8-1.1-1.9-1.7-3.2-1.7c-1.4,0-2.5,0.5-3.2,1.5c-0.7,1-1.1,2.3-1.1,4c0,1.6,0.4,2.9,1.2,3.9
	c0.8,1,1.8,1.5,3.2,1.5c1.4,0,2.6-0.6,3.3-1.7C561.6,720,561.9,718.8,561.9,717.2z M550,725v-21.4h3.4v7.9h0.1
	c0.5-0.7,1.1-1.3,2-1.8c0.9-0.4,1.7-0.7,2.6-0.7c2.3,0,4.2,0.8,5.5,2.4c1.2,1.5,1.8,3.4,1.8,5.8c0,2.3-0.5,4.1-1.6,5.6
	c-1.2,1.7-2.9,2.5-5.1,2.5c-2.7,0-4.5-0.8-5.4-2.5h-0.1v2.1H550z M575.3,722.7c1.4,0,2.6-0.6,3.4-1.7c0.7-1,1-2.2,1-3.8
	c0-1.5-0.3-2.7-1-3.7c-0.8-1.2-1.9-1.7-3.4-1.7s-2.6,0.6-3.4,1.7c-0.7,1-1,2.2-1,3.7c0,1.5,0.4,2.8,1,3.8
	C572.8,722.1,573.9,722.7,575.3,722.7z M575.3,725.4c-2.4,0-4.4-0.8-5.8-2.3c-1.4-1.5-2-3.4-2-5.9c0-2.4,0.7-4.4,2.1-5.9
	c1.4-1.5,3.3-2.3,5.8-2.3s4.4,0.8,5.8,2.3c1.4,1.5,2,3.4,2,5.8c0,2.4-0.7,4.4-2,5.9C579.7,724.6,577.8,725.4,575.3,725.4z M586,725
	v-15.5h3.2v3h0.1c0.2-0.9,0.8-1.6,1.7-2.3c0.9-0.7,1.9-1.1,2.9-1.1c0.3,0,0.7,0,1.3,0.1v3.3c-0.8-0.1-1.3-0.2-1.5-0.2
	c-1.2,0-2.2,0.5-3,1.4c-0.8,1-1.2,2.3-1.2,3.9v7.4H586z M606.1,719.8v-2.6c-0.4,0.3-1.1,0.5-1.9,0.6c-0.8,0.1-1.5,0.2-2.3,0.3
	c-1.9,0.3-2.8,1.2-2.8,2.6c0,0.7,0.4,1.2,1.1,1.6c0.6,0.3,1.2,0.4,2,0.4c0.9,0,1.8-0.2,2.5-0.7C605.7,721.5,606.1,720.8,606.1,719.8
	z M609.5,713.6v8c0,0.8,0.3,1.2,0.8,1.2c0.3,0,0.6,0,0.8-0.1v2.4c-0.7,0.3-1.5,0.4-2.2,0.4c-1.5,0-2.4-0.6-2.6-1.9
	c-1.3,1.3-3.1,1.9-5.4,1.9c-1.5,0-2.7-0.4-3.7-1.1c-1.1-0.8-1.6-2-1.6-3.4c0-1.7,0.6-3,1.9-3.7c0.8-0.5,2.1-0.8,4-1.1
	c2.2-0.3,3.2-0.5,3.2-0.5c0.9-0.3,1.4-0.9,1.4-1.7c0-1.4-1.1-2.1-3.2-2.1s-3.3,0.8-3.4,2.5h-3.4c0.2-3.4,2.6-5.2,7.1-5.2
	c1.7,0,3.1,0.3,4.2,1C608.9,710.9,609.5,712,609.5,713.6z M611.7,712v-2.6h2.6v-4.6h3.4v4.6h3.1v2.6h-3.1v8.3c0,0.8,0.1,1.3,0.2,1.6
	c0.2,0.4,0.7,0.5,1.4,0.5c0.6,0,1.1,0,1.4-0.1v2.6c-1.5,0.1-2.2,0.2-2.2,0.2c-1.7,0-2.8-0.3-3.5-1c-0.5-0.6-0.8-1.5-0.8-2.9V712
	H611.7z M623.3,725v-15.5h3.4V725H623.3z M623.3,706.8v-3.2h3.4v3.2H623.3z M637.5,722.7c1.4,0,2.6-0.6,3.4-1.7c0.7-1,1-2.2,1-3.8
	c0-1.5-0.3-2.7-1-3.7c-0.8-1.2-1.9-1.7-3.4-1.7s-2.6,0.6-3.4,1.7c-0.7,1-1.1,2.2-1.1,3.7c0,1.5,0.4,2.8,1.1,3.8
	C635,722.1,636.1,722.7,637.5,722.7z M637.5,725.4c-2.4,0-4.4-0.8-5.8-2.3c-1.4-1.5-2-3.4-2-5.9c0-2.4,0.7-4.4,2.1-5.9
	c1.4-1.5,3.3-2.3,5.8-2.3s4.4,0.8,5.8,2.3c1.4,1.5,2,3.4,2,5.8c0,2.4-0.7,4.4-2,5.9C641.9,724.6,640,725.4,637.5,725.4z M648.2,725
	v-15.5h3.2v2.3l0.1,0.1c1.1-1.8,2.7-2.8,4.8-2.8c1.7,0,3.1,0.5,4,1.3c1,0.9,1.5,2.2,1.5,3.9V725h-3.4v-9.8c0-2.3-1-3.5-3-3.5
	c-1.1,0-2,0.4-2.7,1.2c-0.7,0.8-1,1.8-1,2.9v9.1H648.2z M687.9,718.1h-11.4c0,1.3,0.3,2.4,1,3.2c0.7,0.9,1.8,1.4,3.2,1.4
	c1.9,0,3.2-0.9,3.8-2.6h3.2c-0.4,1.7-1.2,3-2.5,3.9c-1.3,0.9-2.8,1.4-4.5,1.4c-2.4,0-4.2-0.8-5.6-2.2c-1.3-1.5-2-3.5-2-5.9
	c0-2.3,0.7-4.2,2-5.8c1.4-1.6,3.2-2.4,5.5-2.4c2.2,0,4,0.8,5.4,2.4c1.3,1.5,2,3.3,2,5.5C687.9,717.4,687.9,717.7,687.9,718.1z
	 M676.5,715.9h8c-0.1-1.1-0.5-2.1-1.2-2.9c-0.7-0.8-1.6-1.2-2.7-1.2c-1.2,0-2.1,0.4-2.9,1.2C676.9,713.7,676.5,714.7,676.5,715.9z
	 M688.9,712v-2.6h2.6v-4.6h3.4v4.6h3.1v2.6h-3.1v8.3c0,0.8,0.1,1.3,0.2,1.6c0.2,0.4,0.7,0.5,1.4,0.5c0.6,0,1.1,0,1.4-0.1v2.6
	c-1.5,0.1-2.2,0.2-2.2,0.2c-1.7,0-2.8-0.3-3.5-1c-0.5-0.6-0.8-1.5-0.8-2.9V712H688.9z M461.8,760v-15.5h3.2v3h0.1
	c0.2-0.9,0.8-1.6,1.6-2.3c0.9-0.7,1.9-1.1,2.9-1.1c0.3,0,0.7,0,1.3,0.1v3.3c-0.8-0.1-1.3-0.2-1.5-0.2c-1.2,0-2.2,0.5-3,1.4
	c-0.8,1-1.2,2.3-1.2,3.9v7.4H461.8z M486.4,753.1H475c0,1.3,0.3,2.4,1,3.2c0.7,0.9,1.8,1.4,3.1,1.4c1.9,0,3.2-0.9,3.8-2.6h3.2
	c-0.4,1.7-1.2,3-2.5,3.9c-1.3,0.9-2.8,1.4-4.5,1.4c-2.4,0-4.2-0.8-5.6-2.2s-2-3.5-2-5.9c0-2.3,0.7-4.2,2-5.8
	c1.4-1.6,3.2-2.4,5.5-2.4c2.2,0,4,0.8,5.4,2.4c1.3,1.5,2,3.3,2,5.5C486.4,752.4,486.4,752.7,486.4,753.1z M475,750.9h8
	c-0.1-1.1-0.5-2.1-1.2-2.9c-0.7-0.8-1.6-1.2-2.7-1.2c-1.2,0-2.1,0.4-2.9,1.2C475.4,748.7,475,749.7,475,750.9z M476.6,742.3l2.7-4.3
	h4l-4.3,4.3H476.6z M498.5,754.8v-2.6c-0.4,0.3-1.1,0.5-1.9,0.6c-0.8,0.1-1.5,0.2-2.3,0.3c-1.9,0.3-2.8,1.2-2.8,2.6
	c0,0.7,0.4,1.2,1.1,1.6c0.6,0.3,1.2,0.4,2,0.4c0.9,0,1.8-0.2,2.5-0.7C498.1,756.5,498.5,755.8,498.5,754.8z M502,748.6v8
	c0,0.8,0.3,1.2,0.8,1.2c0.3,0,0.6,0,0.8-0.1v2.4c-0.7,0.3-1.5,0.4-2.2,0.4c-1.5,0-2.4-0.6-2.6-1.9c-1.3,1.3-3.1,1.9-5.4,1.9
	c-1.5,0-2.7-0.4-3.7-1.1c-1.1-0.8-1.6-2-1.6-3.4c0-1.7,0.6-3,1.9-3.7c0.8-0.5,2.1-0.8,4.1-1.1c2.2-0.3,3.2-0.5,3.2-0.5
	c0.9-0.3,1.4-0.9,1.4-1.7c0-1.4-1.1-2.1-3.2-2.1c-2.1,0-3.3,0.8-3.4,2.5h-3.4c0.2-3.4,2.5-5.2,7-5.2c1.7,0,3.1,0.3,4.2,1
	C501.3,745.9,502,747,502,748.6z M505.7,760v-21.4h3.4V760H505.7z M513,760v-15.5h3.4V760H513z M513,741.8v-3.2h3.4v3.2H513z
	 M519.3,755h3.4c0.2,1.8,1.3,2.7,3.5,2.7c2.4,0,3.5-0.7,3.5-2c0-1-0.9-1.6-2.7-2.1c-2.9-0.7-4.5-1.1-4.8-1.3c-1.7-0.8-2.6-2-2.6-3.8
	c0-1.5,0.7-2.7,2.2-3.5c1.2-0.6,2.6-1,4.3-1c1.7,0,3.2,0.4,4.3,1.1c1.3,0.8,2,2.1,2.2,3.7H529c-0.3-1.4-1.3-2.1-3.2-2.1
	c-1.9,0-2.8,0.5-2.8,1.6c0,0.7,0.5,1.3,1.6,1.7c0.2,0.1,1.3,0.4,3.5,0.8c1.6,0.4,2.7,0.8,3.4,1.3c1,0.8,1.6,1.8,1.6,3.2
	c0,1.7-0.8,3-2.2,3.9c-1.3,0.8-2.8,1.1-4.7,1.1c-2,0-3.7-0.4-4.9-1.3C520,758.1,519.3,756.8,519.3,755z M545.2,754.8v-2.6
	c-0.4,0.3-1.1,0.5-1.9,0.6c-0.8,0.1-1.5,0.2-2.3,0.3c-1.9,0.3-2.8,1.2-2.8,2.6c0,0.7,0.4,1.2,1.1,1.6c0.6,0.3,1.2,0.4,2,0.4
	c0.9,0,1.8-0.2,2.5-0.7C544.8,756.5,545.2,755.8,545.2,754.8z M548.7,748.6v8c0,0.8,0.3,1.2,0.8,1.2c0.3,0,0.6,0,0.8-0.1v2.4
	c-0.7,0.3-1.5,0.4-2.2,0.4c-1.5,0-2.4-0.6-2.6-1.9c-1.3,1.3-3.1,1.9-5.4,1.9c-1.5,0-2.7-0.4-3.7-1.1c-1.1-0.8-1.6-2-1.6-3.4
	c0-1.7,0.6-3,1.9-3.7c0.8-0.5,2.1-0.8,4-1.1c2.2-0.3,3.2-0.5,3.2-0.5c0.9-0.3,1.4-0.9,1.4-1.7c0-1.4-1.1-2.1-3.2-2.1
	s-3.3,0.8-3.4,2.5h-3.4c0.2-3.4,2.5-5.2,7-5.2c1.7,0,3.1,0.3,4.2,1C548,745.9,548.7,747,548.7,748.6z M550.8,747v-2.6h2.6v-4.6h3.4
	v4.6h3.1v2.6h-3.1v8.3c0,0.8,0.1,1.3,0.2,1.6c0.2,0.4,0.7,0.5,1.4,0.5c0.6,0,1.1,0,1.4-0.1v2.6c-1.5,0.1-2.2,0.2-2.2,0.2
	c-1.7,0-2.8-0.3-3.5-1c-0.5-0.6-0.8-1.5-0.8-2.9V747H550.8z M562.4,760v-15.5h3.4V760H562.4z M562.4,741.8v-3.2h3.4v3.2H562.4z
	 M576.7,757.7c1.4,0,2.6-0.6,3.4-1.7c0.7-1,1-2.2,1-3.8c0-1.5-0.3-2.7-1-3.7c-0.8-1.2-1.9-1.7-3.4-1.7s-2.6,0.6-3.4,1.7
	c-0.7,1-1,2.2-1,3.7c0,1.5,0.3,2.8,1,3.8C574.1,757.1,575.2,757.7,576.7,757.7z M576.7,760.4c-2.4,0-4.4-0.8-5.8-2.3
	c-1.4-1.5-2-3.4-2-5.9c0-2.4,0.7-4.4,2.1-5.9c1.4-1.5,3.3-2.3,5.8-2.3s4.4,0.8,5.8,2.3c1.4,1.5,2,3.4,2,5.8c0,2.4-0.7,4.4-2,5.9
	C581.1,759.6,579.1,760.4,576.7,760.4z M587.4,760v-15.5h3.2v2.3l0.1,0.1c1.1-1.8,2.7-2.8,4.8-2.8c1.7,0,3.1,0.5,4,1.3
	c1,0.9,1.5,2.2,1.5,3.9V760h-3.4v-9.8c0-2.3-1-3.5-3-3.5c-1.1,0-2,0.4-2.7,1.2c-0.7,0.8-1,1.8-1,2.9v9.1H587.4z M615.6,752.4
	c0,1.5,0.3,2.7,1,3.7c0.8,1.1,1.9,1.7,3.3,1.7c1.4,0,2.5-0.6,3.3-1.7c0.7-1,1-2.2,1-3.8c0-1.7-0.4-3-1.2-4c-0.8-1-1.8-1.5-3.1-1.5
	c-1.5,0-2.6,0.6-3.4,1.8C615.9,749.5,615.6,750.8,615.6,752.4z M627.5,738.6V760h-3.2v-2.1h-0.1c-0.9,1.7-2.5,2.5-4.8,2.5
	c-2.4,0-4.2-0.8-5.5-2.4c-1.2-1.5-1.8-3.4-1.8-5.9c0-2.6,0.7-4.7,2.1-6.2c1.2-1.3,2.8-1.9,4.6-1.9c2.4,0,4.2,0.8,5.2,2.4h0.1v-7.9
	H627.5z M644.9,744.5V760h-3.4v-2.2h-0.1c-0.4,0.8-1,1.4-1.9,1.9c-0.8,0.5-1.7,0.7-2.5,0.7c-3.9,0-5.8-2-5.8-6.1v-9.8h3.4v9.5
	c0,2.5,1,3.7,3,3.7c2.5,0,3.8-1.4,3.8-4.2v-9H644.9z M668.9,752.2c0-1.5-0.4-2.8-1.1-3.8c-0.8-1.1-1.9-1.7-3.2-1.7
	c-1.4,0-2.5,0.5-3.2,1.5c-0.7,1-1.1,2.3-1.1,4c0,1.6,0.4,2.9,1.2,3.9c0.8,1,1.8,1.5,3.2,1.5c1.4,0,2.5-0.6,3.3-1.7
	C668.6,755,668.9,753.8,668.9,752.2z M656.9,765.7v-21.2h3.2v2.1h0.1c0.9-1.7,2.5-2.5,4.8-2.5c2.3,0,4.2,0.8,5.5,2.4
	c1.2,1.5,1.8,3.4,1.8,5.8c0,2.3-0.5,4.1-1.6,5.6c-1.2,1.7-2.9,2.5-5.1,2.5c-2.4,0-4.2-0.8-5.2-2.4h-0.1v7.7H656.9z M675.2,760v-15.5
	h3.2v3h0.1c0.2-0.9,0.8-1.6,1.6-2.3c0.9-0.7,1.9-1.1,2.9-1.1c0.3,0,0.7,0,1.3,0.1v3.3c-0.8-0.1-1.3-0.2-1.5-0.2
	c-1.2,0-2.2,0.5-3,1.4c-0.8,1-1.2,2.3-1.2,3.9v7.4H675.2z M692.8,757.7c1.4,0,2.6-0.6,3.4-1.7c0.7-1,1.1-2.2,1.1-3.8
	c0-1.5-0.4-2.7-1.1-3.7c-0.8-1.2-1.9-1.7-3.4-1.7s-2.6,0.6-3.4,1.7c-0.7,1-1,2.2-1,3.7c0,1.5,0.3,2.8,1,3.8
	C690.3,757.1,691.4,757.7,692.8,757.7z M692.8,760.4c-2.4,0-4.4-0.8-5.8-2.3c-1.4-1.5-2-3.4-2-5.9c0-2.4,0.7-4.4,2.1-5.9
	c1.4-1.5,3.3-2.3,5.8-2.3s4.4,0.8,5.8,2.3c1.4,1.5,2,3.4,2,5.8c0,2.4-0.7,4.4-2,5.9C697.2,759.6,695.3,760.4,692.8,760.4z
	 M703.6,761.2v-16.7h3.4v16.8c0,3.2-1.5,4.8-4.4,4.8c-0.4,0-0.9,0-1.5-0.1v-2.7c0.6,0.1,1,0.1,1.2,0.1c0.6,0,1-0.2,1.2-0.6
	C703.5,762.6,703.6,762,703.6,761.2z M703.6,741.8v-3.2h3.4v3.2H703.6z M724.8,753.1h-11.4c0,1.3,0.3,2.4,1,3.2
	c0.7,0.9,1.8,1.4,3.2,1.4c1.9,0,3.2-0.9,3.8-2.6h3.2c-0.4,1.7-1.2,3-2.5,3.9c-1.3,0.9-2.8,1.4-4.5,1.4c-2.4,0-4.2-0.8-5.6-2.2
	c-1.3-1.5-2-3.5-2-5.9c0-2.3,0.7-4.2,2-5.8c1.4-1.6,3.2-2.4,5.5-2.4c2.2,0,4,0.8,5.4,2.4c1.3,1.5,2,3.3,2,5.5
	C724.9,752.4,724.9,752.7,724.8,753.1z M713.4,750.9h8c-0.1-1.1-0.5-2.1-1.2-2.9c-0.7-0.8-1.6-1.2-2.7-1.2c-1.2,0-2.1,0.4-2.9,1.2
	C713.9,748.7,713.5,749.7,713.4,750.9z M725.9,747v-2.6h2.6v-4.6h3.4v4.6h3.1v2.6h-3.1v8.3c0,0.8,0.1,1.3,0.2,1.6
	c0.2,0.4,0.7,0.5,1.4,0.5c0.6,0,1.1,0,1.4-0.1v2.6c-1.5,0.1-2.2,0.2-2.2,0.2c-1.7,0-2.8-0.3-3.5-1c-0.5-0.6-0.8-1.5-0.8-2.9V747
	H725.9z M737.7,760v-4h4.2v4H737.7z"/>
<path class="st0" d="M174.1,878c20.9,17.1,34.2,43.1,34.2,72.2c0,29.6-13.8,56-35.3,73.1h404.4h0.1h0.1h0.3l0,0
	c39.9-0.2,72.2-32.7,72.2-72.6c0-40-32.3-72.4-72.2-72.6v0H174.1z"/>
<path class="st1" d="M256.3,925.3v6.7h6.1c2.4,0,3.7-1.1,3.7-3.4c0-2.2-1.2-3.3-3.7-3.3H256.3z M252.6,943.7v-21.4h10.2
	c2.3,0,4.1,0.5,5.3,1.5c1.2,1,1.8,2.4,1.8,4.3c0,2.8-1.2,4.6-3.5,5.4v0.1c2.1,0.3,3.2,1.8,3.2,4.5c0,2.9,0.4,4.8,1.2,5.6h-4
	c-0.4-0.6-0.6-1.7-0.6-3.1c0-2.1-0.3-3.5-0.8-4.3c-0.6-0.9-1.8-1.4-3.4-1.4h-5.5v8.8H252.6z M287.3,936.8h-11.4c0,1.3,0.3,2.4,1,3.2
	c0.7,0.9,1.8,1.4,3.2,1.4c1.9,0,3.2-0.9,3.8-2.6h3.2c-0.4,1.7-1.2,3-2.5,3.9c-1.3,0.9-2.8,1.4-4.5,1.4c-2.4,0-4.2-0.8-5.6-2.2
	s-2-3.5-2-5.9c0-2.3,0.7-4.2,2-5.8c1.4-1.6,3.2-2.4,5.5-2.4c2.2,0,4,0.8,5.4,2.4c1.3,1.5,2,3.3,2,5.5
	C287.4,936,287.3,936.4,287.3,936.8z M275.9,934.5h8c-0.1-1.1-0.5-2.1-1.2-2.9c-0.7-0.8-1.6-1.2-2.7-1.2c-1.2,0-2.1,0.4-2.9,1.2
	C276.3,932.4,275.9,933.4,275.9,934.5z M289.9,943.7v-15.5h3.2v2.2h0.1c1.1-1.7,2.7-2.6,4.8-2.6c2.2,0,3.7,0.9,4.4,2.6
	c1.2-1.7,2.9-2.6,4.9-2.6c3.5,0,5.2,1.7,5.2,5.2v10.7H309v-9.1c0-1.5-0.1-2.5-0.4-3c-0.4-0.8-1.2-1.2-2.4-1.2
	c-2.2,0-3.3,1.4-3.3,4.1v9.1h-3.4v-10c0-1.1-0.2-1.9-0.6-2.5c-0.4-0.5-1.1-0.8-2.1-0.8c-0.9,0-1.7,0.4-2.4,1.1c-0.7,0.7-1,1.7-1,2.9
	v9.2H289.9z M316.1,943.7v-15.5h3.4v15.5H316.1z M316.1,925.5v-3.2h3.4v3.2H316.1z M322.4,938.7h3.4c0.2,1.8,1.3,2.7,3.5,2.7
	c2.4,0,3.5-0.7,3.5-2c0-1-0.9-1.6-2.7-2.1c-2.9-0.7-4.5-1.1-4.8-1.3c-1.7-0.8-2.6-2-2.6-3.8c0-1.5,0.7-2.7,2.2-3.5
	c1.2-0.6,2.6-1,4.3-1c1.7,0,3.2,0.4,4.3,1.1c1.3,0.8,2,2.1,2.2,3.7h-3.6c-0.3-1.4-1.3-2.1-3.1-2.1c-1.9,0-2.8,0.5-2.8,1.6
	c0,0.7,0.5,1.3,1.6,1.7c0.2,0.1,1.4,0.4,3.5,0.8c1.6,0.4,2.7,0.8,3.4,1.3c1,0.8,1.6,1.8,1.6,3.2c0,1.7-0.8,3-2.2,3.9
	c-1.3,0.8-2.8,1.1-4.7,1.1c-2,0-3.7-0.4-4.9-1.3C323.1,941.8,322.4,940.4,322.4,938.7z M352.9,936.8h-11.4c0,1.3,0.3,2.4,1,3.2
	c0.7,0.9,1.8,1.4,3.1,1.4c1.9,0,3.2-0.9,3.8-2.6h3.2c-0.4,1.7-1.2,3-2.5,3.9c-1.3,0.9-2.8,1.4-4.5,1.4c-2.4,0-4.2-0.8-5.6-2.2
	s-2-3.5-2-5.9c0-2.3,0.7-4.2,2-5.8c1.4-1.6,3.2-2.4,5.5-2.4c2.2,0,4,0.8,5.4,2.4c1.3,1.5,2,3.3,2,5.5
	C352.9,936,352.9,936.4,352.9,936.8z M341.5,934.5h8c-0.1-1.1-0.4-2.1-1.2-2.9c-0.7-0.8-1.6-1.2-2.7-1.2c-1.2,0-2.1,0.4-2.9,1.2
	C341.9,932.4,341.5,933.4,341.5,934.5z M366.5,936.1c0,1.5,0.3,2.7,1,3.7c0.8,1.1,1.9,1.7,3.3,1.7c1.4,0,2.5-0.6,3.3-1.7
	c0.7-1,1-2.2,1-3.8c0-1.7-0.4-3-1.2-4c-0.8-1-1.8-1.5-3.1-1.5c-1.5,0-2.6,0.6-3.4,1.8C366.8,933.2,366.5,934.5,366.5,936.1z
	 M378.4,922.2v21.4h-3.2v-2.1h-0.1c-0.9,1.7-2.5,2.5-4.8,2.5c-2.4,0-4.2-0.8-5.5-2.4c-1.2-1.5-1.8-3.4-1.8-5.9
	c0-2.6,0.7-4.7,2.1-6.2c1.2-1.3,2.8-1.9,4.6-1.9c2.4,0,4.2,0.8,5.2,2.4h0.1v-7.9H378.4z M396.2,936.8h-11.4c0,1.3,0.3,2.4,1,3.2
	c0.7,0.9,1.8,1.4,3.1,1.4c1.9,0,3.2-0.9,3.8-2.6h3.2c-0.4,1.7-1.2,3-2.5,3.9c-1.3,0.9-2.8,1.4-4.5,1.4c-2.4,0-4.2-0.8-5.6-2.2
	s-2-3.5-2-5.9c0-2.3,0.7-4.2,2-5.8c1.4-1.6,3.2-2.4,5.5-2.4c2.2,0,4,0.8,5.4,2.4c1.3,1.5,2,3.3,2,5.5
	C396.3,936,396.3,936.4,396.2,936.8z M384.8,934.5h8c-0.1-1.1-0.5-2.1-1.2-2.9c-0.7-0.8-1.6-1.2-2.7-1.2c-1.2,0-2.1,0.4-2.9,1.2
	C385.3,932.4,384.9,933.4,384.8,934.5z M411.3,943.7l-5.6-15.5h3.7l3.9,11.9h0.1l3.8-11.9h3.5l-5.5,15.5H411.3z M429.8,941.4
	c1.4,0,2.6-0.6,3.4-1.7c0.7-1,1-2.2,1-3.8c0-1.5-0.3-2.7-1-3.7c-0.8-1.2-1.9-1.7-3.4-1.7c-1.4,0-2.6,0.6-3.4,1.7c-0.7,1-1,2.2-1,3.7
	c0,1.5,0.3,2.8,1,3.8C427.3,940.8,428.4,941.4,429.8,941.4z M429.8,944.1c-2.4,0-4.4-0.8-5.8-2.3c-1.4-1.5-2-3.4-2-5.9
	c0-2.4,0.7-4.4,2.1-5.9c1.4-1.5,3.3-2.3,5.8-2.3c2.4,0,4.4,0.8,5.8,2.3c1.4,1.5,2,3.4,2,5.8c0,2.4-0.7,4.4-2,5.9
	C434.2,943.3,432.3,944.1,429.8,944.1z M438.9,930.7v-2.5h2.6v-4.6h3.4v4.6h3.1v2.5h-3.1v8.3c0,0.8,0.1,1.3,0.2,1.6
	c0.2,0.4,0.7,0.5,1.4,0.5c0.6,0,1.1,0,1.4-0.1v2.6c-1.5,0.1-2.2,0.2-2.2,0.2c-1.7,0-2.8-0.3-3.5-1c-0.5-0.6-0.8-1.5-0.8-2.9v-9.2
	H438.9z M450.5,943.7v-15.5h3.2v3h0.1c0.2-0.9,0.8-1.6,1.6-2.3c0.9-0.7,1.9-1.1,2.9-1.1c0.3,0,0.7,0,1.3,0.1v3.3
	c-0.8-0.1-1.3-0.2-1.5-0.2c-1.2,0-2.2,0.5-3,1.4c-0.8,1-1.2,2.3-1.2,3.9v7.4H450.5z M475.1,936.8h-11.4c0,1.3,0.3,2.4,1,3.2
	c0.7,0.9,1.8,1.4,3.2,1.4c1.9,0,3.2-0.9,3.8-2.6h3.2c-0.4,1.7-1.2,3-2.5,3.9c-1.3,0.9-2.8,1.4-4.5,1.4c-2.4,0-4.2-0.8-5.6-2.2
	s-2-3.5-2-5.9c0-2.3,0.7-4.2,2-5.8c1.4-1.6,3.2-2.4,5.5-2.4c2.2,0,4,0.8,5.4,2.4c1.3,1.5,2,3.3,2,5.5
	C475.2,936,475.2,936.4,475.1,936.8z M463.7,934.5h8c-0.1-1.1-0.5-2.1-1.2-2.9c-0.7-0.8-1.6-1.2-2.7-1.2c-1.2,0-2.1,0.4-2.9,1.2
	C464.2,932.4,463.8,933.4,463.7,934.5z M498.1,935.9c0-1.5-0.4-2.8-1.1-3.8c-0.8-1.1-1.9-1.7-3.2-1.7c-1.4,0-2.5,0.5-3.2,1.5
	c-0.7,1-1.1,2.3-1.1,4c0,1.6,0.4,2.9,1.2,3.9s1.8,1.5,3.2,1.5c1.4,0,2.6-0.6,3.3-1.7C497.8,938.7,498.1,937.4,498.1,935.9z
	 M486.2,949.4v-21.2h3.2v2.1h0.1c0.9-1.7,2.5-2.5,4.8-2.5c2.3,0,4.2,0.8,5.5,2.4c1.2,1.5,1.8,3.4,1.8,5.8c0,2.3-0.5,4.1-1.6,5.6
	c-1.2,1.7-2.9,2.5-5.1,2.5c-2.4,0-4.2-0.8-5.2-2.4h-0.1v7.7H486.2z M504.4,943.7v-15.5h3.2v3h0.1c0.2-0.9,0.8-1.6,1.6-2.3
	c0.9-0.7,1.9-1.1,2.9-1.1c0.3,0,0.7,0,1.3,0.1v3.3c-0.8-0.1-1.3-0.2-1.5-0.2c-1.2,0-2.2,0.5-3,1.4c-0.8,1-1.2,2.3-1.2,3.9v7.4H504.4
	z M522.1,941.4c1.4,0,2.6-0.6,3.4-1.7c0.7-1,1-2.2,1-3.8c0-1.5-0.4-2.7-1-3.7c-0.8-1.2-1.9-1.7-3.4-1.7s-2.6,0.6-3.4,1.7
	c-0.7,1-1,2.2-1,3.7c0,1.5,0.3,2.8,1,3.8C519.5,940.8,520.6,941.4,522.1,941.4z M522.1,944.1c-2.4,0-4.4-0.8-5.8-2.3
	c-1.4-1.5-2-3.4-2-5.9c0-2.4,0.7-4.4,2.1-5.9c1.4-1.5,3.3-2.3,5.8-2.3s4.4,0.8,5.8,2.3c1.4,1.5,2,3.4,2,5.8c0,2.4-0.7,4.4-2,5.9
	C526.4,943.3,524.5,944.1,522.1,944.1z M532.8,944.8v-16.7h3.4V945c0,3.2-1.5,4.8-4.4,4.8c-0.4,0-0.9,0-1.5-0.1V947
	c0.6,0.1,1,0.1,1.2,0.1c0.6,0,1-0.2,1.2-0.6C532.8,946.2,532.8,945.7,532.8,944.8z M532.8,925.5v-3.2h3.4v3.2H532.8z M554,936.8
	h-11.4c0,1.3,0.3,2.4,1,3.2c0.7,0.9,1.8,1.4,3.1,1.4c1.9,0,3.2-0.9,3.8-2.6h3.2c-0.4,1.7-1.2,3-2.5,3.9c-1.3,0.9-2.8,1.4-4.5,1.4
	c-2.4,0-4.2-0.8-5.6-2.2c-1.3-1.5-2-3.5-2-5.9c0-2.3,0.7-4.2,2-5.8c1.4-1.6,3.2-2.4,5.5-2.4c2.2,0,4,0.8,5.4,2.4
	c1.3,1.5,2,3.3,2,5.5C554.1,936,554.1,936.4,554,936.8z M542.6,934.5h8c-0.1-1.1-0.4-2.1-1.2-2.9c-0.7-0.8-1.6-1.2-2.7-1.2
	c-1.2,0-2.1,0.4-2.9,1.2C543.1,932.4,542.7,933.4,542.6,934.5z M555.1,930.7v-2.5h2.6v-4.6h3.4v4.6h3.1v2.5h-3.1v8.3
	c0,0.8,0.1,1.3,0.2,1.6c0.2,0.4,0.7,0.5,1.4,0.5c0.6,0,1.1,0,1.4-0.1v2.6c-1.5,0.1-2.2,0.2-2.2,0.2c-1.7,0-2.8-0.3-3.5-1
	c-0.5-0.6-0.8-1.5-0.8-2.9v-9.2H555.1z M566.9,943.7v-4h4.2v4c0,1.2-0.4,2.2-1.1,3.1c-0.7,0.9-1.7,1.4-2.9,1.6v-1.8
	c0.6-0.2,1.1-0.5,1.5-1.1c0.3-0.5,0.5-1.2,0.5-1.8H566.9z M309.7,970.9c0-1.5-0.4-2.8-1.1-3.8c-0.8-1.1-1.9-1.7-3.2-1.7
	c-1.4,0-2.5,0.5-3.2,1.5c-0.7,1-1.1,2.3-1.1,4c0,1.6,0.4,2.9,1.2,3.9s1.8,1.5,3.2,1.5c1.4,0,2.6-0.6,3.3-1.7
	C309.4,973.7,309.7,972.4,309.7,970.9z M297.8,984.4v-21.2h3.2v2.1h0.1c0.9-1.7,2.5-2.5,4.8-2.5c2.3,0,4.2,0.8,5.5,2.4
	c1.2,1.5,1.8,3.4,1.8,5.8c0,2.3-0.5,4.1-1.6,5.6c-1.2,1.7-2.9,2.5-5.1,2.5c-2.4,0-4.2-0.8-5.2-2.4h-0.1v7.7H297.8z M316,978.7v-15.5
	h3.2v3h0.1c0.2-0.9,0.8-1.6,1.6-2.3c0.9-0.7,1.9-1.1,2.9-1.1c0.3,0,0.7,0,1.3,0.1v3.3c-0.8-0.1-1.3-0.2-1.5-0.2
	c-1.2,0-2.2,0.5-3,1.4c-0.8,1-1.2,2.3-1.2,3.9v7.4H316z M340.6,971.8h-11.4c0,1.3,0.3,2.4,1,3.2c0.7,0.9,1.8,1.4,3.1,1.4
	c1.9,0,3.2-0.9,3.8-2.6h3.2c-0.4,1.7-1.2,3-2.5,3.9c-1.3,0.9-2.8,1.4-4.5,1.4c-2.4,0-4.2-0.8-5.6-2.2s-2-3.5-2-5.9
	c0-2.3,0.7-4.2,2-5.8c1.4-1.6,3.2-2.4,5.5-2.4c2.2,0,4,0.8,5.4,2.4c1.3,1.5,2,3.3,2,5.5C340.7,971,340.7,971.4,340.6,971.8z
	 M329.2,969.5h8c-0.1-1.1-0.4-2.1-1.2-2.9c-0.7-0.8-1.6-1.2-2.7-1.2c-1.2,0-2.1,0.4-2.9,1.2C329.7,967.4,329.3,968.4,329.2,969.5z
	 M333.1,958.3L331,961h-2.8l3.2-4.3h3.3l3.2,4.3h-2.8L333.1,958.3z M341.7,965.7v-2.5h2.6v-4.6h3.4v4.6h3.1v2.5h-3.1v8.3
	c0,0.8,0.1,1.3,0.2,1.6c0.2,0.4,0.7,0.5,1.4,0.5c0.6,0,1.1,0,1.4-0.1v2.6c-1.5,0.1-2.2,0.2-2.2,0.2c-1.7,0-2.8-0.3-3.5-1
	c-0.5-0.6-0.8-1.5-0.8-2.9v-9.2H341.7z M371.2,973.4v-2.6c-0.4,0.3-1.1,0.5-1.9,0.6c-0.8,0.1-1.5,0.2-2.3,0.3
	c-1.9,0.3-2.8,1.2-2.8,2.6c0,0.7,0.4,1.2,1.1,1.6c0.6,0.3,1.2,0.4,2,0.4c0.9,0,1.8-0.2,2.5-0.7C370.7,975.2,371.2,974.4,371.2,973.4
	z M374.6,967.2v8c0,0.8,0.3,1.2,0.8,1.2c0.3,0,0.6,0,0.8-0.1v2.4c-0.7,0.3-1.5,0.4-2.2,0.4c-1.5,0-2.4-0.6-2.6-1.9
	c-1.3,1.3-3.1,1.9-5.4,1.9c-1.5,0-2.7-0.4-3.7-1.1c-1.1-0.8-1.6-2-1.6-3.4c0-1.7,0.6-3,1.9-3.7c0.8-0.5,2.1-0.8,4.1-1.1
	c2.2-0.3,3.2-0.5,3.2-0.5c0.9-0.3,1.4-0.9,1.4-1.7c0-1.4-1.1-2.1-3.2-2.1c-2.1,0-3.3,0.8-3.4,2.5h-3.4c0.2-3.4,2.5-5.2,7-5.2
	c1.7,0,3.1,0.3,4.2,1C373.9,964.5,374.6,965.7,374.6,967.2z M363.7,956.7h4l2.7,4.3h-2.5L363.7,956.7z M389.3,971.1
	c0,1.5,0.3,2.7,1,3.7c0.8,1.1,1.9,1.7,3.3,1.7c1.4,0,2.5-0.6,3.3-1.7c0.7-1,1-2.2,1-3.8c0-1.7-0.4-3-1.2-4c-0.8-1-1.8-1.5-3.1-1.5
	c-1.5,0-2.6,0.6-3.4,1.8C389.6,968.2,389.3,969.5,389.3,971.1z M401.2,957.2v21.4H398v-2.1h-0.1c-0.9,1.7-2.5,2.5-4.8,2.5
	c-2.4,0-4.2-0.8-5.5-2.4c-1.2-1.5-1.8-3.4-1.8-5.9c0-2.6,0.7-4.7,2.1-6.2c1.2-1.3,2.8-1.9,4.6-1.9c2.4,0,4.2,0.8,5.2,2.4h0.1v-7.9
	H401.2z M419,971.8h-11.4c0,1.3,0.3,2.4,1,3.2c0.7,0.9,1.8,1.4,3.1,1.4c1.9,0,3.2-0.9,3.8-2.6h3.2c-0.4,1.7-1.2,3-2.5,3.9
	c-1.3,0.9-2.8,1.4-4.5,1.4c-2.4,0-4.2-0.8-5.6-2.2s-2-3.5-2-5.9c0-2.3,0.7-4.2,2-5.8c1.4-1.6,3.2-2.4,5.5-2.4c2.2,0,4,0.8,5.4,2.4
	c1.3,1.5,2,3.3,2,5.5C419.1,971,419.1,971.4,419,971.8z M407.6,969.5h8c-0.1-1.1-0.5-2.1-1.2-2.9c-0.7-0.8-1.6-1.2-2.7-1.2
	c-1.2,0-2.1,0.4-2.9,1.2C408.1,967.4,407.7,968.4,407.6,969.5z M421.6,978.7v-15.5h3.2v2.2h0.1c1.1-1.7,2.7-2.6,4.8-2.6
	c2.2,0,3.7,0.9,4.4,2.6c1.2-1.7,2.9-2.6,4.9-2.6c3.5,0,5.2,1.7,5.2,5.2v10.7h-3.4v-9.1c0-1.5-0.1-2.5-0.4-3
	c-0.4-0.8-1.2-1.2-2.4-1.2c-2.2,0-3.3,1.4-3.3,4.1v9.1h-3.4v-10c0-1.1-0.2-1.9-0.6-2.5c-0.4-0.5-1.1-0.8-2.1-0.8
	c-0.9,0-1.7,0.4-2.4,1.1c-0.7,0.7-1,1.7-1,2.9v9.2H421.6z M457.3,973.4v-2.6c-0.4,0.3-1.1,0.5-1.9,0.6c-0.8,0.1-1.5,0.2-2.3,0.3
	c-1.9,0.3-2.8,1.2-2.8,2.6c0,0.7,0.4,1.2,1.1,1.6c0.6,0.3,1.2,0.4,2,0.4c0.9,0,1.8-0.2,2.5-0.7C456.8,975.2,457.3,974.4,457.3,973.4
	z M460.7,967.2v8c0,0.8,0.3,1.2,0.8,1.2c0.3,0,0.6,0,0.8-0.1v2.4c-0.7,0.3-1.5,0.4-2.2,0.4c-1.5,0-2.4-0.6-2.6-1.9
	c-1.3,1.3-3.1,1.9-5.4,1.9c-1.5,0-2.7-0.4-3.7-1.1c-1.1-0.8-1.6-2-1.6-3.4c0-1.7,0.6-3,1.9-3.7c0.8-0.5,2.1-0.8,4-1.1
	c2.2-0.3,3.2-0.5,3.2-0.5c0.9-0.3,1.4-0.9,1.4-1.7c0-1.4-1.1-2.1-3.2-2.1c-2.1,0-3.3,0.8-3.4,2.5h-3.4c0.2-3.4,2.5-5.2,7-5.2
	c1.7,0,3.1,0.3,4.2,1C460,964.5,460.7,965.7,460.7,967.2z M464.4,978.7v-15.5h3.2v3h0.1c0.2-0.9,0.8-1.6,1.6-2.3
	c0.9-0.7,1.9-1.1,2.9-1.1c0.3,0,0.7,0,1.3,0.1v3.3c-0.8-0.1-1.3-0.2-1.5-0.2c-1.2,0-2.2,0.5-3,1.4c-0.8,1-1.2,2.3-1.2,3.9v7.4H464.4
	z M474.9,978.7v-15.5h3.2v3h0.1c0.2-0.9,0.8-1.6,1.7-2.3c0.9-0.7,1.9-1.1,2.9-1.1c0.3,0,0.7,0,1.3,0.1v3.3c-0.8-0.1-1.3-0.2-1.5-0.2
	c-1.2,0-2.2,0.5-3,1.4c-0.8,1-1.2,2.3-1.2,3.9v7.4H474.9z M499.5,971.8h-11.4c0,1.3,0.3,2.4,1,3.2c0.7,0.9,1.8,1.4,3.1,1.4
	c1.9,0,3.2-0.9,3.8-2.6h3.2c-0.4,1.7-1.2,3-2.5,3.9c-1.3,0.9-2.8,1.4-4.5,1.4c-2.4,0-4.2-0.8-5.6-2.2s-2-3.5-2-5.9
	c0-2.3,0.7-4.2,2-5.8c1.4-1.6,3.2-2.4,5.5-2.4c2.2,0,4,0.8,5.4,2.4c1.3,1.5,2,3.3,2,5.5C499.6,971,499.6,971.4,499.5,971.8z
	 M488.1,969.5h8c-0.1-1.1-0.4-2.1-1.2-2.9c-0.7-0.8-1.6-1.2-2.7-1.2c-1.2,0-2.1,0.4-2.9,1.2C488.6,967.4,488.2,968.4,488.1,969.5z
	 M502.1,978.7v-15.5h3.2v3h0.1c0.2-0.9,0.8-1.6,1.6-2.3c0.9-0.7,1.9-1.1,2.9-1.1c0.3,0,0.7,0,1.3,0.1v3.3c-0.8-0.1-1.3-0.2-1.5-0.2
	c-1.2,0-2.2,0.5-3,1.4c-0.8,1-1.2,2.3-1.2,3.9v7.4H502.1z M521.6,963.4v-6.2h3.8v6.2l-1,9.3h-1.8L521.6,963.4z M521.4,978.7v-3.8h4
	v3.8H521.4z"/>
<path class="st2" d="M69,71l222,237.7L69,523.8l222,217.8L69,967"/>
<linearGradient id="SVGID_1_" gradientUnits="userSpaceOnUse" x1="72.6258" y1="1028" x2="72.6258" y2="882.7484" gradientTransform="matrix(1 0 0 -1 0 1028)">
	<stop  offset="0" style="stop-color:#2463AA"/>
	<stop  offset="1" style="stop-color:#5AC2D8"/>
</linearGradient>
<circle class="st3" cx="72.6" cy="72.6" r="72.6"/>
<g>
	<defs>
		<rect id="SVGID_2_" x="29.9" y="35" width="86" height="86"/>
	</defs>
	<clipPath id="SVGID_3_">
		<use xlink:href="#SVGID_2_"  style="overflow:visible;"/>
	</clipPath>
	<g class="st4">
		<path class="st5" d="M72.9,45.1c-1.4,0-2.5,1.1-2.5,2.5c0,1.4,1.1,2.5,2.5,2.5c8.3,0,15.1,6.8,15.1,15.1c0,1.4,1.1,2.5,2.5,2.5
			c1.4,0,2.5-1.1,2.5-2.5C93,54.1,84,45.1,72.9,45.1z"/>
		<path class="st5" d="M66.4,35.7c-11.4,2.4-20.6,11.5-23,23c-2.1,9.7,0.5,19.4,6.9,26.6c3.2,3.5,5,8.2,5,12.9v5
			c0,3.4,2.2,6.2,5.2,7.2c1,5.9,6.1,10.6,12.4,10.6c6.3,0,11.4-4.7,12.4-10.6c3-1,5.2-3.8,5.2-7.2v-5c0-4.6,1.8-9.3,5.1-13
			c4.8-5.5,7.5-12.6,7.5-19.9C103.1,46.2,85.6,31.7,66.4,35.7z M72.9,116c-3.2,0-6.1-2.2-7.1-5.2H80C79,113.7,76.1,116,72.9,116z
			 M85.5,103.2c0,1.4-1.1,2.5-2.5,2.5H62.8c-1.4,0-2.5-1.1-2.5-2.5v-2.5h25.2V103.2z M91.8,81.8c-3.5,4-5.7,8.8-6.2,13.8H60.1
			c-0.5-5-2.7-9.9-6.1-13.7c-5.4-6-7.5-14.2-5.8-22.2c2-9.4,9.7-17.1,19.1-19.1c16.1-3.4,30.7,8.7,30.7,24.6
			C98.1,71.3,95.9,77.2,91.8,81.8z"/>
		<path class="st5" d="M37.4,65.2h-5c-1.4,0-2.5,1.1-2.5,2.5c0,1.4,1.1,2.5,2.5,2.5h5c1.4,0,2.5-1.1,2.5-2.5
			C40,66.4,38.8,65.2,37.4,65.2z"/>
		<path class="st5" d="M38.5,52.6l-3.6-3.6c-1-1-2.6-1-3.6,0c-1,1-1,2.6,0,3.6l3.6,3.6c1,1,2.6,1,3.6,0
			C39.5,55.2,39.5,53.6,38.5,52.6z"/>
		<path class="st5" d="M38.5,79.3c-1-1-2.6-1-3.6,0l-3.6,3.6c-1,1-1,2.6,0,3.6c1,1,2.6,1,3.6,0l3.6-3.6
			C39.5,81.9,39.5,80.3,38.5,79.3z"/>
		<path class="st5" d="M113.4,65.2h-5c-1.4,0-2.5,1.1-2.5,2.5c0,1.4,1.1,2.5,2.5,2.5h5c1.4,0,2.5-1.1,2.5-2.5
			C115.9,66.4,114.7,65.2,113.4,65.2z"/>
		<path class="st5" d="M114.4,49.1c-1-1-2.6-1-3.6,0l-3.6,3.6c-1,1-1,2.6,0,3.6c1,1,2.6,1,3.6,0l3.6-3.6
			C115.4,51.7,115.4,50.1,114.4,49.1z"/>
		<path class="st5" d="M114.4,82.9l-3.6-3.6c-1-1-2.6-1-3.6,0c-1,1-1,2.6,0,3.6l3.6,3.6c1,1,2.6,1,3.6,0
			C115.4,85.4,115.4,83.9,114.4,82.9z"/>
	</g>
</g>
<linearGradient id="SVGID_4_" gradientUnits="userSpaceOnUse" x1="72.6258" y1="588.9998" x2="72.6258" y2="443.7482" gradientTransform="matrix(1 0 0 -1 0 1028)">
	<stop  offset="0" style="stop-color:#2463AA"/>
	<stop  offset="1" style="stop-color:#5AC2D8"/>
</linearGradient>
<circle class="st6" cx="72.6" cy="511.6" r="72.6"/>
<path class="st5" d="M43.9,549.8c-0.9,0-1.7,0.8-1.7,1.7c0,0.9,0.8,1.7,1.7,1.7c0.9,0,1.7-0.8,1.7-1.7
	C45.5,550.6,44.8,549.8,43.9,549.8z"/>
<path class="st5" d="M33.6,530c-0.6-0.6-1.5-0.6-2.1,0l-1.7,1.7l-1.7-1.7c-0.6-0.6-1.5-0.6-2.1,0s-0.6,1.5,0,2.1l1.7,1.7l-1.7,1.7
	c-0.6,0.6-0.6,1.5,0,2.1c0.3,0.3,0.7,0.4,1,0.4s0.8-0.1,1-0.4l1.7-1.7l1.7,1.7c0.3,0.3,0.7,0.4,1,0.4c0.4,0,0.8-0.1,1-0.4
	c0.6-0.6,0.6-1.5,0-2.1l-1.7-1.7l1.7-1.7C34.1,531.5,34.1,530.6,33.6,530z"/>
<path class="st5" d="M55,479.7c0-0.8-0.7-1.5-1.5-1.5H25.4c-0.8,0-1.5,0.7-1.5,1.5v23.7c0,0.8,0.7,1.5,1.5,1.5h4.2l6.7,5.6
	c0.3,0.2,0.6,0.3,0.9,0.3c0.2,0,0.4,0,0.6-0.1c0.5-0.2,0.9-0.8,0.9-1.3v-4.4h14.8c0.8,0,1.5-0.7,1.5-1.5V479.7z M52,501.9H37.2
	c-0.8,0-1.5,0.7-1.5,1.5v2.8l-4.7-3.9c-0.3-0.2-0.6-0.3-0.9-0.3h-3.3v-20.7H52V501.9z"/>
<path class="st5" d="M29.8,488.6h11.8c0.8,0,1.5-0.7,1.5-1.5c0-0.8-0.7-1.5-1.5-1.5H29.8c-0.8,0-1.5,0.7-1.5,1.5
	C28.3,487.9,29,488.6,29.8,488.6z"/>
<path class="st5" d="M29.8,493H49c0.8,0,1.5-0.7,1.5-1.5c0-0.8-0.7-1.5-1.5-1.5H29.8c-0.8,0-1.5,0.7-1.5,1.5
	C28.3,492.4,29,493,29.8,493z"/>
<path class="st5" d="M29.8,497.5h7.4c0.8,0,1.5-0.7,1.5-1.5c0-0.8-0.7-1.5-1.5-1.5h-7.4c-0.8,0-1.5,0.7-1.5,1.5
	C28.3,496.8,29,497.5,29.8,497.5z"/>
<path class="st5" d="M49,494.5h-7.4c-0.8,0-1.5,0.7-1.5,1.5c0,0.8,0.7,1.5,1.5,1.5H49c0.8,0,1.5-0.7,1.5-1.5
	C50.5,495.2,49.9,494.5,49,494.5z"/>
<path class="st5" d="M114.2,472.3H86c-0.8,0-1.5,0.7-1.5,1.5v23.7c0,0.8,0.7,1.5,1.5,1.5h4.2l6.7,5.6c0.3,0.2,0.6,0.3,0.9,0.3
	c0.2,0,0.4,0,0.6-0.1c0.5-0.2,0.9-0.8,0.9-1.3V499h14.8c0.8,0,1.5-0.7,1.5-1.5v-23.7C115.6,473,115,472.3,114.2,472.3z M112.7,496
	H97.9c-0.8,0-1.5,0.7-1.5,1.5v2.8l-4.7-3.9c-0.3-0.2-0.6-0.3-0.9-0.3h-3.3v-20.7h25.2V496z"/>
<path class="st5" d="M90.5,482.7h11.8c0.8,0,1.5-0.7,1.5-1.5c0-0.8-0.7-1.5-1.5-1.5H90.5c-0.8,0-1.5,0.7-1.5,1.5
	C89,482,89.7,482.7,90.5,482.7z"/>
<path class="st5" d="M90.5,487.1h19.2c0.8,0,1.5-0.7,1.5-1.5s-0.7-1.5-1.5-1.5H90.5c-0.8,0-1.5,0.7-1.5,1.5S89.7,487.1,90.5,487.1z"
	/>
<path class="st5" d="M90.5,491.6h7.4c0.8,0,1.5-0.7,1.5-1.5s-0.7-1.5-1.5-1.5h-7.4c-0.8,0-1.5,0.7-1.5,1.5S89.7,491.6,90.5,491.6z"
	/>
<path class="st5" d="M109.7,488.6h-7.4c-0.8,0-1.5,0.7-1.5,1.5s0.7,1.5,1.5,1.5h7.4c0.8,0,1.5-0.7,1.5-1.5S110.5,488.6,109.7,488.6z
	"/>
<path class="st5" d="M105.3,522.6c0-3.3-2.7-5.9-5.9-5.9c-1.9,0-3.5,0.9-4.6,2.2l-9-5.1c0.1-0.5,0.2-1,0.2-1.5
	c0-3.3-2.7-5.9-5.9-5.9c-3.3,0-5.9,2.7-5.9,5.9c0,0.5,0.1,1,0.2,1.5l-9,5.1c-1.1-1.3-2.7-2.2-4.6-2.2c-3.3,0-5.9,2.7-5.9,5.9
	c0,2.8,1.9,5,4.4,5.7v9.3c-2.5,0.7-4.4,3-4.4,5.7c0,3.3,2.7,5.9,5.9,5.9c1.4,0,2.6-0.5,3.6-1.3l9.9,5.7c-0.1,0.5-0.2,1-0.2,1.5
	c0,3.3,2.7,5.9,5.9,5.9c3.3,0,5.9-2.7,5.9-5.9c0-0.5-0.1-1-0.2-1.5l9.9-5.7c1,0.8,2.2,1.3,3.6,1.3c3.3,0,5.9-2.7,5.9-5.9
	c0-2.8-1.9-5-4.4-5.7v-9.3C103.4,527.7,105.3,525.4,105.3,522.6z M99.4,519.7c1.6,0,3,1.3,3,3c0,1.6-1.3,3-3,3c-1.6,0-3-1.3-3-3
	C96.4,521,97.7,519.7,99.4,519.7z M80.1,509.3c1.6,0,3,1.3,3,3c0,1.6-1.3,3-3,3c-1.6,0-3-1.3-3-3C77.2,510.7,78.5,509.3,80.1,509.3z
	 M57.9,522.6c0-1.6,1.3-3,3-3c1.6,0,3,1.3,3,3c0,1.6-1.3,3-3,3C59.2,525.6,57.9,524.3,57.9,522.6z M60.9,546.3c-1.6,0-3-1.3-3-3
	s1.3-3,3-3c1.6,0,3,1.3,3,3S62.5,546.3,60.9,546.3z M80.1,558.2c-1.6,0-3-1.3-3-3c0-1.6,1.3-3,3-3c1.6,0,3,1.3,3,3
	C83.1,556.8,81.7,558.2,80.1,558.2z M80.1,549.3c-1.7,0-3.2,0.7-4.2,1.8l-9.5-5.4c0.3-0.7,0.5-1.5,0.5-2.3c0-2.8-1.9-5-4.4-5.7v-9.3
	c2.5-0.7,4.4-3,4.4-5.7c0-0.3,0-0.7-0.1-1l9.2-5.2c1.1,1.1,2.6,1.8,4.2,1.8c1.7,0,3.2-0.7,4.2-1.8l9.2,5.2c-0.1,0.3-0.1,0.7-0.1,1
	c0,2.8,1.9,5,4.4,5.7v9.3c-2.5,0.7-4.4,3-4.4,5.7c0,0.8,0.2,1.6,0.5,2.3l-9.5,5.4C83.3,550,81.8,549.3,80.1,549.3z M102.3,543.4
	c0,1.6-1.3,3-3,3c-1.6,0-3-1.3-3-3s1.3-3,3-3C101,540.4,102.3,541.7,102.3,543.4z"/>
<path class="st5" d="M52,521.2H38.7v-7.4c0-0.8-0.7-1.5-1.5-1.5c-0.8,0-1.5,0.7-1.5,1.5v8.9c0,0.8,0.7,1.5,1.5,1.5H52
	c0.8,0,1.5-0.7,1.5-1.5C53.5,521.8,52.8,521.2,52,521.2z"/>
<path class="st5" d="M112.7,503.4h-10.4c-0.8,0-1.5,0.7-1.5,1.5s0.7,1.5,1.5,1.5h8.9v35.5h-3c-0.8,0-1.5,0.7-1.5,1.5
	s0.7,1.5,1.5,1.5h4.4c0.8,0,1.5-0.7,1.5-1.5v-38.5C114.2,504.1,113.5,503.4,112.7,503.4z"/>
<linearGradient id="SVGID_5_" gradientUnits="userSpaceOnUse" x1="286.626" y1="368.9998" x2="286.626" y2="223.7482" gradientTransform="matrix(1 0 0 -1 0 1028)">
	<stop  offset="0" style="stop-color:#2463AA"/>
	<stop  offset="1" style="stop-color:#5AC2D8"/>
</linearGradient>
<circle class="st7" cx="286.6" cy="731.6" r="72.6"/>
<g>
	<defs>
		<rect id="SVGID_6_" x="244.4" y="690" width="83" height="83"/>
	</defs>
	<clipPath id="SVGID_7_">
		<use xlink:href="#SVGID_6_"  style="overflow:visible;"/>
	</clipPath>
	<g class="st8">
		<path class="st5" d="M295.7,746.1c-0.9,0-1.6,0.7-1.6,1.6c0,0.9,0.7,1.6,1.6,1.6c0.9,0,1.6-0.7,1.6-1.6
			C297.3,746.8,296.6,746.1,295.7,746.1z"/>
		<path class="st5" d="M319.3,690h-66.8c-4.5,0-8.1,3.6-8.1,8.1v49.6c0,4.5,3.6,8.1,8.1,8.1h25.3v7.5h-1.6c-2.2,0-4.2,0.8-5.7,2.4
			c-1.5,1.5-2.4,3.6-2.4,5.7c0,0.9,0.7,1.6,1.6,1.6h32.4c0.9,0,1.6-0.7,1.6-1.6c0-4.5-3.6-8.1-8.1-8.1H294v-7.5h25.3
			c4.5,0,8.1-3.6,8.1-8.1v-49.6C327.4,693.6,323.8,690,319.3,690z M252.5,693.2h66.8c2.7,0,4.9,2.2,4.9,4.9v41.5h-7.5v-37.3
			c0-0.9-0.7-1.6-1.6-1.6h-13c-0.9,0-1.6,0.7-1.6,1.6v37.3h-8.1c0-1.7-0.1-3.3-0.1-4.9c-0.3-6.6-0.9-11-1.3-13
			c3.3-2.5,4.3-7,2.2-10.6l-5.6-9.7c-0.3-0.5-0.8-0.8-1.4-0.8c-0.6,0-1.1,0.3-1.4,0.8l-5.6,9.7c-1.9,3.3-1.2,7.7,1.8,10.2
			c-0.4,1.9-1.1,6.5-1.4,13.3c-0.1,1.6-0.1,3.3-0.1,4.9h-8.1v-24.3c0-0.3-0.1-0.5-0.2-0.7c0,0,0,0,0,0l-6.5-13
			c-0.3-0.5-0.8-0.9-1.5-0.9c-0.6,0-1.2,0.3-1.4,0.9l-6.5,13c0,0,0,0,0,0c-0.1,0.2-0.2,0.4-0.2,0.7v24.3h-7.5v-41.5
			C247.7,695.4,249.9,693.2,252.5,693.2z M303.8,739.6v-35.7h9.7v3.2h-1.6c-0.9,0-1.6,0.7-1.6,1.6c0,0.9,0.7,1.6,1.6,1.6h1.6v4.9
			h-1.6c-0.9,0-1.6,0.7-1.6,1.6c0,0.9,0.7,1.6,1.6,1.6h1.6v4.9h-1.6c-0.9,0-1.6,0.7-1.6,1.6c0,0.9,0.7,1.6,1.6,1.6h1.6v6.5h-1.6
			c-0.9,0-1.6,0.7-1.6,1.6c0,0.9,0.7,1.6,1.6,1.6h1.6v3.2H303.8z M286.2,723.3c0.6,0,1.2-0.1,1.7-0.2c0.3,1.9,0.7,5.3,1,10h-6
			c0.3-4.7,0.7-8.2,1.1-10.1C284.7,723.2,285.4,723.3,286.2,723.3z M286.2,720c-3.7,0-6.1-4-4.2-7.3l4.2-7.3l4.2,7.3
			C292.3,716,289.9,720,286.2,720z M282.8,736.4h6.3c0,1.1,0.1,2.1,0.1,3.2h-6.5C282.7,738.5,282.7,737.4,282.8,736.4z M264.9,739.6
			v-22.7h3.2v22.7H264.9z M258.4,739.6v-22.7h3.2v22.7H258.4z M259.4,713.7l3.9-7.7l3.9,7.7H259.4z M300.2,769.7h-28.6
			c0.2-0.7,0.6-1.3,1.1-1.8c0.9-0.9,2.1-1.4,3.4-1.4h19.5C297.8,766.5,299.6,767.9,300.2,769.7z M290.8,763.3h-9.7v-7.5h9.7V763.3z
			 M319.3,752.6h-66.8c-2.7,0-4.9-2.2-4.9-4.9v-4.9h76.5v4.9C324.2,750.4,322,752.6,319.3,752.6z"/>
		<path class="st5" d="M289.2,746.1h-9.7c-0.9,0-1.6,0.7-1.6,1.6c0,0.9,0.7,1.6,1.6,1.6h9.7c0.9,0,1.6-0.7,1.6-1.6
			C290.8,746.8,290.1,746.1,289.2,746.1z"/>
	</g>
</g>
<linearGradient id="SVGID_8_" gradientUnits="userSpaceOnUse" x1="81.6258" y1="146.9998" x2="81.6258" y2="1.7482" gradientTransform="matrix(1 0 0 -1 0 1028)">
	<stop  offset="0" style="stop-color:#2463AA"/>
	<stop  offset="1" style="stop-color:#5AC2D8"/>
</linearGradient>
<circle class="st9" cx="81.6" cy="953.6" r="72.6"/>
<g>
	<defs>
		<rect id="SVGID_9_" x="42.9" y="912.7" width="81" height="81"/>
	</defs>
	<clipPath id="SVGID_10_">
		<use xlink:href="#SVGID_9_"  style="overflow:visible;"/>
	</clipPath>
	<g class="st10">
		<path class="st5" d="M122.2,912.7c-15.8-0.3-33.8,8-45.3,20.8c-10.9,0.2-21.5,4.7-29.3,12.5c-0.5,0.4-0.6,1.1-0.4,1.7
			c0.2,0.6,0.7,1.1,1.4,1.1l13,1.9l-1.6,1.8c-0.6,0.7-0.6,1.7,0.1,2.3l21.7,21.7c0.3,0.3,0.8,0.5,1.2,0.5c0.4,0,0.8-0.1,1.1-0.4
			l1.8-1.6l1.9,13c0.1,0.6,0.6,1.1,1.2,1.3c0.2,0,0.3,0.1,0.5,0.1c0.5,0,1-0.2,1.3-0.5c7.7-7.7,12.2-18.3,12.4-29.2
			c12.8-11.4,21.2-29.5,20.8-45.3C123.8,913.4,123.1,912.7,122.2,912.7z M106.7,941.8c-1.6,1.6-3.8,2.5-6,2.5c-2.2,0-4.3-0.8-6-2.5
			c-3.3-3.3-3.3-8.6,0-11.9c3.3-3.3,8.6-3.3,11.9,0C109.9,933.2,109.9,938.5,106.7,941.8z"/>
		<path class="st5" d="M52.1,969.7c-3.6,3.6-8.6,19.9-9.1,21.8c-0.2,0.6,0,1.2,0.4,1.7c0.3,0.3,0.8,0.5,1.2,0.5c0.2,0,0.3,0,0.5-0.1
			c1.8-0.6,18.2-5.5,21.8-9.1c4.1-4.1,4.1-10.7,0-14.8C62.7,965.6,56.1,965.6,52.1,969.7z"/>
	</g>
</g>
<linearGradient id="SVGID_11_" gradientUnits="userSpaceOnUse" x1="286.626" y1="820.9998" x2="286.626" y2="675.7482" gradientTransform="matrix(1 0 0 -1 0 1028)">
	<stop  offset="0" style="stop-color:#2463AA"/>
	<stop  offset="1" style="stop-color:#5AC2D8"/>
</linearGradient>
<circle class="st11" cx="286.6" cy="279.6" r="72.6"/>
<path class="st5" d="M329.2,249.9L329.2,249.9c-6.9-5.2-16.9-3.9-22.2,2.9l-20.5,27.1l-20.1-26.5c-0.1-0.1-0.2-0.2-0.3-0.4L266,253
	c-2.6-3.4-6.3-5.6-10.5-6.2c-4.2-0.6-8.4,0.5-11.8,3.1c-7.9,6-6.9,17-3.1,22.2c0.1,0.2,0.3,0.3,0.3,0.4l32.6,42.9
	c0.1,0.1,0.2,0.2,0.3,0.4c2.6,3.4,6.3,5.6,10.5,6.2c0.7,0.1,1.5,0.1,2.2,0.1c3.5,0,6.8-1.1,9.6-3.2c1.3-1,2.4-2.1,3.3-3.3l32.9-43.3
	l0.2-0.2C337.5,265.1,336.1,255.1,329.2,249.9z M295.4,312.6c-0.6,0.9-1.4,1.7-2.3,2.3c-2.3,1.8-5.2,2.5-8.1,2.1
	c-1.4-0.2-2.8-0.7-4-1.4c-1.8-1-2.8-2.3-3.3-2.9c-2.2-2.8-8.6-11-16.8-22.2c-1.3-1.7-2-3.7-2.2-5.7c0,0,0-0.1,0-0.1
	c0-0.3,0-0.6,0-0.8c0-0.1,0-0.1,0-0.2c0-0.2,0-0.4,0-0.7l0-0.1c0-0.1,0-0.1,0-0.2l0-0.1c0-0.2,0-0.3,0.1-0.5l0.1-0.4
	c0-0.1,0-0.1,0-0.2c0-0.1,0.1-0.2,0.1-0.3l0.1-0.4c0-0.1,0-0.2,0.1-0.2c0-0.1,0.1-0.2,0.1-0.3l0.1-0.4c0-0.1,0.1-0.2,0.1-0.3
	c0-0.1,0.1-0.2,0.1-0.3l0.2-0.4c0-0.1,0.1-0.2,0.1-0.2c0.1-0.1,0.1-0.2,0.2-0.3l0.2-0.4c0-0.1,0.1-0.1,0.1-0.2
	c0.1-0.1,0.1-0.2,0.2-0.3l0.3-0.4c0-0.1,0.1-0.1,0.2-0.2c0.1-0.1,0.2-0.2,0.3-0.3l0.3-0.3c0.1-0.1,0.1-0.1,0.2-0.2
	c0.1-0.1,0.2-0.2,0.3-0.3l0.3-0.3c0,0,0.1-0.1,0.1-0.1l0.1-0.1c0.1-0.1,0.2-0.2,0.4-0.3l0.1-0.1c0.1-0.1,0.2-0.2,0.3-0.2
	c4.8-3.4,11.4-2.3,14.9,2.3l11.7,15.4l0.3,0.4c0,0.1,0.1,0.1,0.1,0.2c0.1,0.2,0.3,0.3,0.4,0.6c0,0.1,0.1,0.1,0.1,0.2l0.3,0.4
	c0.2,0.3,0.5,0.5,0.7,0.8l0.2,0.2c0.1,0.1,0.2,0.2,0.2,0.2c0.4,0.4,0.8,0.7,1.3,1.1l0.1,0.1c0.4,0.3,0.9,0.6,1.5,1l0.4,0.2
	c0.6,0.3,1.1,0.6,1.6,0.8c0.1,0,0.1,0,0.2,0.1l0.1,0c0.5,0.2,1,0.4,1.6,0.5l0.1,0c0.1,0,0.2,0,0.2,0.1c0.6,0.1,1.2,0.3,1.7,0.3
	c0.1,0,0.2,0,0.3,0l0.1,0c0.6,0.1,1.2,0.1,1.7,0.1l0.2,0c0.6,0,1.2,0,1.8-0.1L295.4,312.6L295.4,312.6z M246.7,253.8
	c1.9-1.5,4.2-2.2,6.6-2.2c0.5,0,1,0,1.5,0.1c2.9,0.4,5.5,1.9,7.2,4.2l9.3,12.2l-0.1,0c-0.4,0-0.8-0.1-1.2-0.1c-0.2,0-0.4,0-0.6,0
	c-0.4,0-0.8,0-1.3,0.1l-0.1,0c-0.1,0-0.2,0-0.3,0c-0.6,0.1-1.1,0.2-1.7,0.3c-0.1,0-0.2,0.1-0.3,0.1l-0.1,0c-0.4,0.1-0.9,0.2-1.3,0.4
	c-0.2,0.1-0.4,0.1-0.6,0.2c-0.4,0.1-0.8,0.3-1.1,0.5l-0.1,0.1c-0.1,0.1-0.3,0.1-0.4,0.2c-0.6,0.3-1.1,0.6-1.6,0.9l-0.1,0.1
	c-0.2,0.1-0.3,0.2-0.5,0.4c-0.1,0.1-0.3,0.2-0.4,0.3l-0.3,0.2c-0.4,0.4-0.8,0.7-1.3,1.2c-0.1,0.1-0.2,0.2-0.3,0.3l-0.1,0.1
	c-0.3,0.3-0.6,0.7-0.8,1c-0.1,0.2-0.2,0.3-0.4,0.5c-0.2,0.3-0.5,0.7-0.7,1.1l-0.1,0.1c-0.1,0.1-0.1,0.2-0.2,0.3
	c-0.3,0.5-0.5,1-0.7,1.6c0,0.1-0.1,0.2-0.1,0.3l0,0.1c-0.2,0.4-0.3,0.9-0.4,1.3c0,0.2-0.1,0.4-0.1,0.6c-0.1,0.4-0.2,0.8-0.2,1.2
	l0,0.1l-9.1-11.9c-0.1-0.1-0.1-0.2-0.2-0.3C242.3,266,241.1,258.1,246.7,253.8z M312.2,290.5l-0.1,0.1c-3.2,4.2-9,5.5-13.7,3.1
	c-0.6-0.3-1.1-0.6-1.6-1c-0.3-0.2-0.5-0.4-0.8-0.7l-0.2-0.2c-0.2-0.2-0.4-0.4-0.5-0.5l-0.1-0.1l-5.5-7.2l5.1-6.7
	c1.8-2.3,4.3-3.8,7.1-4.2c0.1,0,0.2,0,0.3,0l0.4,0c0.1,0,0.2,0,0.3,0c2.1-0.1,4.2,0.4,6,1.4l0.1,0.1c0.7,0.4,1.2,0.7,1.6,1.1
	l0.2,0.1c0.5,0.3,1,0.6,1.5,0.9l0.1,0c0.1,0,0.2,0.1,0.2,0.1c0.5,0.3,1,0.5,1.6,0.7c0.1,0,0.1,0,0.2,0.1l0.1,0
	c0.5,0.2,1,0.3,1.5,0.5c0.1,0,0.1,0,0.2,0c0.5,0.1,1,0.2,1.6,0.3c0.1,0,0.3,0,0.4,0c0.6,0.1,1.1,0.1,1.6,0.1l0.1,0
	c0.2,0,0.4,0,0.5,0l0.4,0c0.2,0,0.4,0,0.6,0L312.2,290.5z M328.4,269.1l-0.1,0.1c-0.2,0.3-0.5,0.6-0.7,0.8c-0.2,0.2-0.4,0.4-0.7,0.7
	c0,0-0.1,0.1-0.1,0.1c-2.4,2.1-5.5,3.1-8.7,2.6l0,0c-0.3,0-0.5-0.1-0.8-0.2c-0.1,0-0.1,0-0.2,0c-0.2,0-0.4-0.1-0.5-0.2l-0.1,0
	c-0.1,0-0.1,0-0.2-0.1c0,0-0.1,0-0.1,0c-0.1,0-0.2-0.1-0.3-0.1l-0.4-0.2c-0.1,0-0.2-0.1-0.3-0.1c-0.1,0-0.1-0.1-0.2-0.1l-0.4-0.2
	c-0.1-0.1-0.3-0.1-0.4-0.2l-0.1,0c-0.1,0-0.1-0.1-0.2-0.1c-0.2-0.1-0.5-0.3-0.7-0.5c-0.1-0.1-0.2-0.1-0.3-0.2
	c-0.1,0-0.1-0.1-0.2-0.1l-0.1-0.1c-0.5-0.3-1-0.6-1.5-1c-0.1-0.1-0.2-0.1-0.4-0.2l-0.1-0.1c-0.4-0.2-0.8-0.4-1.2-0.6
	c-0.2-0.1-0.4-0.1-0.5-0.2c-0.4-0.2-0.9-0.3-1.4-0.4l-0.1,0c-0.1,0-0.2-0.1-0.3-0.1c-0.6-0.1-1.2-0.2-1.7-0.3c-0.1,0-0.2,0-0.3,0
	l-0.1,0c-0.5,0-0.9-0.1-1.3-0.1c-0.2,0-0.4,0-0.6,0c-0.4,0-0.8,0-1.2,0.1l-0.2,0c0,0,0,0,0,0l9.3-12.2l0.1-0.1
	c3.7-4.7,10.5-5.6,15.3-2C331,257.4,332,264.3,328.4,269.1z"/>
</svg>
