<?xml version="1.0" encoding="utf-8"?>
<!-- Generator: Adobe Illustrator 25.1.0, SVG Export Plug-In . SVG Version: 6.00 Build 0)  -->
<svg version="1.1" id="Calque_1" xmlns="http://www.w3.org/2000/svg" xmlns:xlink="http://www.w3.org/1999/xlink" x="0px" y="0px"
	 viewBox="0 0 1310 783" style="enable-background:new 0 0 1310 783;" xml:space="preserve">
<style type="text/css">
	.st0{fill-rule:evenodd;clip-rule:evenodd;fill:#DFDFDF;}
	.st1{fill:#4B4B4B;}
	.st2{fill:none;stroke:#C4C4C4;stroke-width:4;stroke-linecap:square;stroke-linejoin:round;stroke-dasharray:12,20;}
	.st3{fill:url(#SVGID_1_);}
	.st4{fill:url(#SVGID_2_);}
	.st5{fill:url(#SVGID_3_);}
	.st6{fill:url(#SVGID_4_);}
	.st7{fill:url(#SVGID_5_);}
	.st8{fill:#FFFFFF;}
	.st9{clip-path:url(#SVGID_7_);}
</style>
<path class="st0" d="M477.2,0h-405v0C32.3,0.2,0,32.7,0,72.6c0,40,32.3,72.4,72.2,72.6v0h0.3h0.1h0.1h403.4
	c-20.9-17.1-34.2-43.1-34.2-72.2C442,43.5,455.7,17.1,477.2,0z"/>
<path class="st1" d="M162.7,40.3V26.6h3.8v12.5c0,1.9,0.2,3.3,0.7,4.2c0.7,1.4,2.2,2,4.4,2c2.2,0,3.6-0.7,4.3-2
	c0.5-0.8,0.7-2.2,0.7-4.2V26.6h3.8v13.7c0,2.7-0.8,4.7-2.4,6.2c-1.5,1.4-3.7,2-6.4,2s-4.8-0.7-6.4-2C163.5,45,162.7,43,162.7,40.3z
	 M184.1,48V32.5h3.2v2.3l0.1,0.1c1.1-1.8,2.7-2.8,4.8-2.8c1.7,0,3.1,0.5,4,1.3c1,0.9,1.5,2.2,1.5,3.9V48h-3.4v-9.8
	c0-2.3-1-3.5-3-3.5c-1.1,0-2,0.4-2.7,1.2c-0.7,0.8-1,1.8-1,2.9V48H184.1z M215.4,41.1H204c0,1.3,0.3,2.4,1,3.2
	c0.7,0.9,1.8,1.4,3.1,1.4c1.9,0,3.2-0.9,3.8-2.6h3.2c-0.4,1.7-1.2,3-2.5,3.9c-1.3,0.9-2.8,1.4-4.5,1.4c-2.4,0-4.2-0.8-5.6-2.2
	s-2-3.5-2-5.9c0-2.3,0.7-4.2,2-5.8c1.4-1.6,3.2-2.4,5.5-2.4c2.2,0,4,0.8,5.4,2.4c1.3,1.5,2,3.3,2,5.5
	C215.5,40.4,215.5,40.8,215.4,41.1z M204,38.9h8c-0.1-1.1-0.4-2.1-1.2-2.9c-0.7-0.8-1.6-1.2-2.7-1.2c-1.2,0-2.1,0.4-2.9,1.2
	C204.5,36.7,204.1,37.7,204,38.9z M226.5,48V32.5h3.4V48H226.5z M226.5,29.8v-3.2h3.4v3.2H226.5z M236.3,40.4c0,1.5,0.3,2.7,1,3.7
	c0.8,1.1,1.9,1.7,3.3,1.7c1.4,0,2.5-0.6,3.3-1.7c0.7-1,1-2.2,1-3.8c0-1.7-0.4-3-1.2-4c-0.8-1-1.8-1.5-3.1-1.5
	c-1.5,0-2.6,0.6-3.4,1.8C236.6,37.5,236.3,38.8,236.3,40.4z M248.2,26.6V48H245v-2.1h-0.1c-0.9,1.7-2.5,2.5-4.8,2.5
	c-2.4,0-4.2-0.8-5.5-2.4c-1.2-1.5-1.8-3.4-1.8-5.9c0-2.6,0.7-4.7,2.1-6.1c1.2-1.3,2.8-1.9,4.6-1.9c2.4,0,4.2,0.8,5.2,2.4h0.1v-7.9
	H248.2z M266,41.1h-11.4c0,1.3,0.3,2.4,1,3.2c0.7,0.9,1.8,1.4,3.2,1.4c1.9,0,3.2-0.9,3.8-2.6h3.2c-0.4,1.7-1.2,3-2.5,3.9
	c-1.3,0.9-2.8,1.4-4.5,1.4c-2.4,0-4.2-0.8-5.6-2.2s-2-3.5-2-5.9c0-2.3,0.7-4.2,2-5.8c1.4-1.6,3.2-2.4,5.5-2.4c2.2,0,4,0.8,5.4,2.4
	c1.3,1.5,2,3.3,2,5.5C266.1,40.4,266.1,40.8,266,41.1z M254.6,38.9h8c-0.1-1.1-0.5-2.1-1.2-2.9c-0.7-0.8-1.6-1.2-2.7-1.2
	c-1.2,0-2.1,0.4-2.9,1.2C255.1,36.7,254.7,37.7,254.6,38.9z M256.3,30.4l2.7-4.3h4.1l-4.3,4.3H256.3z M282.7,41.1h-11.4
	c0,1.3,0.3,2.4,1,3.2c0.7,0.9,1.8,1.4,3.1,1.4c1.9,0,3.2-0.9,3.8-2.6h3.2c-0.4,1.7-1.2,3-2.5,3.9c-1.3,0.9-2.8,1.4-4.5,1.4
	c-2.4,0-4.2-0.8-5.6-2.2s-2-3.5-2-5.9c0-2.3,0.7-4.2,2-5.8c1.4-1.6,3.2-2.4,5.5-2.4c2.2,0,4,0.8,5.4,2.4c1.3,1.5,2,3.3,2,5.5
	C282.8,40.4,282.7,40.8,282.7,41.1z M271.3,38.9h8c-0.1-1.1-0.5-2.1-1.2-2.9c-0.7-0.8-1.6-1.2-2.7-1.2c-1.2,0-2.1,0.4-2.9,1.2
	C271.7,36.7,271.3,37.7,271.3,38.9z M296.7,33.4h-3.4c0-2.2,0.6-4,1.9-5.3c1.3-1.3,3.1-2,5.3-2c1.9,0,3.5,0.5,4.7,1.6
	c1.2,1.1,1.9,2.6,1.9,4.4c0,1.2-0.3,2.3-0.8,3.1c-0.3,0.5-0.9,1.1-1.8,1.9c-1,0.8-1.6,1.5-1.9,2c-0.5,0.8-0.8,1.8-0.8,3.1h-3.2
	c0-1.7,0.2-2.9,0.6-3.8c0.3-0.8,0.9-1.5,1.8-2.2c0.9-0.8,1.5-1.3,1.7-1.6c0.5-0.6,0.7-1.4,0.7-2.2c0-1.1-0.4-2-1.1-2.6
	c-0.6-0.5-1.2-0.8-1.9-0.8C298,28.9,296.7,30.4,296.7,33.4z M298.1,48v-3.8h4V48H298.1z M160.2,75.3V61.6h3.8v12.5
	c0,1.9,0.2,3.3,0.7,4.2c0.7,1.4,2.2,2,4.4,2s3.6-0.7,4.4-2c0.5-0.8,0.7-2.2,0.7-4.2V61.6h3.8v13.7c0,2.7-0.8,4.7-2.4,6.2
	c-1.5,1.4-3.7,2-6.4,2s-4.8-0.7-6.4-2C161.1,80,160.2,78,160.2,75.3z M181.6,83V67.5h3.2v2.3l0.1,0.1c1.1-1.8,2.7-2.8,4.8-2.8
	c1.7,0,3.1,0.4,4,1.3c1,0.9,1.5,2.2,1.5,3.9V83h-3.4v-9.8c0-2.3-1-3.5-3-3.5c-1.1,0-2,0.4-2.7,1.2c-0.7,0.8-1,1.8-1,2.9V83H181.6z
	 M219.3,75.3c0-1.5-0.4-2.8-1.1-3.8c-0.8-1.1-1.9-1.7-3.2-1.7c-1.4,0-2.5,0.5-3.2,1.5c-0.7,1-1.1,2.3-1.1,4c0,1.6,0.4,2.9,1.2,3.9
	c0.8,1,1.8,1.5,3.2,1.5c1.4,0,2.6-0.6,3.3-1.7C218.9,78,219.3,76.8,219.3,75.3z M207.3,88.7V67.5h3.2v2.1h0.1
	c0.9-1.7,2.5-2.5,4.8-2.5c2.3,0,4.2,0.8,5.5,2.4c1.2,1.5,1.8,3.4,1.8,5.8c0,2.3-0.5,4.1-1.6,5.6c-1.2,1.7-2.9,2.5-5.1,2.5
	c-2.4,0-4.2-0.8-5.2-2.4h-0.1v7.7H207.3z M225.6,83V67.5h3.2v3h0.1c0.2-0.9,0.8-1.6,1.6-2.3c0.9-0.7,1.9-1.1,2.9-1.1
	c0.3,0,0.7,0,1.3,0.1v3.3c-0.8-0.1-1.3-0.2-1.5-0.2c-1.2,0-2.2,0.5-3,1.4c-0.8,1-1.2,2.3-1.2,3.9V83H225.6z M243.2,80.7
	c1.4,0,2.6-0.6,3.4-1.7c0.7-1,1.1-2.2,1.1-3.8c0-1.5-0.3-2.7-1.1-3.7c-0.8-1.2-1.9-1.7-3.4-1.7c-1.4,0-2.6,0.6-3.4,1.7
	c-0.7,1-1.1,2.2-1.1,3.7c0,1.5,0.3,2.8,1.1,3.8C240.7,80.1,241.8,80.7,243.2,80.7z M243.2,83.4c-2.4,0-4.4-0.8-5.8-2.3
	c-1.4-1.5-2-3.4-2-5.9c0-2.4,0.7-4.4,2.1-5.9c1.4-1.5,3.3-2.3,5.8-2.3c2.4,0,4.4,0.8,5.8,2.3c1.4,1.5,2,3.4,2,5.9
	c0,2.4-0.7,4.4-2,5.9C247.6,82.7,245.7,83.4,243.2,83.4z M254,84.2V67.5h3.4v16.8c0,3.2-1.5,4.8-4.4,4.8c-0.4,0-0.9,0-1.5-0.1v-2.7
	c0.6,0.1,1,0.1,1.2,0.1c0.6,0,1-0.2,1.2-0.6C253.9,85.6,254,85,254,84.2z M254,64.8v-3.2h3.4v3.2H254z M275.2,76.1h-11.4
	c0,1.3,0.3,2.4,1,3.2c0.7,0.9,1.8,1.4,3.1,1.4c1.9,0,3.2-0.9,3.8-2.6h3.2c-0.4,1.7-1.2,3-2.5,3.9c-1.3,0.9-2.8,1.4-4.5,1.4
	c-2.4,0-4.2-0.8-5.6-2.2s-2-3.5-2-5.9c0-2.3,0.7-4.2,2-5.8c1.4-1.6,3.2-2.4,5.5-2.4c2.2,0,4,0.8,5.4,2.4c1.3,1.5,2,3.3,2,5.5
	C275.3,75.4,275.2,75.8,275.2,76.1z M263.8,73.9h8c-0.1-1.1-0.5-2.1-1.2-2.9c-0.7-0.8-1.6-1.2-2.7-1.2c-1.2,0-2.1,0.4-2.9,1.2
	C264.2,71.7,263.8,72.7,263.8,73.9z M276.2,70v-2.6h2.6v-4.6h3.4v4.6h3.1V70h-3.1v8.3c0,0.8,0.1,1.3,0.2,1.6
	c0.2,0.4,0.7,0.5,1.4,0.5c0.6,0,1.1,0,1.4-0.1V83c-1.5,0.1-2.2,0.2-2.2,0.2c-1.7,0-2.8-0.3-3.5-1c-0.5-0.6-0.8-1.5-0.8-2.9V70H276.2
	z M299.2,68.4h-3.4c0-2.2,0.6-4,1.9-5.3c1.3-1.3,3.1-2,5.3-2c1.9,0,3.5,0.5,4.7,1.6c1.2,1.1,1.9,2.6,1.9,4.4c0,1.2-0.3,2.3-0.8,3.1
	c-0.3,0.5-0.9,1.1-1.8,1.9c-1,0.8-1.6,1.4-1.9,1.9c-0.5,0.8-0.8,1.8-0.8,3.1H301c0-1.7,0.2-2.9,0.6-3.8c0.3-0.8,0.9-1.5,1.8-2.2
	c0.9-0.8,1.5-1.3,1.7-1.6c0.5-0.6,0.7-1.4,0.7-2.2c0-1.1-0.4-2-1-2.6c-0.6-0.5-1.2-0.8-1.9-0.8C300.4,63.9,299.2,65.4,299.2,68.4z
	 M300.6,83v-3.8h4V83H300.6z M175,110.3V96.6h3.8v12.5c0,1.9,0.2,3.3,0.7,4.2c0.7,1.4,2.2,2,4.4,2c2.2,0,3.6-0.7,4.3-2
	c0.5-0.8,0.7-2.2,0.7-4.2V96.6h3.8v13.7c0,2.7-0.8,4.7-2.4,6.2c-1.5,1.4-3.7,2-6.4,2c-2.7,0-4.8-0.7-6.4-2
	C175.8,115,175,113,175,110.3z M196.4,118v-15.5h3.2v2.3l0.1,0.1c1.1-1.8,2.7-2.8,4.8-2.8c1.7,0,3.1,0.4,4,1.3
	c1,0.9,1.5,2.2,1.5,3.9V118h-3.4v-9.8c0-2.3-1-3.5-3-3.5c-1.1,0-2,0.4-2.7,1.2c-0.7,0.8-1,1.8-1,2.9v9.2H196.4z M222,118v-15.5h3.2
	v3h0.1c0.2-0.9,0.8-1.6,1.7-2.3c0.9-0.7,1.9-1.1,2.9-1.1c0.3,0,0.7,0,1.3,0.1v3.3c-0.8-0.1-1.3-0.2-1.5-0.2c-1.2,0-2.2,0.5-3,1.4
	c-0.8,1-1.2,2.3-1.2,3.9v7.4H222z M246.6,111.1h-11.4c0,1.3,0.3,2.4,1,3.2c0.7,0.9,1.8,1.4,3.1,1.4c1.9,0,3.2-0.9,3.8-2.6h3.2
	c-0.4,1.7-1.2,3-2.5,3.9c-1.3,0.9-2.8,1.4-4.5,1.4c-2.4,0-4.2-0.8-5.6-2.2s-2-3.5-2-5.9c0-2.3,0.7-4.2,2-5.8
	c1.4-1.6,3.2-2.4,5.5-2.4c2.2,0,4,0.8,5.4,2.4c1.3,1.5,2,3.3,2,5.5C246.6,110.4,246.6,110.8,246.6,111.1z M235.2,108.9h8
	c-0.1-1.1-0.4-2.1-1.2-2.9c-0.7-0.8-1.6-1.2-2.7-1.2c-1.2,0-2.1,0.4-2.9,1.2C235.6,106.7,235.2,107.7,235.2,108.9z M239,97.7
	l-2.1,2.7h-2.8l3.2-4.3h3.3l3.2,4.3h-2.8L239,97.7z M253.3,118l-5.6-15.5h3.7l3.9,11.9h0.1l3.8-11.9h3.5l-5.5,15.5H253.3z
	 M278.8,111.1h-11.4c0,1.3,0.3,2.4,1,3.2c0.7,0.9,1.8,1.4,3.1,1.4c1.9,0,3.2-0.9,3.8-2.6h3.2c-0.4,1.7-1.2,3-2.5,3.9
	c-1.3,0.9-2.8,1.4-4.5,1.4c-2.4,0-4.2-0.8-5.6-2.2s-2-3.5-2-5.9c0-2.3,0.7-4.2,2-5.8c1.4-1.6,3.2-2.4,5.5-2.4c2.2,0,4,0.8,5.4,2.4
	c1.3,1.5,2,3.3,2,5.5C278.9,110.4,278.8,110.8,278.8,111.1z M267.4,108.9h8c-0.1-1.1-0.4-2.1-1.2-2.9c-0.7-0.8-1.6-1.2-2.7-1.2
	c-1.2,0-2.1,0.4-2.9,1.2C267.8,106.7,267.4,107.7,267.4,108.9z M292.8,103.4h-3.4c0-2.2,0.6-4,1.9-5.3c1.3-1.3,3.1-2,5.3-2
	c1.9,0,3.5,0.5,4.7,1.6c1.2,1.1,1.9,2.6,1.9,4.4c0,1.2-0.3,2.3-0.8,3.1c-0.3,0.5-0.9,1.1-1.8,1.9c-1,0.8-1.6,1.4-1.9,1.9
	c-0.5,0.8-0.8,1.8-0.8,3.1h-3.2c0-1.7,0.2-2.9,0.6-3.8c0.3-0.8,0.9-1.5,1.8-2.2c0.9-0.8,1.5-1.3,1.7-1.6c0.5-0.6,0.7-1.4,0.7-2.2
	c0-1.1-0.4-2-1.1-2.6c-0.6-0.5-1.2-0.8-1.9-0.8C294.1,98.9,292.8,100.4,292.8,103.4z M294.2,118v-3.8h4v3.8H294.2z"/>
<path class="st0" d="M832.8,304.6h405v0c39.9-0.2,72.2-32.7,72.2-72.6c0-40-32.3-72.4-72.2-72.6v0h-0.2c-0.1,0-0.2,0-0.3,0
	c-0.1,0-0.2,0-0.3,0H833.9c20.9,17.1,34.2,43.1,34.2,72.2C868.1,261.1,854.3,287.5,832.8,304.6z"/>
<path class="st1" d="M939.5,210.4h-3.8c-0.7-2.8-2.5-4.3-5.3-4.3c-2.1,0-3.8,0.8-5,2.5c-1,1.5-1.5,3.4-1.5,5.6
	c0,2.3,0.5,4.1,1.5,5.6c1.2,1.7,2.8,2.6,5,2.6c1.6,0,2.9-0.6,3.9-1.6c0.9-1,1.4-2.3,1.6-4h3.7c-0.2,2.6-1.1,4.7-2.8,6.3
	c-1.7,1.6-3.8,2.4-6.4,2.4c-3.1,0-5.6-1.1-7.5-3.3c-1.8-2.1-2.7-4.7-2.7-7.9c0-3.2,0.9-5.8,2.7-7.9c1.9-2.2,4.4-3.3,7.5-3.3
	c2.5,0,4.5,0.6,6.2,1.9C938.3,206.3,939.3,208.1,939.5,210.4z M949.5,222.7c1.4,0,2.6-0.6,3.4-1.7c0.7-1,1-2.2,1-3.8
	c0-1.5-0.3-2.7-1-3.7c-0.8-1.2-1.9-1.7-3.4-1.7c-1.4,0-2.6,0.6-3.4,1.7c-0.7,1-1,2.2-1,3.7c0,1.5,0.3,2.8,1,3.8
	C947,222.1,948.1,222.7,949.5,222.7z M949.5,225.4c-2.4,0-4.4-0.8-5.8-2.3c-1.4-1.5-2-3.4-2-5.9c0-2.4,0.7-4.4,2.1-5.9
	c1.4-1.5,3.3-2.3,5.8-2.3c2.4,0,4.4,0.8,5.8,2.3c1.4,1.5,2,3.4,2,5.8c0,2.4-0.7,4.4-2,5.9C953.9,224.6,952,225.4,949.5,225.4z
	 M960.2,225v-15.5h3.2v2.3l0.1,0.1c1.1-1.8,2.7-2.8,4.8-2.8c1.7,0,3.1,0.4,4,1.3c1,0.9,1.5,2.2,1.5,3.9V225h-3.4v-9.8
	c0-2.3-1-3.5-3-3.5c-1.1,0-2,0.4-2.7,1.2c-0.7,0.8-1,1.8-1,2.9v9.1H960.2z M975.9,212v-2.5h2.6v-4.7h3.4v4.7h3.1v2.5h-3.1v8.3
	c0,0.8,0.1,1.3,0.2,1.6c0.2,0.4,0.7,0.5,1.4,0.5c0.6,0,1.1,0,1.4-0.1v2.6c-1.5,0.1-2.2,0.2-2.2,0.2c-1.7,0-2.8-0.3-3.5-1
	c-0.5-0.6-0.8-1.5-0.8-2.9V212H975.9z M997,219.8v-2.6c-0.4,0.3-1.1,0.5-1.9,0.6c-0.8,0.1-1.5,0.2-2.3,0.3c-1.9,0.3-2.8,1.2-2.8,2.6
	c0,0.7,0.4,1.2,1.1,1.6c0.6,0.3,1.2,0.4,2,0.4c0.9,0,1.8-0.2,2.5-0.7C996.6,221.5,997,220.8,997,219.8z M1000.4,213.6v8
	c0,0.8,0.3,1.2,0.8,1.2c0.3,0,0.6,0,0.8-0.1v2.4c-0.7,0.3-1.5,0.4-2.2,0.4c-1.5,0-2.4-0.6-2.6-1.9c-1.3,1.3-3.1,1.9-5.4,1.9
	c-1.5,0-2.7-0.4-3.7-1.1c-1.1-0.8-1.6-1.9-1.6-3.4c0-1.7,0.6-3,1.9-3.7c0.8-0.5,2.1-0.8,4-1.1c2.2-0.3,3.2-0.5,3.2-0.5
	c0.9-0.3,1.4-0.9,1.4-1.7c0-1.4-1.1-2.1-3.2-2.1s-3.3,0.8-3.4,2.5h-3.4c0.2-3.4,2.5-5.2,7-5.2c1.7,0,3.1,0.3,4.2,1
	C999.8,210.9,1000.4,212.1,1000.4,213.6z M1018,214.7h-3.4c-0.3-1.9-1.5-2.9-3.5-2.9c-1.1,0-2.1,0.3-2.8,1.1c-1,1-1.5,2.5-1.5,4.6
	c0,1.5,0.3,2.7,0.9,3.6c0.7,1.1,1.8,1.7,3.2,1.7c1,0,1.8-0.3,2.5-0.9c0.7-0.6,1.1-1.5,1.2-2.6h3.4c-0.7,4.2-3,6.2-7.1,6.2
	c-2.4,0-4.2-0.8-5.6-2.3c-1.3-1.4-2-3.3-2-5.7c0-2.5,0.6-4.4,1.9-5.9c1.4-1.6,3.3-2.4,5.7-2.4c1.9,0,3.5,0.5,4.7,1.4
	C1017.1,211.4,1017.8,212.9,1018,214.7z M1019.2,212v-2.5h2.6v-4.7h3.4v4.7h3.1v2.5h-3.1v8.3c0,0.8,0.1,1.3,0.2,1.6
	c0.2,0.4,0.7,0.5,1.4,0.5c0.6,0,1.1,0,1.4-0.1v2.6c-1.5,0.1-2.2,0.2-2.2,0.2c-1.7,0-2.8-0.3-3.5-1c-0.5-0.6-0.8-1.5-0.8-2.9V212
	H1019.2z M1044.8,218.1h-11.4c0,1.3,0.3,2.4,1,3.2c0.7,0.9,1.8,1.4,3.2,1.4c1.9,0,3.2-0.9,3.8-2.6h3.2c-0.4,1.7-1.2,3-2.5,3.9
	c-1.3,0.9-2.8,1.4-4.5,1.4c-2.4,0-4.2-0.8-5.6-2.2s-2-3.5-2-5.9c0-2.3,0.7-4.2,2-5.8c1.4-1.6,3.2-2.4,5.5-2.4c2.2,0,4,0.8,5.4,2.4
	c1.3,1.5,2,3.3,2,5.5C1044.9,217.4,1044.9,217.8,1044.8,218.1z M1033.4,215.9h8c-0.1-1.1-0.5-2.1-1.2-2.9c-0.7-0.8-1.6-1.2-2.7-1.2
	c-1.2,0-2.1,0.4-2.9,1.2S1033.5,214.7,1033.4,215.9z M1046.9,212.2v-2.7h12.6v2.4l-8.9,10.4h9.3v2.7h-13.6v-2.4l8.6-10.4H1046.9z
	 M1062.1,218.5v-3.2h8.7v3.2H1062.1z M1074.1,225v-15.5h3.2v2.3l0.1,0.1c1.1-1.8,2.7-2.8,4.8-2.8c1.7,0,3.1,0.4,4,1.3
	c1,0.9,1.5,2.2,1.5,3.9V225h-3.4v-9.8c0-2.3-1-3.5-3-3.5c-1.1,0-2,0.4-2.7,1.2c-0.7,0.8-1,1.8-1,2.9v9.1H1074.1z M1098.4,222.7
	c1.4,0,2.6-0.6,3.4-1.7c0.7-1,1-2.2,1-3.8c0-1.5-0.3-2.7-1-3.7c-0.8-1.2-1.9-1.7-3.4-1.7c-1.4,0-2.6,0.6-3.4,1.7c-0.7,1-1,2.2-1,3.7
	c0,1.5,0.3,2.8,1,3.8C1095.9,222.1,1097,222.7,1098.4,222.7z M1098.4,225.4c-2.4,0-4.4-0.8-5.8-2.3c-1.4-1.5-2-3.4-2-5.9
	c0-2.4,0.7-4.4,2.1-5.9c1.4-1.5,3.3-2.3,5.8-2.3c2.4,0,4.4,0.8,5.8,2.3c1.4,1.5,2,3.4,2,5.8c0,2.4-0.7,4.4-2,5.9
	C1102.8,224.6,1100.9,225.4,1098.4,225.4z M1122.7,209.5V225h-3.4v-2.2h-0.1c-0.4,0.8-1.1,1.4-1.9,1.9c-0.8,0.5-1.7,0.7-2.5,0.7
	c-3.9,0-5.8-2-5.8-6.1v-9.8h3.4v9.5c0,2.5,1,3.7,3,3.7c2.5,0,3.8-1.4,3.8-4.2v-9H1122.7z M1125.5,220h3.4c0.2,1.8,1.3,2.7,3.5,2.7
	c2.4,0,3.5-0.7,3.4-2c0-1-0.9-1.6-2.7-2.1c-2.9-0.7-4.5-1.1-4.8-1.3c-1.7-0.8-2.6-2-2.6-3.8c0-1.5,0.7-2.7,2.2-3.5
	c1.2-0.6,2.6-1,4.3-1c1.7,0,3.2,0.4,4.3,1.1c1.3,0.8,2,2.1,2.2,3.7h-3.6c-0.3-1.4-1.3-2.1-3.1-2.1c-1.9,0-2.8,0.5-2.8,1.6
	c0,0.7,0.5,1.3,1.6,1.6c0.2,0.1,1.4,0.4,3.5,0.8c1.6,0.4,2.7,0.8,3.4,1.3c1,0.8,1.6,1.8,1.6,3.2c0,1.7-0.8,3-2.2,3.9
	c-1.3,0.8-2.8,1.1-4.7,1.1c-2,0-3.7-0.4-4.9-1.3C1126.2,223.1,1125.5,221.8,1125.5,220z M1142.2,225v-4.1h4.2v4.1
	c0,1.2-0.4,2.2-1.1,3.1c-0.7,0.9-1.7,1.4-2.9,1.7v-1.8c0.6-0.2,1.1-0.5,1.5-1.1c0.3-0.5,0.5-1.2,0.5-1.8H1142.2z M1158.6,225v-15.5
	h3.2v2.3l0.1,0.1c1.1-1.8,2.7-2.8,4.8-2.8c1.7,0,3.1,0.4,4,1.3c1,0.9,1.5,2.2,1.5,3.9V225h-3.4v-9.8c0-2.3-1-3.5-3-3.5
	c-1.1,0-2,0.4-2.7,1.2c-0.7,0.8-1,1.8-1,2.9v9.1H1158.6z M1182.9,222.7c1.4,0,2.6-0.6,3.4-1.7c0.7-1,1-2.2,1-3.8
	c0-1.5-0.3-2.7-1-3.7c-0.8-1.2-1.9-1.7-3.4-1.7c-1.4,0-2.6,0.6-3.4,1.7c-0.7,1-1.1,2.2-1.1,3.7c0,1.5,0.3,2.8,1.1,3.8
	C1180.4,222.1,1181.5,222.7,1182.9,222.7z M1182.9,225.4c-2.4,0-4.4-0.8-5.8-2.3c-1.4-1.5-2-3.4-2-5.9c0-2.4,0.7-4.4,2.1-5.9
	c1.4-1.5,3.3-2.3,5.8-2.3c2.4,0,4.4,0.8,5.8,2.3c1.4,1.5,2,3.4,2,5.8c0,2.4-0.7,4.4-2,5.9C1187.3,224.6,1185.4,225.4,1182.9,225.4z
	 M1207.2,209.5V225h-3.4v-2.2h-0.1c-0.4,0.8-1.1,1.4-1.9,1.9c-0.8,0.5-1.7,0.7-2.5,0.7c-3.9,0-5.8-2-5.8-6.1v-9.8h3.4v9.5
	c0,2.5,1,3.7,3,3.7c2.5,0,3.8-1.4,3.8-4.2v-9H1207.2z M1210,220h3.4c0.2,1.8,1.3,2.7,3.5,2.7c2.4,0,3.5-0.7,3.4-2
	c0-1-0.9-1.6-2.7-2.1c-2.9-0.7-4.5-1.1-4.8-1.3c-1.7-0.8-2.6-2-2.6-3.8c0-1.5,0.7-2.7,2.2-3.5c1.2-0.6,2.6-1,4.3-1
	c1.7,0,3.2,0.4,4.3,1.1c1.3,0.8,2,2.1,2.2,3.7h-3.6c-0.3-1.4-1.3-2.1-3.1-2.1c-1.9,0-2.8,0.5-2.8,1.6c0,0.7,0.5,1.3,1.6,1.6
	c0.2,0.1,1.4,0.4,3.5,0.8c1.6,0.4,2.7,0.8,3.4,1.3c1,0.8,1.6,1.8,1.6,3.2c0,1.7-0.8,3-2.2,3.9c-1.3,0.8-2.8,1.1-4.7,1.1
	c-2,0-3.7-0.4-4.9-1.3C1210.7,223.1,1210,221.8,1210,220z M945.6,252.3c0-1.5-0.4-2.8-1.1-3.8c-0.8-1.1-1.9-1.7-3.2-1.7
	c-1.4,0-2.5,0.5-3.2,1.5c-0.7,1-1.1,2.3-1.1,4c0,1.6,0.4,2.9,1.2,3.9c0.8,1,1.8,1.5,3.2,1.5c1.4,0,2.5-0.6,3.3-1.7
	C945.2,255,945.6,253.8,945.6,252.3z M933.6,265.7v-21.2h3.2v2.1h0.1c0.9-1.7,2.5-2.5,4.8-2.5c2.3,0,4.2,0.8,5.5,2.4
	c1.2,1.5,1.8,3.4,1.8,5.8c0,2.3-0.5,4.1-1.6,5.6c-1.2,1.7-2.9,2.5-5.1,2.5c-2.4,0-4.2-0.8-5.2-2.4H937v7.7H933.6z M959,257.7
	c1.4,0,2.6-0.6,3.4-1.7c0.7-1,1.1-2.2,1.1-3.8c0-1.5-0.4-2.7-1.1-3.7c-0.8-1.2-1.9-1.7-3.4-1.7s-2.6,0.6-3.4,1.7c-0.7,1-1,2.2-1,3.7
	c0,1.5,0.3,2.8,1,3.8C956.4,257.1,957.5,257.7,959,257.7z M959,260.4c-2.4,0-4.4-0.8-5.8-2.3c-1.4-1.5-2-3.4-2-5.9
	c0-2.4,0.7-4.4,2.1-5.9c1.4-1.5,3.3-2.3,5.8-2.3s4.4,0.8,5.8,2.3c1.4,1.5,2,3.4,2,5.8c0,2.4-0.7,4.4-2,5.9
	C963.3,259.6,961.4,260.4,959,260.4z M983.3,244.5V260h-3.4v-2.2h-0.1c-0.4,0.8-1,1.4-1.9,1.9c-0.8,0.5-1.7,0.7-2.5,0.7
	c-3.9,0-5.8-2-5.8-6.1v-9.8h3.4v9.5c0,2.5,1,3.7,3,3.7c2.5,0,3.8-1.4,3.8-4.2v-9H983.3z M991,260l-5.6-15.5h3.7l3.9,11.9h0.1
	l3.8-11.9h3.5l-5.6,15.5H991z M1009.5,257.7c1.4,0,2.6-0.6,3.4-1.7c0.7-1,1-2.2,1-3.8c0-1.5-0.4-2.7-1-3.7c-0.8-1.2-1.9-1.7-3.4-1.7
	s-2.6,0.6-3.4,1.7c-0.7,1-1,2.2-1,3.7c0,1.5,0.3,2.8,1,3.8C1007,257.1,1008.1,257.7,1009.5,257.7z M1009.5,260.4
	c-2.4,0-4.4-0.8-5.8-2.3c-1.4-1.5-2-3.4-2-5.9c0-2.4,0.7-4.4,2.1-5.9c1.4-1.5,3.3-2.3,5.8-2.3s4.4,0.8,5.8,2.3c1.4,1.5,2,3.4,2,5.8
	c0,2.4-0.7,4.4-2,5.9C1013.9,259.6,1012,260.4,1009.5,260.4z M1020.2,260v-15.5h3.2v2.3l0.1,0.1c1.1-1.8,2.7-2.8,4.8-2.8
	c1.7,0,3.1,0.4,4,1.3c1,0.9,1.5,2.2,1.5,3.9V260h-3.4v-9.8c0-2.3-1-3.5-3-3.5c-1.1,0-2,0.4-2.7,1.2c-0.7,0.8-1,1.8-1,2.9v9.1H1020.2
	z M1036.6,255h3.4c0.2,1.8,1.3,2.7,3.5,2.7c2.4,0,3.5-0.7,3.4-2c0-1-0.9-1.6-2.7-2.1c-2.9-0.7-4.5-1.1-4.8-1.3
	c-1.7-0.8-2.6-2-2.6-3.8c0-1.5,0.7-2.7,2.2-3.5c1.2-0.6,2.6-1,4.3-1c1.7,0,3.2,0.4,4.3,1.1c1.3,0.8,2,2.1,2.2,3.7h-3.6
	c-0.3-1.4-1.3-2.1-3.1-2.1c-1.9,0-2.8,0.5-2.8,1.6c0,0.7,0.5,1.3,1.6,1.6c0.2,0.1,1.4,0.4,3.5,0.8c1.6,0.4,2.7,0.8,3.4,1.3
	c1,0.8,1.6,1.8,1.6,3.2c0,1.7-0.8,3-2.2,3.9c-1.3,0.8-2.8,1.1-4.7,1.1c-2,0-3.7-0.4-4.9-1.3C1037.3,258.1,1036.6,256.8,1036.6,255z
	 M1065.5,260l-5.6-15.5h3.7l3.9,11.9h0.1l3.8-11.9h3.5l-5.5,15.5H1065.5z M1084,257.7c1.4,0,2.6-0.6,3.4-1.7c0.7-1,1.1-2.2,1.1-3.8
	c0-1.5-0.4-2.7-1.1-3.7c-0.8-1.2-1.9-1.7-3.4-1.7c-1.4,0-2.6,0.6-3.4,1.7c-0.7,1-1.1,2.2-1.1,3.7c0,1.5,0.3,2.8,1.1,3.8
	C1081.5,257.1,1082.6,257.7,1084,257.7z M1084,260.4c-2.4,0-4.4-0.8-5.8-2.3c-1.4-1.5-2-3.4-2-5.9c0-2.4,0.7-4.4,2.1-5.9
	c1.4-1.5,3.3-2.3,5.8-2.3c2.4,0,4.4,0.8,5.8,2.3c1.4,1.5,2,3.4,2,5.8c0,2.4-0.7,4.4-2,5.9C1088.4,259.6,1086.5,260.4,1084,260.4z
	 M1108.3,244.5V260h-3.4v-2.2h-0.1c-0.4,0.8-1.1,1.4-1.9,1.9c-0.8,0.5-1.7,0.7-2.5,0.7c-3.9,0-5.8-2-5.8-6.1v-9.8h3.4v9.5
	c0,2.5,1,3.7,3,3.7c2.5,0,3.8-1.4,3.8-4.2v-9H1108.3z M1111.1,255h3.4c0.2,1.8,1.3,2.7,3.5,2.7c2.4,0,3.5-0.7,3.4-2
	c0-1-0.9-1.6-2.7-2.1c-2.9-0.7-4.5-1.1-4.8-1.3c-1.7-0.8-2.6-2-2.6-3.8c0-1.5,0.7-2.7,2.2-3.5c1.2-0.6,2.6-1,4.3-1
	c1.7,0,3.2,0.4,4.3,1.1c1.3,0.8,2,2.1,2.2,3.7h-3.6c-0.3-1.4-1.3-2.1-3.2-2.1c-1.9,0-2.8,0.5-2.8,1.6c0,0.7,0.5,1.3,1.6,1.6
	c0.2,0.1,1.3,0.4,3.4,0.8c1.6,0.4,2.7,0.8,3.4,1.3c1,0.8,1.6,1.8,1.6,3.2c0,1.7-0.8,3-2.2,3.9c-1.3,0.8-2.8,1.1-4.7,1.1
	c-2,0-3.7-0.4-4.9-1.3C1111.8,258.1,1111.1,256.8,1111.1,255z M1145.4,254.8v-2.6c-0.4,0.3-1.1,0.5-1.9,0.6
	c-0.8,0.1-1.5,0.2-2.3,0.3c-1.9,0.3-2.8,1.2-2.8,2.6c0,0.7,0.4,1.2,1.1,1.6c0.6,0.3,1.2,0.4,2,0.4c0.9,0,1.8-0.2,2.5-0.7
	C1144.9,256.5,1145.4,255.8,1145.4,254.8z M1148.8,248.6v8c0,0.8,0.3,1.2,0.8,1.2c0.3,0,0.6,0,0.8-0.1v2.4c-0.7,0.3-1.5,0.4-2.2,0.4
	c-1.5,0-2.4-0.6-2.6-1.9c-1.3,1.3-3.1,1.9-5.4,1.9c-1.5,0-2.7-0.4-3.7-1.1c-1.1-0.8-1.6-2-1.6-3.4c0-1.7,0.6-3,1.9-3.7
	c0.8-0.5,2.1-0.8,4-1.1c2.2-0.3,3.2-0.5,3.2-0.5c0.9-0.3,1.4-0.9,1.4-1.7c0-1.4-1.1-2.1-3.2-2.1s-3.3,0.8-3.4,2.5h-3.4
	c0.2-3.4,2.5-5.2,7-5.2c1.7,0,3.1,0.3,4.2,1C1148.2,245.9,1148.8,247.1,1148.8,248.6z M1152.6,260v-15.5h3.4V260H1152.6z
	 M1152.6,241.8v-3.2h3.4v3.2H1152.6z M1162.4,252.4c0,1.5,0.3,2.7,1,3.7c0.8,1.1,1.9,1.6,3.3,1.6c1.4,0,2.5-0.6,3.3-1.7
	c0.7-1,1-2.2,1-3.8c0-1.7-0.4-3-1.2-4c-0.8-1-1.8-1.5-3.1-1.5c-1.5,0-2.6,0.6-3.4,1.8C1162.7,249.5,1162.4,250.8,1162.4,252.4z
	 M1174.3,238.6V260h-3.2v-2.1h-0.1c-0.9,1.7-2.5,2.5-4.8,2.5c-2.4,0-4.2-0.8-5.5-2.4c-1.2-1.5-1.8-3.4-1.8-5.9
	c0-2.6,0.7-4.7,2.1-6.1c1.2-1.3,2.8-1.9,4.6-1.9c2.4,0,4.2,0.8,5.2,2.4h0.1v-7.9H1174.3z M1192.1,253.1h-11.4c0,1.3,0.3,2.4,1,3.2
	c0.7,0.9,1.8,1.4,3.2,1.4c1.9,0,3.2-0.9,3.8-2.6h3.2c-0.4,1.7-1.2,3-2.5,3.9c-1.3,0.9-2.8,1.4-4.5,1.4c-2.4,0-4.2-0.8-5.6-2.2
	c-1.3-1.5-2-3.5-2-5.9c0-2.3,0.7-4.2,2-5.8c1.4-1.6,3.2-2.4,5.5-2.4c2.2,0,4,0.8,5.4,2.4c1.3,1.5,2,3.3,2,5.5
	C1192.2,252.4,1192.2,252.8,1192.1,253.1z M1180.7,250.9h8c-0.1-1.1-0.4-2.1-1.2-2.9c-0.7-0.8-1.6-1.2-2.7-1.2
	c-1.2,0-2.1,0.4-2.9,1.2C1181.2,248.7,1180.8,249.7,1180.7,250.9z M1194.7,260v-15.5h3.2v3h0.1c0.2-0.9,0.8-1.6,1.7-2.3
	c0.9-0.7,1.9-1.1,2.9-1.1c0.3,0,0.7,0,1.3,0.1v3.3c-0.8-0.1-1.3-0.2-1.5-0.2c-1.2,0-2.2,0.5-3,1.4c-0.8,1-1.2,2.3-1.2,3.9v7.4
	H1194.7z M1205.6,260v-4.1h4.2v4.1H1205.6z"/>
<path class="st0" d="M477.2,318.7h-405v0C32.3,318.9,0,351.3,0,391.3c0,40,32.3,72.4,72.2,72.6v0h0.3h0.2h0.2h403.3
	c-20.9-17.1-34.2-43.1-34.2-72.2C442,362.1,455.7,335.8,477.2,318.7z"/>
<path class="st1" d="M88.9,366.3l-3.2,9.2h6.5L88.9,366.3L88.9,366.3z M78.8,384l8.2-21.4h4l8.2,21.4h-4l-2-5.7h-8.6l-2,5.7H78.8z
	 M100.8,384v-15.5h3.2v2.3l0.1,0.1c1.1-1.8,2.7-2.8,4.8-2.8c1.7,0,3.1,0.4,4,1.4c1,0.9,1.5,2.2,1.5,3.9V384H111v-9.8
	c0-2.3-1-3.5-3-3.5c-1.1,0-2,0.4-2.7,1.2c-0.7,0.8-1,1.8-1,2.9v9.1H100.8z M127.6,378.8v-2.5c-0.4,0.3-1.1,0.5-1.9,0.6
	c-0.8,0.1-1.5,0.2-2.3,0.3c-1.9,0.3-2.8,1.2-2.8,2.6c0,0.7,0.4,1.2,1.1,1.6c0.6,0.3,1.2,0.4,2,0.4c0.9,0,1.8-0.2,2.5-0.7
	C127.2,380.5,127.6,379.8,127.6,378.8z M131,372.6v8c0,0.8,0.3,1.2,0.8,1.2c0.3,0,0.6,0,0.8-0.1v2.4c-0.7,0.3-1.5,0.4-2.2,0.4
	c-1.5,0-2.4-0.6-2.6-1.9c-1.3,1.3-3.1,1.9-5.4,1.9c-1.5,0-2.7-0.4-3.7-1.1c-1.1-0.8-1.6-2-1.6-3.4c0-1.7,0.6-3,1.9-3.7
	c0.8-0.5,2.1-0.8,4.1-1.1c2.2-0.3,3.2-0.5,3.2-0.5c0.9-0.3,1.4-0.8,1.4-1.7c0-1.4-1.1-2.1-3.2-2.1s-3.3,0.8-3.4,2.5h-3.4
	c0.2-3.4,2.5-5.2,7-5.2c1.7,0,3.1,0.3,4.2,1C130.4,369.9,131,371,131,372.6z M134.8,384v-21.4h3.4V384H134.8z M146.1,383.9
	l-5.9-15.5h3.8l4.1,11.6h0.1l3.9-11.6h3.6l-6,16.4c-0.7,1.8-1.3,3.1-1.8,3.7c-0.9,1.1-2.1,1.6-3.7,1.6c-0.8,0-1.6-0.1-2.4-0.2v-2.9
	c0.8,0.1,1.4,0.2,1.6,0.2c0.7,0,1.3-0.2,1.7-0.6c0.3-0.3,0.5-0.8,0.8-1.6L146.1,383.9z M156.7,379h3.4c0.2,1.8,1.3,2.7,3.5,2.7
	c2.4,0,3.5-0.7,3.4-2c0-1-0.9-1.6-2.7-2.1c-2.9-0.7-4.5-1.1-4.8-1.3c-1.7-0.8-2.6-2-2.6-3.8c0-1.5,0.7-2.7,2.2-3.5
	c1.2-0.6,2.6-1,4.3-1c1.7,0,3.2,0.4,4.3,1.1c1.3,0.8,2,2.1,2.2,3.7h-3.6c-0.3-1.4-1.3-2.1-3.1-2.1c-1.9,0-2.8,0.5-2.8,1.6
	c0,0.7,0.5,1.3,1.6,1.7c0.2,0.1,1.4,0.4,3.5,0.8c1.6,0.4,2.7,0.8,3.4,1.3c1,0.8,1.6,1.8,1.6,3.2c0,1.7-0.8,3-2.2,3.9
	c-1.3,0.8-2.8,1.1-4.7,1.1c-2,0-3.7-0.4-4.9-1.3C157.3,382.1,156.7,380.8,156.7,379z M187.1,377.1h-11.4c0,1.3,0.3,2.4,1,3.2
	c0.7,0.9,1.8,1.4,3.2,1.4c1.9,0,3.2-0.9,3.8-2.6h3.2c-0.4,1.7-1.2,3-2.5,3.9c-1.3,0.9-2.8,1.4-4.5,1.4c-2.4,0-4.2-0.8-5.6-2.2
	c-1.3-1.5-2-3.5-2-5.9c0-2.3,0.7-4.2,2-5.8c1.4-1.6,3.2-2.4,5.5-2.4c2.2,0,4,0.8,5.4,2.4c1.3,1.5,2,3.3,2,5.5
	C187.2,376.4,187.2,376.8,187.1,377.1z M175.7,374.9h8c-0.1-1.1-0.4-2.1-1.2-2.9c-0.7-0.8-1.6-1.2-2.7-1.2c-1.2,0-2.1,0.4-2.9,1.2
	C176.2,372.7,175.8,373.7,175.7,374.9z M210.1,376.3c0-1.5-0.4-2.8-1.1-3.8c-0.8-1.1-1.9-1.7-3.2-1.7c-1.4,0-2.5,0.5-3.2,1.5
	c-0.7,1-1.1,2.3-1.1,4c0,1.6,0.4,2.9,1.2,3.9s1.8,1.5,3.2,1.5c1.4,0,2.5-0.6,3.3-1.7C209.8,379,210.1,377.8,210.1,376.3z
	 M198.2,389.7v-21.2h3.2v2.1h0.1c0.9-1.7,2.5-2.5,4.8-2.5c2.3,0,4.2,0.8,5.5,2.4c1.2,1.5,1.8,3.4,1.8,5.8c0,2.3-0.5,4.1-1.6,5.6
	c-1.2,1.7-2.9,2.5-5.1,2.5c-2.4,0-4.2-0.8-5.2-2.4h-0.1v7.7H198.2z M216.4,384v-15.5h3.2v3h0.1c0.2-0.9,0.8-1.6,1.6-2.3
	c0.9-0.7,1.9-1.1,2.9-1.1c0.3,0,0.7,0,1.3,0.1v3.3c-0.8-0.1-1.3-0.1-1.5-0.1c-1.2,0-2.2,0.5-3,1.4c-0.8,1-1.2,2.3-1.2,3.9v7.4H216.4
	z M241,377.1h-11.4c0,1.3,0.3,2.4,1,3.2c0.7,0.9,1.8,1.4,3.2,1.4c1.9,0,3.2-0.9,3.8-2.6h3.2c-0.4,1.7-1.2,3-2.5,3.9
	c-1.3,0.9-2.8,1.4-4.5,1.4c-2.4,0-4.2-0.8-5.6-2.2s-2-3.5-2-5.9c0-2.3,0.7-4.2,2-5.8c1.4-1.6,3.2-2.4,5.5-2.4c2.2,0,4,0.8,5.4,2.4
	c1.3,1.5,2,3.3,2,5.5C241.1,376.4,241.1,376.8,241,377.1z M229.6,374.9h8c-0.1-1.1-0.4-2.1-1.2-2.9c-0.7-0.8-1.6-1.2-2.7-1.2
	c-1.2,0-2.1,0.4-2.9,1.2C230.1,372.7,229.7,373.7,229.6,374.9z M231.2,366.4l2.7-4.3h4.1l-4.3,4.3H231.2z M257.5,373.7h-3.4
	c-0.3-1.9-1.5-2.9-3.5-2.9c-1.1,0-2.1,0.4-2.8,1.1c-1,1-1.5,2.5-1.5,4.6c0,1.5,0.3,2.7,0.9,3.6c0.7,1.1,1.8,1.7,3.2,1.7
	c1,0,1.8-0.3,2.5-0.9c0.7-0.6,1.1-1.5,1.2-2.6h3.4c-0.7,4.2-3,6.2-7.1,6.2c-2.4,0-4.2-0.8-5.6-2.3c-1.3-1.4-1.9-3.3-1.9-5.7
	c0-2.5,0.6-4.4,1.9-5.9c1.4-1.6,3.3-2.4,5.7-2.4c1.9,0,3.5,0.5,4.7,1.4C256.6,370.5,257.4,371.9,257.5,373.7z M260.4,384v-15.5h3.4
	V384H260.4z M260.4,365.8v-3.2h3.4v3.2H260.4z M266.7,379h3.4c0.2,1.8,1.3,2.7,3.5,2.7c2.4,0,3.5-0.7,3.5-2c0-1-0.9-1.6-2.7-2.1
	c-2.9-0.7-4.5-1.1-4.8-1.3c-1.7-0.8-2.6-2-2.6-3.8c0-1.5,0.7-2.7,2.2-3.5c1.2-0.6,2.6-1,4.3-1c1.7,0,3.2,0.4,4.3,1.1
	c1.3,0.8,2,2.1,2.2,3.7h-3.6c-0.3-1.4-1.3-2.1-3.1-2.1c-1.9,0-2.8,0.5-2.8,1.6c0,0.7,0.5,1.3,1.6,1.7c0.2,0.1,1.4,0.4,3.5,0.8
	c1.6,0.4,2.7,0.8,3.4,1.3c1,0.8,1.6,1.8,1.6,3.2c0,1.7-0.8,3-2.2,3.9c-1.3,0.8-2.8,1.1-4.7,1.1c-2,0-3.7-0.4-4.9-1.3
	C267.4,382.1,266.7,380.8,266.7,379z M297.2,377.1h-11.4c0,1.3,0.3,2.4,1,3.2c0.7,0.9,1.8,1.4,3.1,1.4c1.9,0,3.2-0.9,3.8-2.6h3.2
	c-0.4,1.7-1.2,3-2.5,3.9c-1.3,0.9-2.8,1.4-4.5,1.4c-2.4,0-4.2-0.8-5.6-2.2s-2-3.5-2-5.9c0-2.3,0.7-4.2,2-5.8
	c1.4-1.6,3.2-2.4,5.5-2.4c2.2,0,4,0.8,5.4,2.4c1.3,1.5,2,3.3,2,5.5C297.2,376.4,297.2,376.8,297.2,377.1z M285.8,374.9h8
	c-0.1-1.1-0.4-2.1-1.2-2.9c-0.7-0.8-1.6-1.2-2.7-1.2c-1.2,0-2.1,0.4-2.9,1.2C286.2,372.7,285.8,373.7,285.8,374.9z M310.8,376.4
	c0,1.5,0.3,2.7,1,3.7c0.8,1.1,1.9,1.6,3.3,1.6c1.4,0,2.5-0.6,3.3-1.7c0.7-1,1-2.2,1-3.8c0-1.7-0.4-3-1.2-4c-0.8-1-1.8-1.5-3.1-1.5
	c-1.5,0-2.6,0.6-3.4,1.8C311.1,373.5,310.8,374.8,310.8,376.4z M322.7,362.6V384h-3.2v-2.1h-0.1c-0.9,1.7-2.5,2.5-4.8,2.5
	c-2.4,0-4.2-0.8-5.5-2.4c-1.2-1.5-1.8-3.4-1.8-5.9c0-2.6,0.7-4.7,2.1-6.2c1.2-1.3,2.8-1.9,4.6-1.9c2.4,0,4.2,0.8,5.2,2.4h0.1v-7.9
	H322.7z M340.5,377.1h-11.4c0,1.3,0.3,2.4,1,3.2c0.7,0.9,1.8,1.4,3.1,1.4c1.9,0,3.2-0.9,3.8-2.6h3.2c-0.4,1.7-1.2,3-2.5,3.9
	c-1.3,0.9-2.8,1.4-4.5,1.4c-2.4,0-4.2-0.8-5.6-2.2s-2-3.5-2-5.9c0-2.3,0.7-4.2,2-5.8c1.4-1.6,3.2-2.4,5.5-2.4c2.2,0,4,0.8,5.4,2.4
	c1.3,1.5,2,3.3,2,5.5C340.6,376.4,340.6,376.8,340.5,377.1z M329.1,374.9h8c-0.1-1.1-0.5-2.1-1.2-2.9c-0.7-0.8-1.6-1.2-2.7-1.2
	c-1.2,0-2.1,0.4-2.9,1.2C329.6,372.7,329.2,373.7,329.1,374.9z M355.6,384l-5.6-15.5h3.7l3.9,11.9h0.1l3.8-11.9h3.5l-5.5,15.5H355.6
	z M374.1,381.7c1.4,0,2.6-0.6,3.4-1.7c0.7-1,1-2.2,1-3.8c0-1.5-0.3-2.7-1-3.7c-0.8-1.2-1.9-1.7-3.4-1.7c-1.4,0-2.6,0.6-3.4,1.7
	c-0.7,1-1,2.2-1,3.7c0,1.5,0.3,2.8,1,3.8C371.6,381.1,372.7,381.7,374.1,381.7z M374.1,384.4c-2.4,0-4.4-0.8-5.8-2.3
	c-1.4-1.5-2-3.4-2-5.9c0-2.4,0.7-4.4,2.1-5.9c1.4-1.5,3.3-2.3,5.8-2.3c2.4,0,4.4,0.8,5.8,2.3c1.4,1.5,2,3.4,2,5.9
	c0,2.4-0.7,4.4-2,5.9C378.5,383.6,376.6,384.4,374.1,384.4z M384,379h3.4c0.2,1.8,1.3,2.7,3.5,2.7c2.4,0,3.5-0.7,3.5-2
	c0-1-0.9-1.6-2.7-2.1c-2.9-0.7-4.5-1.1-4.8-1.3c-1.7-0.8-2.6-2-2.6-3.8c0-1.5,0.7-2.7,2.2-3.5c1.2-0.6,2.6-1,4.3-1
	c1.7,0,3.2,0.4,4.3,1.1c1.3,0.8,2,2.1,2.2,3.7h-3.6c-0.3-1.4-1.3-2.1-3.1-2.1c-1.9,0-2.8,0.5-2.8,1.6c0,0.7,0.5,1.3,1.6,1.7
	c0.2,0.1,1.4,0.4,3.5,0.8c1.6,0.4,2.7,0.8,3.5,1.3c1,0.8,1.6,1.8,1.6,3.2c0,1.7-0.8,3-2.2,3.9c-1.3,0.8-2.8,1.1-4.7,1.1
	c-2,0-3.7-0.4-4.9-1.3C384.7,382.1,384,380.8,384,379z M128.1,411.3c0-1.5-0.4-2.8-1.1-3.8c-0.8-1.1-1.9-1.7-3.2-1.7
	c-1.4,0-2.5,0.5-3.2,1.5c-0.7,1-1.1,2.3-1.1,4c0,1.6,0.4,2.9,1.2,3.9c0.8,1,1.8,1.5,3.2,1.5c1.4,0,2.6-0.6,3.3-1.7
	C127.8,414,128.1,412.8,128.1,411.3z M116.2,419v-21.4h3.4v7.9h0.1c0.5-0.7,1.1-1.3,2-1.8s1.7-0.7,2.6-0.7c2.3,0,4.2,0.8,5.5,2.4
	c1.2,1.5,1.8,3.4,1.8,5.8c0,2.3-0.5,4.1-1.6,5.6c-1.2,1.7-2.9,2.5-5.1,2.5c-2.7,0-4.5-0.9-5.4-2.6h-0.1v2.1H116.2z M148.5,412.1
	h-11.4c0,1.3,0.3,2.4,1,3.2c0.7,0.9,1.8,1.4,3.1,1.4c1.9,0,3.2-0.9,3.8-2.6h3.2c-0.4,1.7-1.2,3-2.5,3.9c-1.3,0.9-2.8,1.4-4.5,1.4
	c-2.4,0-4.2-0.8-5.6-2.2s-2-3.5-2-5.9c0-2.3,0.7-4.2,2-5.8c1.4-1.6,3.2-2.4,5.5-2.4c2.2,0,4,0.8,5.4,2.4c1.3,1.5,2,3.3,2,5.5
	C148.6,411.4,148.5,411.8,148.5,412.1z M137.1,409.9h8c-0.1-1.1-0.4-2.1-1.2-2.9c-0.7-0.8-1.6-1.2-2.7-1.2c-1.2,0-2.1,0.4-2.9,1.2
	S137.1,408.7,137.1,409.9z M150.3,414h3.4c0.2,1.8,1.3,2.7,3.5,2.7c2.4,0,3.5-0.7,3.4-2c0-1-0.9-1.6-2.7-2.1
	c-2.9-0.7-4.5-1.1-4.8-1.3c-1.7-0.8-2.6-2-2.6-3.8c0-1.5,0.7-2.7,2.2-3.5c1.2-0.6,2.6-1,4.3-1c1.7,0,3.2,0.4,4.3,1.1
	c1.3,0.8,2,2.1,2.2,3.7H160c-0.3-1.4-1.3-2.1-3.2-2.1c-1.9,0-2.8,0.5-2.8,1.6c0,0.7,0.5,1.3,1.6,1.7c0.2,0.1,1.3,0.4,3.4,0.8
	c1.6,0.4,2.7,0.8,3.4,1.3c1,0.8,1.6,1.8,1.6,3.2c0,1.7-0.8,3-2.2,3.9c-1.3,0.8-2.8,1.1-4.7,1.1c-2,0-3.7-0.4-4.9-1.3
	C150.9,417.1,150.3,415.8,150.3,414z M173.8,416.7c1.4,0,2.6-0.6,3.4-1.7c0.7-1,1.1-2.2,1.1-3.8c0-1.5-0.3-2.7-1.1-3.7
	c-0.8-1.2-1.9-1.7-3.4-1.7c-1.4,0-2.6,0.6-3.4,1.7c-0.7,1-1,2.2-1,3.7c0,1.5,0.3,2.8,1,3.8C171.2,416.1,172.3,416.7,173.8,416.7z
	 M173.8,419.4c-2.4,0-4.4-0.8-5.8-2.3c-1.4-1.5-2-3.4-2-5.9c0-2.4,0.7-4.4,2.1-5.9c1.4-1.5,3.3-2.3,5.8-2.3c2.4,0,4.4,0.8,5.8,2.3
	c1.4,1.5,2,3.4,2,5.9c0,2.4-0.7,4.4-2,5.9C178.1,418.6,176.2,419.4,173.8,419.4z M184.5,419v-15.5h3.4V419H184.5z M184.5,400.8v-3.2
	h3.4v3.2H184.5z M191.7,419v-15.5h3.2v2.3l0.1,0.1c1.1-1.8,2.7-2.8,4.8-2.8c1.7,0,3.1,0.4,4,1.4c1,0.9,1.5,2.2,1.5,3.9V419h-3.4
	v-9.8c0-2.3-1-3.5-3-3.5c-1.1,0-2,0.4-2.7,1.2c-0.7,0.8-1,1.8-1,2.9v9.1H191.7z M208.1,414h3.4c0.2,1.8,1.3,2.7,3.5,2.7
	c2.4,0,3.5-0.7,3.5-2c0-1-0.9-1.6-2.7-2.1c-2.9-0.7-4.5-1.1-4.8-1.3c-1.7-0.8-2.6-2-2.6-3.8c0-1.5,0.7-2.7,2.2-3.5
	c1.2-0.6,2.6-1,4.3-1c1.7,0,3.2,0.4,4.3,1.1c1.3,0.8,2,2.1,2.2,3.7h-3.6c-0.3-1.4-1.3-2.1-3.1-2.1c-1.9,0-2.8,0.5-2.8,1.6
	c0,0.7,0.5,1.3,1.6,1.7c0.2,0.1,1.4,0.4,3.4,0.8c1.6,0.4,2.7,0.8,3.5,1.3c1,0.8,1.6,1.8,1.6,3.2c0,1.7-0.8,3-2.2,3.9
	c-1.3,0.8-2.8,1.1-4.7,1.1c-2,0-3.7-0.4-4.9-1.3C208.7,417.1,208.1,415.8,208.1,414z M246.9,412.1h-11.4c0,1.3,0.3,2.4,1,3.2
	c0.7,0.9,1.8,1.4,3.1,1.4c1.9,0,3.2-0.9,3.8-2.6h3.2c-0.4,1.7-1.2,3-2.5,3.9c-1.3,0.9-2.8,1.4-4.5,1.4c-2.4,0-4.2-0.8-5.6-2.2
	s-2-3.5-2-5.9c0-2.3,0.7-4.2,2-5.8c1.4-1.6,3.2-2.4,5.5-2.4c2.2,0,4,0.8,5.4,2.4c1.3,1.5,2,3.3,2,5.5
	C246.9,411.4,246.9,411.8,246.9,412.1z M235.5,409.9h8c-0.1-1.1-0.4-2.1-1.2-2.9c-0.7-0.8-1.6-1.2-2.7-1.2c-1.2,0-2.1,0.4-2.9,1.2
	C235.9,407.7,235.5,408.7,235.5,409.9z M247.9,406v-2.6h2.6v-4.6h3.4v4.6h3.1v2.6h-3.1v8.3c0,0.8,0.1,1.3,0.2,1.6
	c0.2,0.4,0.7,0.5,1.4,0.5c0.6,0,1.1,0,1.4-0.1v2.6c-1.5,0.1-2.2,0.2-2.2,0.2c-1.7,0-2.8-0.3-3.5-1c-0.5-0.6-0.8-1.5-0.8-2.9V406
	H247.9z M281.9,412.1h-11.4c0,1.3,0.3,2.4,1,3.2c0.7,0.9,1.8,1.4,3.1,1.4c1.9,0,3.2-0.9,3.8-2.6h3.2c-0.4,1.7-1.2,3-2.5,3.9
	c-1.3,0.9-2.8,1.4-4.5,1.4c-2.4,0-4.2-0.8-5.6-2.2s-2-3.5-2-5.9c0-2.3,0.7-4.2,2-5.8c1.4-1.6,3.2-2.4,5.5-2.4c2.2,0,4,0.8,5.4,2.4
	c1.3,1.5,2,3.3,2,5.5C281.9,411.4,281.9,411.8,281.9,412.1z M270.5,409.9h8c-0.1-1.1-0.5-2.1-1.2-2.9c-0.7-0.8-1.6-1.2-2.7-1.2
	c-1.2,0-2.1,0.4-2.9,1.2C270.9,407.7,270.5,408.7,270.5,409.9z M284.5,419v-15.5h3.2v2.3l0.1,0.1c1.1-1.8,2.7-2.8,4.8-2.8
	c1.7,0,3.1,0.4,4,1.4c1,0.9,1.5,2.2,1.5,3.9V419h-3.4v-9.8c0-2.3-1-3.5-3-3.5c-1.1,0-2,0.4-2.7,1.2c-0.7,0.8-1,1.8-1,2.9v9.1H284.5z
	 M305.8,419l-5.6-15.5h3.7l3.9,11.9h0.1l3.8-11.9h3.5l-5.6,15.5H305.8z M317.4,419v-15.5h3.4V419H317.4z M317.4,400.8v-3.2h3.4v3.2
	H317.4z M338.6,412.1h-11.4c0,1.3,0.3,2.4,1,3.2c0.7,0.9,1.8,1.4,3.2,1.4c1.9,0,3.2-0.9,3.8-2.6h3.2c-0.4,1.7-1.2,3-2.5,3.9
	c-1.3,0.9-2.8,1.4-4.5,1.4c-2.4,0-4.2-0.8-5.6-2.2s-2-3.5-2-5.9c0-2.3,0.7-4.2,2-5.8c1.4-1.6,3.2-2.4,5.5-2.4c2.2,0,4,0.8,5.4,2.4
	c1.3,1.5,2,3.3,2,5.5C338.6,411.4,338.6,411.8,338.6,412.1z M327.2,409.9h8c-0.1-1.1-0.5-2.1-1.2-2.9c-0.7-0.8-1.6-1.2-2.7-1.2
	c-1.2,0-2.1,0.4-2.9,1.2C327.6,407.7,327.2,408.7,327.2,409.9z M340.3,414h3.4c0.2,1.8,1.3,2.7,3.5,2.7c2.4,0,3.5-0.7,3.5-2
	c0-1-0.9-1.6-2.7-2.1c-2.9-0.7-4.5-1.1-4.8-1.3c-1.7-0.8-2.6-2-2.6-3.8c0-1.5,0.7-2.7,2.2-3.5c1.2-0.6,2.6-1,4.3-1
	c1.7,0,3.2,0.4,4.3,1.1c1.3,0.8,2,2.1,2.2,3.7h-3.6c-0.3-1.4-1.3-2.1-3.1-2.1c-1.9,0-2.8,0.5-2.8,1.6c0,0.7,0.5,1.3,1.6,1.7
	c0.2,0.1,1.4,0.4,3.5,0.8c1.6,0.4,2.7,0.8,3.5,1.3c1,0.8,1.6,1.8,1.6,3.2c0,1.7-0.8,3-2.2,3.9c-1.3,0.8-2.8,1.1-4.7,1.1
	c-2,0-3.7-0.4-4.9-1.3C341,417.1,340.4,415.8,340.3,414z M357,419v-4h4.2v4H357z"/>
<path class="st0" d="M832.8,623.3h405v0c39.9-0.2,72.2-32.7,72.2-72.6c0-40-32.3-72.4-72.2-72.6v0h-0.3h-0.2h-0.2H833.9
	c20.9,17.1,34.2,43.1,34.2,72.2C868.1,579.8,854.3,606.2,832.8,623.3z"/>
<path class="st1" d="M977.4,544v-21.4h15.4v3.2h-11.7v5.6h10.8v3.1h-10.8v6.3H993v3.2H977.4z M995.9,544v-21.4h3.4V544H995.9z
	 M1012.6,538.8v-2.6c-0.4,0.3-1.1,0.5-1.9,0.6c-0.8,0.1-1.5,0.2-2.3,0.3c-1.9,0.3-2.8,1.2-2.8,2.6c0,0.7,0.4,1.2,1.1,1.6
	c0.6,0.3,1.2,0.4,2,0.4c0.9,0,1.8-0.2,2.5-0.7C1012.1,540.5,1012.6,539.8,1012.6,538.8z M1016,532.6v8c0,0.8,0.3,1.2,0.8,1.2
	c0.3,0,0.6,0,0.8-0.1v2.4c-0.7,0.3-1.5,0.4-2.2,0.4c-1.5,0-2.4-0.6-2.6-1.9c-1.3,1.3-3.1,1.9-5.4,1.9c-1.5,0-2.7-0.4-3.7-1.1
	c-1.1-0.8-1.6-2-1.6-3.4c0-1.7,0.6-3,1.9-3.7c0.8-0.5,2.1-0.8,4.1-1.1c2.2-0.3,3.2-0.5,3.2-0.5c0.9-0.3,1.4-0.9,1.4-1.7
	c0-1.4-1.1-2.1-3.2-2.1c-2.1,0-3.3,0.8-3.4,2.5h-3.4c0.2-3.4,2.5-5.2,7-5.2c1.7,0,3.1,0.3,4.2,1C1015.3,529.9,1016,531,1016,532.6z
	 M1031.7,536.3c0-1.5-0.4-2.8-1.1-3.8c-0.8-1.1-1.9-1.7-3.2-1.7c-1.4,0-2.5,0.5-3.2,1.5c-0.7,1-1.1,2.3-1.1,4c0,1.6,0.4,2.9,1.2,3.9
	s1.8,1.5,3.2,1.5c1.4,0,2.5-0.6,3.3-1.7C1031.4,539,1031.7,537.8,1031.7,536.3z M1019.8,544v-21.4h3.4v7.9h0.1
	c0.5-0.7,1.1-1.3,2-1.8s1.7-0.7,2.6-0.7c2.3,0,4.2,0.8,5.5,2.4c1.2,1.5,1.8,3.4,1.8,5.8c0,2.3-0.5,4.1-1.6,5.6
	c-1.2,1.7-2.9,2.5-5.1,2.5c-2.7,0-4.5-0.8-5.4-2.5h-0.1v2.1H1019.8z M1045.1,541.7c1.4,0,2.6-0.6,3.4-1.7c0.7-1,1.1-2.2,1.1-3.8
	c0-1.5-0.4-2.7-1.1-3.7c-0.8-1.2-1.9-1.7-3.4-1.7c-1.4,0-2.6,0.6-3.4,1.7c-0.7,1-1.1,2.2-1.1,3.7c0,1.5,0.3,2.8,1.1,3.8
	C1042.6,541.1,1043.7,541.7,1045.1,541.7z M1045.1,544.4c-2.4,0-4.4-0.8-5.8-2.3c-1.4-1.5-2-3.4-2-5.9c0-2.4,0.7-4.4,2.1-5.9
	c1.4-1.5,3.3-2.3,5.8-2.3c2.4,0,4.4,0.8,5.8,2.3c1.4,1.5,2,3.4,2,5.8c0,2.4-0.7,4.4-2,5.9C1049.5,543.7,1047.6,544.4,1045.1,544.4z
	 M1055.8,544v-15.5h3.2v3h0.1c0.2-0.9,0.8-1.6,1.7-2.3c0.9-0.7,1.9-1.1,2.9-1.1c0.3,0,0.7,0,1.3,0.1v3.3c-0.8-0.1-1.3-0.2-1.5-0.2
	c-1.2,0-2.2,0.5-3,1.4c-0.8,1-1.2,2.3-1.2,3.9v7.4H1055.8z M1075.9,538.8v-2.6c-0.4,0.3-1.1,0.5-1.9,0.6c-0.8,0.1-1.5,0.2-2.3,0.3
	c-1.9,0.3-2.8,1.2-2.8,2.6c0,0.7,0.4,1.2,1.1,1.6c0.6,0.3,1.2,0.4,2,0.4c0.9,0,1.8-0.2,2.5-0.7
	C1075.5,540.5,1075.9,539.8,1075.9,538.8z M1079.3,532.6v8c0,0.8,0.3,1.2,0.8,1.2c0.3,0,0.6,0,0.8-0.1v2.4c-0.7,0.3-1.5,0.4-2.2,0.4
	c-1.5,0-2.4-0.6-2.6-1.9c-1.3,1.3-3.1,1.9-5.4,1.9c-1.5,0-2.7-0.4-3.7-1.1c-1.1-0.8-1.6-2-1.6-3.4c0-1.7,0.6-3,1.9-3.7
	c0.8-0.5,2.1-0.8,4.1-1.1c2.2-0.3,3.2-0.5,3.2-0.5c0.9-0.3,1.4-0.9,1.4-1.7c0-1.4-1.1-2.1-3.2-2.1c-2.1,0-3.3,0.8-3.4,2.5h-3.4
	c0.2-3.4,2.6-5.2,7.1-5.2c1.7,0,3.1,0.3,4.2,1C1078.7,529.9,1079.3,531,1079.3,532.6z M1081.5,531v-2.5h2.6v-4.6h3.4v4.6h3.1v2.5
	h-3.1v8.3c0,0.8,0.1,1.3,0.2,1.6c0.2,0.4,0.7,0.5,1.4,0.5c0.6,0,1.1,0,1.4-0.1v2.6c-1.5,0.1-2.2,0.2-2.2,0.2c-1.7,0-2.8-0.3-3.5-1
	c-0.5-0.6-0.8-1.5-0.8-2.9V531H1081.5z M1093.1,544v-15.5h3.4V544H1093.1z M1093.1,525.8v-3.2h3.4v3.2H1093.1z M1107.4,541.7
	c1.4,0,2.6-0.6,3.4-1.7c0.7-1,1.1-2.2,1.1-3.8c0-1.5-0.3-2.7-1.1-3.7c-0.8-1.2-1.9-1.7-3.4-1.7c-1.4,0-2.6,0.6-3.4,1.7
	c-0.7,1-1.1,2.2-1.1,3.7c0,1.5,0.4,2.8,1.1,3.8C1104.8,541.1,1105.9,541.7,1107.4,541.7z M1107.4,544.4c-2.4,0-4.4-0.8-5.8-2.3
	c-1.4-1.5-2-3.4-2-5.9c0-2.4,0.7-4.4,2.1-5.9c1.4-1.5,3.3-2.3,5.8-2.3c2.4,0,4.4,0.8,5.8,2.3c1.4,1.5,2,3.4,2,5.8
	c0,2.4-0.7,4.4-2,5.9C1111.7,543.7,1109.8,544.4,1107.4,544.4z M1118,544v-15.5h3.2v2.3l0.1,0.1c1.1-1.8,2.7-2.8,4.8-2.8
	c1.7,0,3.1,0.5,4,1.3c1,0.9,1.5,2.2,1.5,3.9V544h-3.4v-9.8c0-2.3-1-3.5-3-3.5c-1.1,0-2,0.4-2.7,1.2c-0.7,0.8-1,1.8-1,2.9v9.2H1118z
	 M1157.7,537.1h-11.4c0,1.3,0.3,2.4,1,3.2c0.7,0.9,1.8,1.4,3.1,1.4c1.9,0,3.2-0.9,3.8-2.6h3.2c-0.4,1.7-1.2,3-2.5,3.9
	c-1.3,0.9-2.8,1.4-4.5,1.4c-2.4,0-4.2-0.8-5.6-2.2s-2-3.5-2-5.9c0-2.3,0.7-4.2,2-5.8c1.4-1.6,3.2-2.4,5.5-2.4c2.2,0,4,0.8,5.4,2.4
	c1.3,1.5,2,3.3,2,5.5C1157.7,536.4,1157.7,536.8,1157.7,537.1z M1146.3,534.9h8c-0.1-1.1-0.4-2.1-1.2-2.9c-0.7-0.8-1.6-1.2-2.7-1.2
	c-1.2,0-2.1,0.4-2.9,1.2C1146.7,532.7,1146.3,533.7,1146.3,534.9z M1158.7,531v-2.5h2.6v-4.6h3.4v4.6h3.1v2.5h-3.1v8.3
	c0,0.8,0.1,1.3,0.2,1.6c0.2,0.4,0.7,0.5,1.4,0.5c0.6,0,1.1,0,1.4-0.1v2.6c-1.5,0.1-2.2,0.2-2.2,0.2c-1.7,0-2.8-0.3-3.5-1
	c-0.5-0.6-0.8-1.5-0.8-2.9V531H1158.7z M931.6,579v-15.5h3.2v3h0.1c0.2-0.9,0.8-1.6,1.7-2.3c0.9-0.7,1.9-1.1,2.9-1.1
	c0.3,0,0.7,0,1.3,0.1v3.3c-0.8-0.1-1.3-0.2-1.5-0.2c-1.2,0-2.2,0.5-3,1.4c-0.8,1-1.2,2.3-1.2,3.9v7.4H931.6z M956.2,572.1h-11.4
	c0,1.3,0.3,2.4,1,3.2c0.7,0.9,1.8,1.4,3.2,1.4c1.9,0,3.2-0.9,3.8-2.6h3.2c-0.4,1.7-1.2,3-2.5,3.9c-1.3,0.9-2.8,1.4-4.5,1.4
	c-2.4,0-4.2-0.8-5.6-2.2c-1.3-1.5-2-3.5-2-5.9c0-2.3,0.7-4.2,2-5.8c1.4-1.6,3.2-2.4,5.5-2.4c2.2,0,4,0.8,5.4,2.4
	c1.3,1.5,2,3.3,2,5.5C956.3,571.4,956.2,571.8,956.2,572.1z M944.8,569.9h8c-0.1-1.1-0.5-2.1-1.2-2.9c-0.7-0.8-1.6-1.2-2.7-1.2
	c-1.2,0-2.1,0.4-2.9,1.2C945.2,567.7,944.8,568.7,944.8,569.9z M946.4,561.4l2.7-4.3h4l-4.3,4.3H946.4z M968.4,573.8v-2.6
	c-0.4,0.3-1.1,0.5-1.9,0.6c-0.8,0.1-1.5,0.2-2.3,0.3c-1.9,0.3-2.8,1.2-2.8,2.6c0,0.7,0.4,1.2,1.1,1.6c0.6,0.3,1.2,0.4,2,0.4
	c0.9,0,1.8-0.2,2.5-0.7C967.9,575.5,968.4,574.8,968.4,573.8z M971.8,567.6v8c0,0.8,0.3,1.2,0.8,1.2c0.3,0,0.6,0,0.8-0.1v2.4
	c-0.7,0.3-1.5,0.4-2.2,0.4c-1.5,0-2.4-0.6-2.6-1.9c-1.3,1.3-3.1,1.9-5.4,1.9c-1.5,0-2.7-0.4-3.7-1.1c-1.1-0.8-1.6-2-1.6-3.4
	c0-1.7,0.6-3,1.9-3.7c0.8-0.5,2.1-0.8,4-1.1c2.2-0.3,3.2-0.5,3.2-0.5c0.9-0.3,1.4-0.9,1.4-1.7c0-1.4-1.1-2.1-3.2-2.1
	s-3.3,0.8-3.4,2.5h-3.4c0.2-3.4,2.5-5.2,7-5.2c1.7,0,3.1,0.3,4.2,1C971.1,564.9,971.8,566,971.8,567.6z M975.6,579v-21.4h3.4V579
	H975.6z M982.8,579v-15.5h3.4V579H982.8z M982.8,560.8v-3.2h3.4v3.2H982.8z M989.1,574h3.4c0.2,1.8,1.3,2.7,3.5,2.7
	c2.4,0,3.5-0.7,3.5-2c0-1-0.9-1.6-2.7-2.1c-2.9-0.7-4.5-1.1-4.8-1.3c-1.7-0.8-2.6-2-2.6-3.8c0-1.5,0.7-2.7,2.2-3.5
	c1.2-0.6,2.6-1,4.3-1c1.7,0,3.2,0.4,4.3,1.1c1.3,0.8,2,2.1,2.2,3.7h-3.6c-0.3-1.4-1.3-2.1-3.1-2.1c-1.9,0-2.8,0.5-2.8,1.6
	c0,0.7,0.5,1.3,1.6,1.7c0.2,0.1,1.4,0.4,3.5,0.8c1.6,0.4,2.7,0.8,3.5,1.3c1,0.8,1.6,1.8,1.6,3.2c0,1.7-0.8,3-2.2,3.9
	c-1.3,0.8-2.8,1.1-4.7,1.1c-2,0-3.7-0.4-4.9-1.3C989.8,577.1,989.1,575.8,989.1,574z M1015.1,573.8v-2.6c-0.4,0.3-1.1,0.5-1.9,0.6
	c-0.8,0.1-1.5,0.2-2.3,0.3c-1.9,0.3-2.8,1.2-2.8,2.6c0,0.7,0.4,1.2,1.1,1.6c0.6,0.3,1.2,0.4,2,0.4c0.9,0,1.8-0.2,2.5-0.7
	C1014.6,575.5,1015.1,574.8,1015.1,573.8z M1018.5,567.6v8c0,0.8,0.3,1.2,0.8,1.2c0.3,0,0.6,0,0.8-0.1v2.4c-0.7,0.3-1.5,0.4-2.2,0.4
	c-1.5,0-2.4-0.6-2.6-1.9c-1.3,1.3-3.1,1.9-5.4,1.9c-1.5,0-2.7-0.4-3.7-1.1c-1.1-0.8-1.6-2-1.6-3.4c0-1.7,0.6-3,1.9-3.7
	c0.8-0.5,2.1-0.8,4-1.1c2.2-0.3,3.2-0.5,3.2-0.5c0.9-0.3,1.4-0.9,1.4-1.7c0-1.4-1.1-2.1-3.2-2.1s-3.3,0.8-3.4,2.5h-3.4
	c0.2-3.4,2.6-5.2,7.1-5.2c1.7,0,3.1,0.3,4.2,1C1017.8,564.9,1018.5,566,1018.5,567.6z M1020.6,566v-2.5h2.6v-4.6h3.4v4.6h3.1v2.5
	h-3.1v8.3c0,0.8,0.1,1.3,0.2,1.6c0.2,0.4,0.7,0.5,1.4,0.5c0.6,0,1.1,0,1.4-0.1v2.6c-1.5,0.1-2.2,0.2-2.2,0.2c-1.7,0-2.8-0.3-3.5-1
	c-0.5-0.6-0.8-1.5-0.8-2.9V566H1020.6z M1032.2,579v-15.5h3.4V579H1032.2z M1032.2,560.8v-3.2h3.4v3.2H1032.2z M1046.5,576.7
	c1.4,0,2.6-0.6,3.4-1.7c0.7-1,1.1-2.2,1.1-3.8c0-1.5-0.3-2.7-1.1-3.7c-0.8-1.2-1.9-1.7-3.4-1.7s-2.6,0.6-3.4,1.7
	c-0.7,1-1.1,2.2-1.1,3.7c0,1.5,0.3,2.8,1.1,3.8C1043.9,576.1,1045.1,576.7,1046.5,576.7z M1046.5,579.4c-2.4,0-4.4-0.8-5.8-2.3
	c-1.4-1.5-2-3.4-2-5.9c0-2.4,0.7-4.4,2.1-5.9c1.4-1.5,3.3-2.3,5.8-2.3s4.4,0.8,5.8,2.3c1.4,1.5,2,3.4,2,5.8c0,2.4-0.7,4.4-2,5.9
	C1050.9,578.7,1048.9,579.4,1046.5,579.4z M1057.2,579v-15.5h3.2v2.3l0.1,0.1c1.1-1.8,2.7-2.8,4.8-2.8c1.7,0,3.1,0.5,4,1.3
	c1,0.9,1.5,2.2,1.5,3.9V579h-3.4v-9.8c0-2.3-1-3.5-3-3.5c-1.1,0-2,0.4-2.7,1.2c-0.7,0.8-1,1.8-1,2.9v9.2H1057.2z M1085.4,571.4
	c0,1.5,0.3,2.7,1,3.7c0.8,1.1,1.9,1.6,3.3,1.6c1.4,0,2.5-0.6,3.3-1.7c0.7-1,1-2.2,1-3.8c0-1.7-0.4-3-1.2-4c-0.8-1-1.8-1.5-3.1-1.5
	c-1.5,0-2.6,0.6-3.4,1.8C1085.7,568.5,1085.4,569.8,1085.4,571.4z M1097.4,557.6V579h-3.2v-2.1h-0.1c-0.9,1.7-2.5,2.5-4.8,2.5
	c-2.4,0-4.2-0.8-5.5-2.4c-1.2-1.5-1.8-3.4-1.8-5.9c0-2.6,0.7-4.7,2.1-6.2c1.2-1.3,2.8-1.9,4.6-1.9c2.4,0,4.2,0.8,5.2,2.4h0.1v-7.9
	H1097.4z M1114.7,563.5V579h-3.4v-2.2h-0.1c-0.4,0.8-1.1,1.4-1.9,1.9c-0.8,0.5-1.7,0.7-2.5,0.7c-3.9,0-5.8-2-5.8-6.1v-9.8h3.4v9.5
	c0,2.5,1,3.7,3,3.7c2.5,0,3.8-1.4,3.8-4.2v-9H1114.7z M1138.7,571.3c0-1.5-0.4-2.8-1.1-3.8c-0.8-1.1-1.9-1.7-3.2-1.7
	c-1.4,0-2.5,0.5-3.2,1.5c-0.7,1-1.1,2.3-1.1,4c0,1.6,0.4,2.9,1.2,3.9s1.8,1.5,3.2,1.5c1.4,0,2.5-0.6,3.3-1.7
	C1138.4,574,1138.7,572.8,1138.7,571.3z M1126.8,584.7v-21.2h3.2v2.1h0.1c0.9-1.7,2.5-2.5,4.8-2.5c2.3,0,4.2,0.8,5.5,2.4
	c1.2,1.5,1.8,3.4,1.8,5.8c0,2.3-0.5,4.1-1.6,5.6c-1.2,1.7-2.9,2.5-5.1,2.5c-2.4,0-4.2-0.8-5.2-2.4h-0.1v7.7H1126.8z M1145,579v-15.5
	h3.2v3h0.1c0.2-0.9,0.8-1.6,1.7-2.3c0.9-0.7,1.9-1.1,2.9-1.1c0.3,0,0.7,0,1.3,0.1v3.3c-0.8-0.1-1.3-0.2-1.5-0.2
	c-1.2,0-2.2,0.5-3,1.4c-0.8,1-1.2,2.3-1.2,3.9v7.4H1145z M1162.7,576.7c1.4,0,2.6-0.6,3.4-1.7c0.7-1,1-2.2,1-3.8
	c0-1.5-0.3-2.7-1-3.7c-0.8-1.2-1.9-1.7-3.4-1.7c-1.4,0-2.6,0.6-3.4,1.7c-0.7,1-1.1,2.2-1.1,3.7c0,1.5,0.3,2.8,1.1,3.8
	C1160.1,576.1,1161.2,576.7,1162.7,576.7z M1162.7,579.4c-2.4,0-4.4-0.8-5.8-2.3c-1.4-1.5-2-3.4-2-5.9c0-2.4,0.7-4.4,2.1-5.9
	c1.4-1.5,3.3-2.3,5.8-2.3c2.4,0,4.4,0.8,5.8,2.3c1.4,1.5,2,3.4,2,5.8c0,2.4-0.7,4.4-2,5.9C1167,578.7,1165.1,579.4,1162.7,579.4z
	 M1173.4,580.2v-16.7h3.4v16.8c0,3.2-1.5,4.8-4.4,4.8c-0.4,0-0.9,0-1.5-0.1v-2.7c0.6,0.1,1,0.1,1.2,0.1c0.6,0,1-0.2,1.2-0.6
	C1173.4,581.6,1173.4,581,1173.4,580.2z M1173.4,560.8v-3.2h3.4v3.2H1173.4z M1194.6,572.1h-11.4c0,1.3,0.3,2.4,1,3.2
	c0.7,0.9,1.8,1.4,3.2,1.4c1.9,0,3.2-0.9,3.8-2.6h3.2c-0.4,1.7-1.2,3-2.5,3.9c-1.3,0.9-2.8,1.4-4.5,1.4c-2.4,0-4.2-0.8-5.6-2.2
	c-1.3-1.5-2-3.5-2-5.9c0-2.3,0.7-4.2,2-5.8c1.4-1.6,3.2-2.4,5.5-2.4c2.2,0,4,0.8,5.4,2.4c1.3,1.5,2,3.3,2,5.5
	C1194.7,571.4,1194.7,571.8,1194.6,572.1z M1183.2,569.9h8c-0.1-1.1-0.4-2.1-1.2-2.9c-0.7-0.8-1.6-1.2-2.7-1.2
	c-1.2,0-2.1,0.4-2.9,1.2C1183.7,567.7,1183.3,568.7,1183.2,569.9z M1195.7,566v-2.5h2.6v-4.6h3.4v4.6h3.1v2.5h-3.1v8.3
	c0,0.8,0.1,1.3,0.2,1.6c0.2,0.4,0.7,0.5,1.4,0.5c0.6,0,1.1,0,1.4-0.1v2.6c-1.5,0.1-2.2,0.2-2.2,0.2c-1.7,0-2.8-0.3-3.5-1
	c-0.5-0.6-0.8-1.5-0.8-2.9V566H1195.7z M1207.5,579v-4h4.2v4H1207.5z"/>
<path class="st0" d="M476.1,782.6c-20.9-17.1-34.2-43.1-34.2-72.2c0-29.6,13.8-56,35.3-73.1H72.8h-0.1h-0.1h-0.3v0
	C32.3,637.6,0,670,0,710s32.3,72.4,72.2,72.6v0H476.1z"/>
<path class="st1" d="M83.4,684.6v6.7h6.2c2.4,0,3.7-1.1,3.7-3.4c0-2.2-1.2-3.3-3.7-3.3H83.4z M79.6,703v-21.4h10.2
	c2.3,0,4.1,0.5,5.3,1.5c1.2,1,1.8,2.4,1.8,4.3c0,2.8-1.2,4.6-3.5,5.4v0.1c2.1,0.3,3.2,1.8,3.2,4.5c0,2.9,0.4,4.8,1.2,5.6h-4
	c-0.4-0.6-0.6-1.7-0.6-3.2c0-2.1-0.3-3.5-0.8-4.3c-0.6-0.9-1.8-1.4-3.4-1.4h-5.5v8.8H79.6z M114.3,696.1h-11.4c0,1.3,0.3,2.4,1,3.2
	c0.7,0.9,1.8,1.4,3.1,1.4c1.9,0,3.2-0.9,3.8-2.6h3.2c-0.4,1.7-1.2,3-2.5,3.9c-1.3,0.9-2.8,1.4-4.5,1.4c-2.4,0-4.2-0.8-5.6-2.2
	c-1.3-1.5-2-3.5-2-5.9c0-2.3,0.7-4.2,2-5.8c1.4-1.6,3.2-2.4,5.5-2.4c2.2,0,4,0.8,5.4,2.4c1.3,1.5,2,3.3,2,5.5
	C114.4,695.4,114.4,695.8,114.3,696.1z M102.9,693.9h8c-0.1-1.1-0.5-2.1-1.2-2.9c-0.7-0.8-1.6-1.2-2.7-1.2c-1.2,0-2.1,0.4-2.9,1.2
	C103.4,691.7,103,692.7,102.9,693.9z M116.9,703v-15.5h3.2v2.2h0.1c1.1-1.7,2.7-2.6,4.8-2.6c2.2,0,3.7,0.9,4.3,2.6
	c1.2-1.7,2.9-2.6,4.9-2.6c3.5,0,5.2,1.7,5.2,5.2V703H136v-9.1c0-1.5-0.1-2.5-0.4-3c-0.4-0.8-1.2-1.2-2.4-1.2c-2.2,0-3.3,1.4-3.3,4.1
	v9.1h-3.4v-10c0-1.1-0.2-1.9-0.6-2.5c-0.4-0.5-1.1-0.8-2.1-0.8c-0.9,0-1.7,0.4-2.4,1.1c-0.7,0.7-1,1.7-1,2.9v9.2H116.9z M143.1,703
	v-15.5h3.4V703H143.1z M143.1,684.8v-3.2h3.4v3.2H143.1z M149.4,698h3.4c0.2,1.8,1.3,2.7,3.5,2.7c2.4,0,3.5-0.7,3.4-2
	c0-1-0.9-1.6-2.7-2.1c-2.9-0.7-4.5-1.1-4.8-1.3c-1.7-0.8-2.6-2-2.6-3.8c0-1.5,0.7-2.7,2.2-3.5c1.2-0.6,2.6-1,4.3-1
	c1.7,0,3.2,0.4,4.3,1.1c1.3,0.8,2,2.1,2.2,3.7h-3.6c-0.3-1.4-1.3-2.1-3.1-2.1c-1.9,0-2.8,0.5-2.8,1.6c0,0.7,0.5,1.3,1.6,1.7
	c0.2,0.1,1.4,0.4,3.5,0.8c1.6,0.4,2.7,0.8,3.4,1.3c1,0.8,1.6,1.8,1.6,3.2c0,1.7-0.8,3-2.2,3.9c-1.3,0.8-2.8,1.1-4.7,1.1
	c-2,0-3.7-0.4-4.9-1.3C150.1,701.1,149.5,699.8,149.4,698z M179.9,696.1h-11.4c0,1.3,0.3,2.4,1,3.2c0.7,0.9,1.8,1.4,3.1,1.4
	c1.9,0,3.2-0.9,3.8-2.6h3.2c-0.4,1.7-1.2,3-2.5,3.9c-1.3,0.9-2.8,1.4-4.5,1.4c-2.4,0-4.2-0.8-5.6-2.2s-2-3.5-2-5.9
	c0-2.3,0.7-4.2,2-5.8c1.4-1.6,3.2-2.4,5.5-2.4c2.2,0,4,0.8,5.4,2.4c1.3,1.5,2,3.3,2,5.5C180,695.4,179.9,695.8,179.9,696.1z
	 M168.5,693.9h8c-0.1-1.1-0.4-2.1-1.2-2.9c-0.7-0.8-1.6-1.2-2.7-1.2c-1.2,0-2.1,0.4-2.9,1.2C168.9,691.7,168.5,692.7,168.5,693.9z
	 M193.5,695.4c0,1.5,0.3,2.7,1,3.7c0.8,1.1,1.9,1.6,3.3,1.6c1.4,0,2.5-0.6,3.3-1.7c0.7-1,1-2.2,1-3.8c0-1.7-0.4-3-1.2-4
	c-0.8-1-1.8-1.5-3.1-1.5c-1.5,0-2.6,0.6-3.4,1.8C193.8,692.5,193.5,693.8,193.5,695.4z M205.5,681.6V703h-3.2v-2.1h-0.1
	c-0.9,1.7-2.5,2.5-4.8,2.5c-2.4,0-4.2-0.8-5.5-2.4c-1.2-1.5-1.8-3.4-1.8-5.9c0-2.6,0.7-4.7,2.1-6.2c1.2-1.3,2.8-1.9,4.6-1.9
	c2.4,0,4.2,0.8,5.2,2.4h0.1v-7.9H205.5z M223.3,696.1h-11.4c0,1.3,0.3,2.4,1,3.2c0.7,0.9,1.8,1.4,3.2,1.4c1.9,0,3.2-0.9,3.8-2.6h3.2
	c-0.4,1.7-1.2,3-2.5,3.9c-1.3,0.9-2.8,1.4-4.5,1.4c-2.4,0-4.2-0.8-5.6-2.2c-1.3-1.5-2-3.5-2-5.9c0-2.3,0.7-4.2,2-5.8
	c1.4-1.6,3.2-2.4,5.5-2.4c2.2,0,4,0.8,5.4,2.4c1.3,1.5,2,3.3,2,5.5C223.3,695.4,223.3,695.8,223.3,696.1z M211.9,693.9h8
	c-0.1-1.1-0.4-2.1-1.2-2.9c-0.7-0.8-1.6-1.2-2.7-1.2c-1.2,0-2.1,0.4-2.9,1.2C212.3,691.7,211.9,692.7,211.9,693.9z M238.3,703
	l-5.6-15.5h3.7l3.9,11.9h0.1l3.8-11.9h3.5l-5.6,15.5H238.3z M256.9,700.7c1.4,0,2.6-0.6,3.4-1.7c0.7-1,1.1-2.2,1.1-3.8
	c0-1.5-0.4-2.7-1.1-3.7c-0.8-1.2-1.9-1.7-3.4-1.7s-2.6,0.6-3.4,1.7c-0.7,1-1.1,2.2-1.1,3.7c0,1.5,0.4,2.8,1.1,3.8
	C254.3,700.1,255.4,700.7,256.9,700.7z M256.9,703.4c-2.4,0-4.4-0.8-5.8-2.3c-1.4-1.5-2-3.4-2-5.9c0-2.4,0.7-4.4,2.1-5.9
	c1.4-1.5,3.3-2.3,5.8-2.3s4.4,0.8,5.8,2.3c1.4,1.5,2,3.4,2,5.8c0,2.4-0.7,4.4-2,5.9C261.2,702.7,259.3,703.4,256.9,703.4z M266,690
	v-2.5h2.6v-4.6h3.4v4.6h3.1v2.5H272v8.3c0,0.8,0.1,1.3,0.2,1.6c0.2,0.4,0.7,0.5,1.4,0.5c0.6,0,1.1,0,1.4-0.1v2.6
	c-1.5,0.1-2.2,0.2-2.2,0.2c-1.7,0-2.8-0.3-3.5-1c-0.5-0.6-0.8-1.5-0.8-2.9V690H266z M277.5,703v-15.5h3.2v3h0.1
	c0.2-0.9,0.8-1.6,1.7-2.3c0.9-0.7,1.9-1.1,2.9-1.1c0.3,0,0.7,0,1.3,0.1v3.3c-0.8-0.1-1.3-0.2-1.5-0.2c-1.2,0-2.2,0.5-3,1.4
	c-0.8,1-1.2,2.3-1.2,3.9v7.4H277.5z M302.2,696.1h-11.4c0,1.3,0.3,2.4,1,3.2c0.7,0.9,1.8,1.4,3.1,1.4c1.9,0,3.2-0.9,3.8-2.6h3.2
	c-0.4,1.7-1.2,3-2.5,3.9c-1.3,0.9-2.8,1.4-4.5,1.4c-2.4,0-4.2-0.8-5.6-2.2s-2-3.5-2-5.9c0-2.3,0.7-4.2,2-5.8
	c1.4-1.6,3.2-2.4,5.5-2.4c2.2,0,4,0.8,5.4,2.4c1.3,1.5,2,3.3,2,5.5C302.2,695.4,302.2,695.8,302.2,696.1z M290.8,693.9h8
	c-0.1-1.1-0.4-2.1-1.2-2.9c-0.7-0.8-1.6-1.2-2.7-1.2c-1.2,0-2.1,0.4-2.9,1.2C291.2,691.7,290.8,692.7,290.8,693.9z M325.1,695.3
	c0-1.5-0.4-2.8-1.1-3.8c-0.8-1.1-1.9-1.7-3.2-1.7c-1.4,0-2.5,0.5-3.2,1.5c-0.7,1-1.1,2.3-1.1,4c0,1.6,0.4,2.9,1.2,3.9
	s1.8,1.5,3.2,1.5c1.4,0,2.5-0.6,3.3-1.7C324.8,698,325.1,696.8,325.1,695.3z M313.2,708.7v-21.2h3.2v2.1h0.1
	c0.9-1.7,2.5-2.5,4.8-2.5c2.3,0,4.2,0.8,5.5,2.4c1.2,1.5,1.8,3.4,1.8,5.8c0,2.3-0.5,4.1-1.6,5.6c-1.2,1.7-2.9,2.5-5.1,2.5
	c-2.4,0-4.2-0.8-5.2-2.4h-0.1v7.7H313.2z M331.4,703v-15.5h3.2v3h0.1c0.2-0.9,0.8-1.6,1.6-2.3c0.9-0.7,1.9-1.1,2.9-1.1
	c0.3,0,0.7,0,1.3,0.1v3.3c-0.8-0.1-1.3-0.2-1.5-0.2c-1.2,0-2.2,0.5-3,1.4c-0.8,1-1.2,2.3-1.2,3.9v7.4H331.4z M349.1,700.7
	c1.4,0,2.6-0.6,3.4-1.7c0.7-1,1-2.2,1-3.8c0-1.5-0.4-2.7-1-3.7c-0.8-1.2-1.9-1.7-3.4-1.7s-2.6,0.6-3.4,1.7c-0.7,1-1.1,2.2-1.1,3.7
	c0,1.5,0.4,2.8,1.1,3.8C346.5,700.1,347.7,700.7,349.1,700.7z M349.1,703.4c-2.4,0-4.4-0.8-5.8-2.3c-1.4-1.5-2-3.4-2-5.9
	c0-2.4,0.7-4.4,2.1-5.9c1.4-1.5,3.3-2.3,5.8-2.3s4.4,0.8,5.8,2.3c1.4,1.5,2,3.4,2,5.8c0,2.4-0.7,4.4-2,5.9
	C353.5,702.7,351.5,703.4,349.1,703.4z M359.9,704.2v-16.7h3.4v16.8c0,3.2-1.5,4.8-4.4,4.8c-0.4,0-0.9,0-1.5-0.1v-2.7
	c0.6,0.1,1,0.1,1.2,0.1c0.6,0,1-0.2,1.2-0.6C359.8,705.6,359.9,705,359.9,704.2z M359.9,684.8v-3.2h3.4v3.2H359.9z M381.1,696.1
	h-11.4c0,1.3,0.3,2.4,1,3.2c0.7,0.9,1.8,1.4,3.2,1.4c1.9,0,3.2-0.9,3.8-2.6h3.2c-0.4,1.7-1.2,3-2.5,3.9c-1.3,0.9-2.8,1.4-4.5,1.4
	c-2.4,0-4.2-0.8-5.6-2.2s-2-3.5-2-5.9c0-2.3,0.7-4.2,2-5.8c1.4-1.6,3.2-2.4,5.5-2.4c2.2,0,4,0.8,5.4,2.4c1.3,1.5,2,3.3,2,5.5
	C381.1,695.4,381.1,695.8,381.1,696.1z M369.7,693.9h8c-0.1-1.1-0.5-2.1-1.2-2.9c-0.7-0.8-1.6-1.2-2.7-1.2c-1.2,0-2.1,0.4-2.9,1.2
	C370.1,691.7,369.7,692.7,369.7,693.9z M382.1,690v-2.5h2.6v-4.6h3.4v4.6h3.1v2.5h-3.1v8.3c0,0.8,0.1,1.3,0.2,1.6
	c0.2,0.4,0.7,0.5,1.4,0.5c0.6,0,1.1,0,1.4-0.1v2.6c-1.5,0.1-2.2,0.2-2.2,0.2c-1.7,0-2.8-0.3-3.5-1c-0.5-0.6-0.8-1.5-0.8-2.9V690
	H382.1z M393.9,703v-4h4.2v4c0,1.2-0.4,2.2-1.1,3.1c-0.7,0.9-1.7,1.4-2.9,1.6v-1.8c0.6-0.2,1.1-0.5,1.5-1.1c0.3-0.5,0.5-1.2,0.5-1.8
	H393.9z M136.8,730.3c0-1.5-0.4-2.8-1.1-3.8c-0.8-1.1-1.9-1.7-3.2-1.7c-1.4,0-2.5,0.5-3.2,1.5c-0.7,1-1.1,2.3-1.1,4
	c0,1.6,0.4,2.9,1.2,3.9s1.8,1.5,3.2,1.5c1.4,0,2.6-0.6,3.3-1.7C136.4,733,136.8,731.8,136.8,730.3z M124.8,743.7v-21.2h3.2v2.1h0.1
	c0.9-1.7,2.5-2.5,4.8-2.5c2.3,0,4.2,0.8,5.5,2.4c1.2,1.5,1.8,3.4,1.8,5.8c0,2.3-0.5,4.1-1.6,5.6c-1.2,1.7-2.9,2.5-5.1,2.5
	c-2.4,0-4.2-0.8-5.2-2.4h-0.1v7.7H124.8z M143.1,738v-15.5h3.2v3h0.1c0.2-0.9,0.8-1.6,1.6-2.3c0.9-0.7,1.9-1.1,2.9-1.1
	c0.3,0,0.7,0,1.3,0.1v3.3c-0.8-0.1-1.3-0.2-1.5-0.2c-1.2,0-2.2,0.5-3,1.4c-0.8,1-1.2,2.3-1.2,3.9v7.4H143.1z M167.7,731.1h-11.4
	c0,1.3,0.3,2.4,1,3.2c0.7,0.9,1.8,1.4,3.2,1.4c1.9,0,3.2-0.9,3.8-2.6h3.2c-0.4,1.7-1.2,3-2.5,3.9c-1.3,0.9-2.8,1.4-4.5,1.4
	c-2.4,0-4.2-0.8-5.6-2.2s-2-3.5-2-5.9c0-2.3,0.7-4.2,2-5.8c1.4-1.6,3.2-2.4,5.5-2.4c2.2,0,4,0.8,5.4,2.4c1.3,1.5,2,3.3,2,5.5
	C167.7,730.4,167.7,730.8,167.7,731.1z M156.3,728.9h8c-0.1-1.1-0.4-2.1-1.2-2.9c-0.7-0.8-1.6-1.2-2.7-1.2c-1.2,0-2.1,0.4-2.9,1.2
	C156.7,726.7,156.3,727.7,156.3,728.9z M160.2,717.7l-2.1,2.7h-2.8l3.2-4.3h3.3l3.2,4.3h-2.8L160.2,717.7z M168.7,725v-2.5h2.6v-4.6
	h3.4v4.6h3.1v2.5h-3.1v8.3c0,0.8,0.1,1.3,0.2,1.6c0.2,0.4,0.7,0.5,1.4,0.5c0.6,0,1.1,0,1.4-0.1v2.6c-1.5,0.1-2.2,0.2-2.2,0.2
	c-1.7,0-2.8-0.3-3.5-1c-0.5-0.6-0.8-1.5-0.8-2.9V725H168.7z M198.2,732.8v-2.6c-0.4,0.3-1.1,0.5-1.9,0.6c-0.8,0.1-1.5,0.2-2.3,0.3
	c-1.9,0.3-2.8,1.2-2.8,2.6c0,0.7,0.4,1.2,1.1,1.6c0.6,0.3,1.2,0.4,2,0.4c0.9,0,1.8-0.2,2.5-0.7C197.7,734.5,198.2,733.8,198.2,732.8
	z M201.6,726.6v8c0,0.8,0.3,1.2,0.8,1.2c0.3,0,0.6,0,0.8-0.1v2.4c-0.7,0.3-1.5,0.4-2.2,0.4c-1.5,0-2.4-0.6-2.6-1.9
	c-1.3,1.3-3.1,1.9-5.4,1.9c-1.5,0-2.7-0.4-3.7-1.1c-1.1-0.8-1.6-2-1.6-3.4c0-1.7,0.6-3,1.9-3.7c0.8-0.5,2.1-0.8,4.1-1.1
	c2.2-0.3,3.2-0.5,3.2-0.5c0.9-0.3,1.4-0.9,1.4-1.7c0-1.4-1.1-2.1-3.2-2.1s-3.3,0.8-3.4,2.5h-3.4c0.2-3.4,2.6-5.2,7.1-5.2
	c1.7,0,3.1,0.3,4.2,1C201,723.9,201.6,725,201.6,726.6z M190.7,716.1h4l2.7,4.3H195L190.7,716.1z M216.3,730.4c0,1.5,0.3,2.7,1,3.7
	c0.8,1.1,1.9,1.6,3.3,1.6c1.4,0,2.5-0.6,3.3-1.7c0.7-1,1-2.2,1-3.8c0-1.7-0.4-3-1.2-4c-0.8-1-1.8-1.5-3.1-1.5
	c-1.5,0-2.6,0.6-3.4,1.8C216.6,727.5,216.3,728.8,216.3,730.4z M228.3,716.6V738H225v-2.1H225c-0.9,1.7-2.5,2.5-4.8,2.5
	c-2.4,0-4.2-0.8-5.5-2.4c-1.2-1.5-1.8-3.4-1.8-5.9c0-2.6,0.7-4.7,2.1-6.2c1.2-1.3,2.8-1.9,4.6-1.9c2.4,0,4.2,0.8,5.2,2.4h0.1v-7.9
	H228.3z M246.1,731.1h-11.4c0,1.3,0.3,2.4,1,3.2c0.7,0.9,1.8,1.4,3.2,1.4c1.9,0,3.2-0.9,3.8-2.6h3.2c-0.4,1.7-1.2,3-2.5,3.9
	c-1.3,0.9-2.8,1.4-4.5,1.4c-2.4,0-4.2-0.8-5.6-2.2c-1.3-1.5-2-3.5-2-5.9c0-2.3,0.7-4.2,2-5.8c1.4-1.6,3.2-2.4,5.5-2.4
	c2.2,0,4,0.8,5.4,2.4c1.3,1.5,2,3.3,2,5.5C246.1,730.4,246.1,730.8,246.1,731.1z M234.7,728.9h8c-0.1-1.1-0.4-2.1-1.2-2.9
	c-0.7-0.8-1.6-1.2-2.7-1.2c-1.2,0-2.1,0.4-2.9,1.2C235.1,726.7,234.7,727.7,234.7,728.9z M248.7,738v-15.5h3.2v2.2h0.1
	c1.1-1.7,2.7-2.6,4.8-2.6c2.2,0,3.7,0.9,4.3,2.6c1.2-1.7,2.9-2.6,4.9-2.6c3.5,0,5.2,1.7,5.2,5.2V738h-3.4v-9.1c0-1.5-0.1-2.5-0.4-3
	c-0.4-0.8-1.2-1.2-2.4-1.2c-2.2,0-3.3,1.4-3.3,4.1v9.1h-3.4v-10c0-1.1-0.2-1.9-0.6-2.5c-0.4-0.5-1.1-0.8-2.1-0.8
	c-0.9,0-1.7,0.4-2.4,1.1c-0.7,0.7-1,1.7-1,2.9v9.2H248.7z M284.3,732.8v-2.6c-0.4,0.3-1.1,0.5-1.9,0.6c-0.8,0.1-1.5,0.2-2.3,0.3
	c-1.9,0.3-2.8,1.2-2.8,2.6c0,0.7,0.4,1.2,1.1,1.6c0.6,0.3,1.2,0.4,2,0.4c0.9,0,1.8-0.2,2.5-0.7C283.9,734.5,284.3,733.8,284.3,732.8
	z M287.7,726.6v8c0,0.8,0.3,1.2,0.8,1.2c0.3,0,0.6,0,0.8-0.1v2.4c-0.7,0.3-1.5,0.4-2.2,0.4c-1.5,0-2.4-0.6-2.6-1.9
	c-1.3,1.3-3.1,1.9-5.4,1.9c-1.5,0-2.7-0.4-3.7-1.1c-1.1-0.8-1.6-2-1.6-3.4c0-1.7,0.6-3,1.9-3.7c0.8-0.5,2.1-0.8,4.1-1.1
	c2.2-0.3,3.2-0.5,3.2-0.5c0.9-0.3,1.4-0.9,1.4-1.7c0-1.4-1.1-2.1-3.2-2.1c-2.1,0-3.3,0.8-3.4,2.5h-3.4c0.2-3.4,2.6-5.2,7.1-5.2
	c1.7,0,3.1,0.3,4.2,1C287.1,723.9,287.7,725,287.7,726.6z M291.4,738v-15.5h3.2v3h0.1c0.2-0.9,0.8-1.6,1.6-2.3
	c0.9-0.7,1.9-1.1,2.9-1.1c0.3,0,0.7,0,1.3,0.1v3.3c-0.8-0.1-1.3-0.2-1.5-0.2c-1.2,0-2.2,0.5-3,1.4c-0.8,1-1.2,2.3-1.2,3.9v7.4H291.4
	z M302,738v-15.5h3.2v3h0.1c0.2-0.9,0.8-1.6,1.6-2.3c0.9-0.7,1.9-1.1,2.9-1.1c0.3,0,0.7,0,1.3,0.1v3.3c-0.8-0.1-1.3-0.2-1.5-0.2
	c-1.2,0-2.2,0.5-3,1.4c-0.8,1-1.2,2.3-1.2,3.9v7.4H302z M326.6,731.1h-11.4c0,1.3,0.3,2.4,1,3.2c0.7,0.9,1.8,1.4,3.1,1.4
	c1.9,0,3.2-0.9,3.8-2.6h3.2c-0.4,1.7-1.2,3-2.5,3.9c-1.3,0.9-2.8,1.4-4.5,1.4c-2.4,0-4.2-0.8-5.6-2.2s-2-3.5-2-5.9
	c0-2.3,0.7-4.2,2-5.8c1.4-1.6,3.2-2.4,5.5-2.4c2.2,0,4,0.8,5.4,2.4c1.3,1.5,2,3.3,2,5.5C326.6,730.4,326.6,730.8,326.6,731.1z
	 M315.2,728.9h8c-0.1-1.1-0.5-2.1-1.2-2.9c-0.7-0.8-1.6-1.2-2.7-1.2c-1.2,0-2.1,0.4-2.9,1.2C315.6,726.7,315.2,727.7,315.2,728.9z
	 M329.2,738v-15.5h3.2v3h0.1c0.2-0.9,0.8-1.6,1.6-2.3c0.9-0.7,1.9-1.1,2.9-1.1c0.3,0,0.7,0,1.3,0.1v3.3c-0.8-0.1-1.3-0.2-1.5-0.2
	c-1.2,0-2.2,0.5-3,1.4c-0.8,1-1.2,2.3-1.2,3.9v7.4H329.2z M348.6,722.8v-6.2h3.8v6.2l-1,9.3h-1.8L348.6,722.8z M348.4,738v-3.8h4
	v3.8H348.4z"/>
<path class="st2" d="M550,63l222,179.1l-222,162l222,164.1L550,738"/>
<linearGradient id="SVGID_1_" gradientUnits="userSpaceOnUse" x1="542.753" y1="784" x2="542.753" y2="638.7484" gradientTransform="matrix(1 0 0 -1 0 784)">
	<stop  offset="0" style="stop-color:#2463AA"/>
	<stop  offset="1" style="stop-color:#5AC2D8"/>
</linearGradient>
<circle class="st3" cx="542.8" cy="72.6" r="72.6"/>
<linearGradient id="SVGID_2_" gradientUnits="userSpaceOnUse" x1="760.191" y1="624.6638" x2="760.191" y2="479.4122" gradientTransform="matrix(1 0 0 -1 0 784)">
	<stop  offset="0" style="stop-color:#2463AA"/>
	<stop  offset="1" style="stop-color:#5AC2D8"/>
</linearGradient>
<circle class="st4" cx="760.2" cy="232" r="72.6"/>
<linearGradient id="SVGID_3_" gradientUnits="userSpaceOnUse" x1="542.753" y1="465.3268" x2="542.753" y2="320.0752" gradientTransform="matrix(1 0 0 -1 0 784)">
	<stop  offset="0" style="stop-color:#2463AA"/>
	<stop  offset="1" style="stop-color:#5AC2D8"/>
</linearGradient>
<circle class="st5" cx="542.8" cy="391.3" r="72.6"/>
<linearGradient id="SVGID_4_" gradientUnits="userSpaceOnUse" x1="760.191" y1="305.9898" x2="760.191" y2="160.7382" gradientTransform="matrix(1 0 0 -1 0 784)">
	<stop  offset="0" style="stop-color:#2463AA"/>
	<stop  offset="1" style="stop-color:#5AC2D8"/>
</linearGradient>
<circle class="st6" cx="760.2" cy="550.6" r="72.6"/>
<linearGradient id="SVGID_5_" gradientUnits="userSpaceOnUse" x1="542.753" y1="146.6538" x2="542.753" y2="1.4022" gradientTransform="matrix(1 0 0 -1 0 784)">
	<stop  offset="0" style="stop-color:#2463AA"/>
	<stop  offset="1" style="stop-color:#5AC2D8"/>
</linearGradient>
<circle class="st7" cx="542.8" cy="710" r="72.6"/>
<path class="st8" d="M543,45.1c-1.4,0-2.5,1.1-2.5,2.5c0,1.4,1.1,2.5,2.5,2.5c8.3,0,15.1,6.8,15.1,15.1c0,1.4,1.1,2.5,2.5,2.5
	c1.4,0,2.5-1.1,2.5-2.5C563.2,54.1,554.1,45.1,543,45.1z"/>
<path class="st8" d="M536.5,35.7c-11.4,2.4-20.6,11.5-23,23c-2.1,9.7,0.5,19.4,6.9,26.6c3.2,3.5,5,8.2,5,12.9v5
	c0,3.4,2.2,6.2,5.2,7.2c1,5.9,6.1,10.6,12.4,10.6c6.3,0,11.4-4.7,12.4-10.6c3-1,5.2-3.8,5.2-7.2v-5c0-4.6,1.8-9.3,5.1-13
	c4.8-5.5,7.5-12.6,7.5-19.9C573.2,46.2,555.8,31.7,536.5,35.7z M543,116c-3.2,0-6.1-2.2-7.1-5.2h14.3C549.1,113.7,546.2,116,543,116
	z M555.6,103.2c0,1.4-1.1,2.5-2.5,2.5h-20.2c-1.4,0-2.5-1.1-2.5-2.5v-2.5h25.2V103.2z M562,81.8c-3.5,4-5.7,8.8-6.2,13.8h-25.5
	c-0.5-5-2.7-9.9-6.1-13.7c-5.4-6-7.5-14.2-5.8-22.2c2-9.4,9.7-17.1,19.1-19.1c16.1-3.4,30.7,8.7,30.7,24.6
	C568.2,71.3,566,77.2,562,81.8z"/>
<path class="st8" d="M507.6,65.2h-5c-1.4,0-2.5,1.1-2.5,2.5c0,1.4,1.1,2.5,2.5,2.5h5c1.4,0,2.5-1.1,2.5-2.5
	C510.1,66.4,509,65.2,507.6,65.2z"/>
<path class="st8" d="M508.6,52.6l-3.6-3.6c-1-1-2.6-1-3.6,0c-1,1-1,2.6,0,3.6l3.6,3.6c1,1,2.6,1,3.6,0
	C509.6,55.2,509.6,53.6,508.6,52.6z"/>
<path class="st8" d="M508.6,79.3c-1-1-2.6-1-3.6,0l-3.6,3.6c-1,1-1,2.6,0,3.6c1,1,2.6,1,3.6,0l3.6-3.6
	C509.6,81.9,509.6,80.3,508.6,79.3z"/>
<path class="st8" d="M583.5,65.2h-5c-1.4,0-2.5,1.1-2.5,2.5c0,1.4,1.1,2.5,2.5,2.5h5c1.4,0,2.5-1.1,2.5-2.5
	C586,66.4,584.9,65.2,583.5,65.2z"/>
<path class="st8" d="M584.5,49.1c-1-1-2.6-1-3.6,0l-3.6,3.6c-1,1-1,2.6,0,3.6c1,1,2.6,1,3.6,0l3.6-3.6
	C585.5,51.7,585.5,50.1,584.5,49.1z"/>
<path class="st8" d="M584.5,82.9l-3.6-3.6c-1-1-2.6-1-3.6,0c-1,1-1,2.6,0,3.6l3.6,3.6c1,1,2.6,1,3.6,0
	C585.5,85.4,585.5,83.9,584.5,82.9z"/>
<path class="st8" d="M514,429.5c-0.9,0-1.7,0.8-1.7,1.7c0,0.9,0.8,1.7,1.7,1.7c0.9,0,1.7-0.8,1.7-1.7
	C515.7,430.3,514.9,429.5,514,429.5z"/>
<path class="st8" d="M503.7,409.7c-0.6-0.6-1.5-0.6-2.1,0l-1.7,1.7l-1.7-1.7c-0.6-0.6-1.5-0.6-2.1,0s-0.6,1.5,0,2.1l1.7,1.7
	l-1.7,1.7c-0.6,0.6-0.6,1.5,0,2.1c0.3,0.3,0.7,0.4,1,0.4c0.4,0,0.8-0.1,1-0.4l1.7-1.7l1.7,1.7c0.3,0.3,0.7,0.4,1,0.4
	c0.4,0,0.8-0.1,1-0.4c0.6-0.6,0.6-1.5,0-2.1l-1.7-1.7l1.7-1.7C504.3,411.2,504.3,410.2,503.7,409.7z"/>
<path class="st8" d="M525.1,359.4c0-0.8-0.7-1.5-1.5-1.5h-28.1c-0.8,0-1.5,0.7-1.5,1.5v23.7c0,0.8,0.7,1.5,1.5,1.5h4.2l6.7,5.6
	c0.3,0.2,0.6,0.3,0.9,0.3c0.2,0,0.4,0,0.6-0.1c0.5-0.2,0.9-0.8,0.9-1.3v-4.4h14.8c0.8,0,1.5-0.7,1.5-1.5V359.4z M522.1,381.6h-14.8
	c-0.8,0-1.5,0.7-1.5,1.5v2.8l-4.7-3.9c-0.3-0.2-0.6-0.3-0.9-0.3H497v-20.7h25.2V381.6z"/>
<path class="st8" d="M499.9,368.3h11.8c0.8,0,1.5-0.7,1.5-1.5c0-0.8-0.7-1.5-1.5-1.5h-11.8c-0.8,0-1.5,0.7-1.5,1.5
	C498.4,367.6,499.1,368.3,499.9,368.3z"/>
<path class="st8" d="M499.9,372.7h19.2c0.8,0,1.5-0.7,1.5-1.5c0-0.8-0.7-1.5-1.5-1.5h-19.2c-0.8,0-1.5,0.7-1.5,1.5
	C498.4,372.1,499.1,372.7,499.9,372.7z"/>
<path class="st8" d="M499.9,377.2h7.4c0.8,0,1.5-0.7,1.5-1.5s-0.7-1.5-1.5-1.5h-7.4c-0.8,0-1.5,0.7-1.5,1.5S499.1,377.2,499.9,377.2
	z"/>
<path class="st8" d="M519.2,374.2h-7.4c-0.8,0-1.5,0.7-1.5,1.5s0.7,1.5,1.5,1.5h7.4c0.8,0,1.5-0.7,1.5-1.5S520,374.2,519.2,374.2z"
	/>
<path class="st8" d="M584.3,352h-28.1c-0.8,0-1.5,0.7-1.5,1.5v23.7c0,0.8,0.7,1.5,1.5,1.5h4.2l6.7,5.6c0.3,0.2,0.6,0.3,0.9,0.3
	c0.2,0,0.4,0,0.6-0.1c0.5-0.2,0.9-0.8,0.9-1.3v-4.4h14.8c0.8,0,1.5-0.7,1.5-1.5v-23.7C585.8,352.7,585.1,352,584.3,352z
	 M582.8,375.7H568c-0.8,0-1.5,0.7-1.5,1.5v2.8l-4.7-3.9c-0.3-0.2-0.6-0.3-0.9-0.3h-3.3V355h25.2V375.7z"/>
<path class="st8" d="M560.6,362.4h11.8c0.8,0,1.5-0.7,1.5-1.5s-0.7-1.5-1.5-1.5h-11.8c-0.8,0-1.5,0.7-1.5,1.5
	S559.8,362.4,560.6,362.4z"/>
<path class="st8" d="M560.6,366.8h19.2c0.8,0,1.5-0.7,1.5-1.5s-0.7-1.5-1.5-1.5h-19.2c-0.8,0-1.5,0.7-1.5,1.5
	S559.8,366.8,560.6,366.8z"/>
<path class="st8" d="M560.6,371.2h7.4c0.8,0,1.5-0.7,1.5-1.5c0-0.8-0.7-1.5-1.5-1.5h-7.4c-0.8,0-1.5,0.7-1.5,1.5
	C559.1,370.6,559.8,371.2,560.6,371.2z"/>
<path class="st8" d="M579.8,368.3h-7.4c-0.8,0-1.5,0.7-1.5,1.5c0,0.8,0.7,1.5,1.5,1.5h7.4c0.8,0,1.5-0.7,1.5-1.5
	C581.3,368.9,580.7,368.3,579.8,368.3z"/>
<path class="st8" d="M575.4,402.3c0-3.3-2.7-5.9-5.9-5.9c-1.9,0-3.5,0.9-4.6,2.2l-9-5.1c0.1-0.5,0.2-1,0.2-1.5
	c0-3.3-2.7-5.9-5.9-5.9s-5.9,2.7-5.9,5.9c0,0.5,0.1,1,0.2,1.5l-9,5.1c-1.1-1.3-2.7-2.2-4.6-2.2c-3.3,0-5.9,2.7-5.9,5.9
	c0,2.8,1.9,5,4.4,5.7v9.3c-2.5,0.7-4.4,3-4.4,5.7c0,3.3,2.7,5.9,5.9,5.9c1.4,0,2.6-0.5,3.6-1.3l9.9,5.7c-0.1,0.5-0.2,1-0.2,1.5
	c0,3.3,2.7,5.9,5.9,5.9s5.9-2.7,5.9-5.9c0-0.5-0.1-1-0.2-1.5l9.9-5.7c1,0.8,2.2,1.3,3.6,1.3c3.3,0,5.9-2.7,5.9-5.9
	c0-2.8-1.9-5-4.4-5.7V408C573.5,407.4,575.4,405.1,575.4,402.3z M569.5,399.4c1.6,0,3,1.3,3,3c0,1.6-1.3,3-3,3c-1.6,0-3-1.3-3-3
	C566.5,400.7,567.8,399.4,569.5,399.4z M550.2,389c1.6,0,3,1.3,3,3c0,1.6-1.3,3-3,3s-3-1.3-3-3C547.3,390.3,548.6,389,550.2,389z
	 M528,402.3c0-1.6,1.3-3,3-3s3,1.3,3,3c0,1.6-1.3,3-3,3S528,404,528,402.3z M531,426c-1.6,0-3-1.3-3-3c0-1.6,1.3-3,3-3s3,1.3,3,3
	C534,424.7,532.6,426,531,426z M550.2,437.8c-1.6,0-3-1.3-3-3c0-1.6,1.3-3,3-3s3,1.3,3,3C553.2,436.5,551.9,437.8,550.2,437.8z
	 M550.2,429c-1.7,0-3.2,0.7-4.2,1.8l-9.5-5.4c0.3-0.7,0.5-1.5,0.5-2.3c0-2.8-1.9-5-4.4-5.7V408c2.5-0.7,4.4-3,4.4-5.7
	c0-0.3,0-0.7-0.1-1l9.2-5.2c1.1,1.1,2.6,1.8,4.2,1.8s3.2-0.7,4.2-1.8l9.2,5.2c-0.1,0.3-0.1,0.7-0.1,1c0,2.8,1.9,5,4.4,5.7v9.3
	c-2.5,0.7-4.4,3-4.4,5.7c0,0.8,0.2,1.6,0.5,2.3l-9.5,5.4C553.4,429.7,551.9,429,550.2,429z M572.4,423c0,1.6-1.3,3-3,3
	c-1.6,0-3-1.3-3-3c0-1.6,1.3-3,3-3C571.1,420.1,572.4,421.4,572.4,423z"/>
<path class="st8" d="M522.1,400.8h-13.3v-7.4c0-0.8-0.7-1.5-1.5-1.5s-1.5,0.7-1.5,1.5v8.9c0,0.8,0.7,1.5,1.5,1.5h14.8
	c0.8,0,1.5-0.7,1.5-1.5S522.9,400.8,522.1,400.8z"/>
<path class="st8" d="M582.8,383.1h-10.4c-0.8,0-1.5,0.7-1.5,1.5s0.7,1.5,1.5,1.5h8.9v35.5h-3c-0.8,0-1.5,0.7-1.5,1.5
	c0,0.8,0.7,1.5,1.5,1.5h4.4c0.8,0,1.5-0.7,1.5-1.5v-38.5C584.3,383.7,583.6,383.1,582.8,383.1z"/>
<path class="st8" d="M769.2,565.1c-0.9,0-1.6,0.7-1.6,1.6s0.7,1.6,1.6,1.6c0.9,0,1.6-0.7,1.6-1.6S770.1,565.1,769.2,565.1z"/>
<path class="st8" d="M792.9,509h-66.8c-4.5,0-8.1,3.6-8.1,8.1v49.6c0,4.5,3.6,8.1,8.1,8.1h25.3v7.5h-1.6c-2.2,0-4.2,0.8-5.7,2.4
	c-1.5,1.5-2.4,3.6-2.4,5.7c0,0.9,0.7,1.6,1.6,1.6h32.4c0.9,0,1.6-0.7,1.6-1.6c0-4.5-3.6-8.1-8.1-8.1h-1.6v-7.5h25.3
	c4.5,0,8.1-3.6,8.1-8.1v-49.6C801,512.6,797.4,509,792.9,509z M726.1,512.2h66.8c2.7,0,4.9,2.2,4.9,4.9v41.5h-7.5v-37.3
	c0-0.9-0.7-1.6-1.6-1.6h-13c-0.9,0-1.6,0.7-1.6,1.6v37.3H766c0-1.7-0.1-3.3-0.1-4.9c-0.3-6.6-0.9-11-1.3-13c3.3-2.5,4.3-7,2.2-10.6
	l-5.6-9.7c-0.3-0.5-0.8-0.8-1.4-0.8c-0.6,0-1.1,0.3-1.4,0.8l-5.6,9.7c-1.9,3.3-1.2,7.7,1.8,10.2c-0.4,1.9-1.1,6.5-1.4,13.3
	c-0.1,1.6-0.1,3.3-0.1,4.9h-8.1v-24.3c0-0.3-0.1-0.5-0.2-0.7c0,0,0,0,0,0l-6.5-13c-0.3-0.5-0.8-0.9-1.5-0.9c-0.6,0-1.2,0.3-1.5,0.9
	l-6.5,13c0,0,0,0,0,0c-0.1,0.2-0.2,0.4-0.2,0.7v24.3h-7.5v-41.5C721.2,514.4,723.4,512.2,726.1,512.2z M777.3,558.6v-35.7h9.7v3.2
	h-1.6c-0.9,0-1.6,0.7-1.6,1.6c0,0.9,0.7,1.6,1.6,1.6h1.6v4.9h-1.6c-0.9,0-1.6,0.7-1.6,1.6c0,0.9,0.7,1.6,1.6,1.6h1.6v4.9h-1.6
	c-0.9,0-1.6,0.7-1.6,1.6c0,0.9,0.7,1.6,1.6,1.6h1.6v6.5h-1.6c-0.9,0-1.6,0.7-1.6,1.6c0,0.9,0.7,1.6,1.6,1.6h1.6v3.2H777.3z
	 M759.8,542.3c0.6,0,1.2-0.1,1.7-0.2c0.3,1.9,0.7,5.3,1,10h-6c0.3-4.7,0.7-8.2,1.1-10.1C758.3,542.2,759,542.3,759.8,542.3z
	 M759.8,539c-3.7,0-6.1-4-4.2-7.3l4.2-7.3l4.2,7.3C765.9,535,763.5,539,759.8,539z M756.3,555.4h6.3c0,1.1,0.1,2.1,0.1,3.2h-6.5
	C756.3,557.5,756.3,556.4,756.3,555.4z M738.4,558.6v-22.7h3.2v22.7H738.4z M731.9,558.6v-22.7h3.2v22.7H731.9z M732.9,532.7
	l3.9-7.7l3.9,7.7H732.9z M773.8,588.8h-28.6c0.2-0.7,0.6-1.3,1.1-1.8c0.9-0.9,2.1-1.4,3.4-1.4h19.5
	C771.3,585.5,773.1,586.9,773.8,588.8z M764.4,582.3h-9.7v-7.5h9.7V582.3z M792.9,571.6h-66.8c-2.7,0-4.9-2.2-4.9-4.9v-4.9h76.5v4.9
	C797.8,569.4,795.6,571.6,792.9,571.6z"/>
<path class="st8" d="M762.7,565.1H753c-0.9,0-1.6,0.7-1.6,1.6s0.7,1.6,1.6,1.6h9.7c0.9,0,1.6-0.7,1.6-1.6S763.6,565.1,762.7,565.1z"
	/>
<g>
	<defs>
		<rect id="SVGID_6_" x="504" y="669" width="81" height="81"/>
	</defs>
	<clipPath id="SVGID_7_">
		<use xlink:href="#SVGID_6_"  style="overflow:visible;"/>
	</clipPath>
	<g class="st9">
		<path class="st8" d="M583.3,669c-15.8-0.3-33.8,8-45.3,20.8c-10.9,0.2-21.5,4.7-29.3,12.5c-0.5,0.4-0.6,1.1-0.4,1.7
			c0.2,0.6,0.7,1.1,1.4,1.1l13,1.9l-1.6,1.8c-0.6,0.7-0.6,1.7,0.1,2.3l21.7,21.7c0.3,0.3,0.8,0.5,1.2,0.5c0.4,0,0.8-0.1,1.1-0.4
			l1.8-1.6l1.9,13c0.1,0.6,0.6,1.1,1.2,1.3c0.2,0.1,0.3,0.1,0.5,0.1c0.5,0,1-0.2,1.3-0.5c7.7-7.7,12.2-18.3,12.4-29.2
			c12.8-11.4,21.2-29.5,20.8-45.3C585,669.8,584.2,669,583.3,669z M567.8,698.1c-1.6,1.6-3.8,2.5-6,2.5c-2.2,0-4.3-0.8-6-2.5
			c-3.3-3.3-3.3-8.6,0-11.9c3.3-3.3,8.6-3.3,11.9,0C571.1,689.5,571.1,694.9,567.8,698.1z"/>
		<path class="st8" d="M513.2,726.1c-3.6,3.6-8.6,19.9-9.1,21.8c-0.2,0.6,0,1.2,0.4,1.7c0.3,0.3,0.8,0.5,1.2,0.5
			c0.2,0,0.3,0,0.5-0.1c1.8-0.6,18.2-5.5,21.8-9.1c4.1-4.1,4.1-10.7,0-14.8C523.9,722,517.3,722,513.2,726.1z"/>
	</g>
</g>
<path class="st8" d="M803.7,202.6L803.7,202.6c-7.1-5.4-17.2-4-22.7,3l-21,27.7l-20.6-27.1c-0.1-0.1-0.2-0.2-0.3-0.4l-0.1-0.1
	c-2.6-3.5-6.4-5.7-10.8-6.3c-4.3-0.6-8.6,0.5-12,3.2c-8.1,6.2-7,17.4-3.2,22.7c0.1,0.2,0.3,0.4,0.3,0.4l33.3,43.8
	c0.1,0.1,0.2,0.2,0.3,0.4c2.6,3.5,6.4,5.7,10.8,6.3c0.7,0.1,1.5,0.2,2.2,0.2c3.6,0,6.9-1.1,9.8-3.3c1.3-1,2.4-2.1,3.3-3.4l33.6-44.3
	l0.2-0.2C812.2,218.1,810.8,208,803.7,202.6z M769.1,266.7c-0.6,0.9-1.4,1.7-2.3,2.4c-2.4,1.8-5.3,2.6-8.3,2.2
	c-1.5-0.2-2.8-0.7-4.1-1.4c-1.8-1.1-2.9-2.4-3.4-3c-2.3-2.9-8.7-11.3-17.2-22.7c-1.3-1.7-2.1-3.7-2.2-5.9c0,0,0-0.1,0-0.1
	c0-0.3,0-0.6,0-0.9c0-0.1,0-0.1,0-0.2c0-0.2,0-0.4,0-0.7l0-0.1c0-0.1,0-0.1,0-0.2l0-0.1c0-0.2,0-0.3,0.1-0.5l0.1-0.4
	c0-0.1,0-0.1,0-0.2c0-0.1,0.1-0.2,0.1-0.4l0.1-0.4c0-0.1,0-0.2,0.1-0.2c0-0.1,0.1-0.2,0.1-0.3l0.1-0.4c0-0.1,0.1-0.2,0.1-0.3
	c0-0.1,0.1-0.2,0.1-0.3l0.2-0.4c0-0.1,0.1-0.2,0.1-0.2c0.1-0.1,0.1-0.2,0.2-0.3l0.2-0.4c0-0.1,0.1-0.1,0.1-0.2
	c0.1-0.1,0.1-0.2,0.2-0.3l0.3-0.4c0.1-0.1,0.1-0.1,0.2-0.2c0.1-0.1,0.2-0.2,0.3-0.3l0.3-0.3c0.1-0.1,0.1-0.1,0.2-0.2
	c0.1-0.1,0.2-0.2,0.3-0.3l0.3-0.3c0,0,0.1-0.1,0.1-0.1l0.1-0.1c0.1-0.1,0.2-0.2,0.4-0.3l0.1-0.1c0.1-0.1,0.2-0.2,0.3-0.2
	c4.9-3.4,11.6-2.4,15.3,2.4l11.9,15.7l0.3,0.5c0,0.1,0.1,0.1,0.1,0.2c0.1,0.2,0.3,0.4,0.4,0.6c0,0.1,0.1,0.1,0.1,0.2l0.3,0.4
	c0.2,0.3,0.5,0.5,0.7,0.8l0.2,0.2c0.1,0.1,0.2,0.2,0.2,0.2c0.4,0.4,0.9,0.8,1.3,1.1l0.1,0.1c0.4,0.3,0.9,0.7,1.5,1l0.4,0.2
	c0.6,0.3,1.1,0.6,1.7,0.8c0.1,0,0.1,0,0.2,0.1l0.1,0c0.5,0.2,1.1,0.4,1.6,0.5l0.1,0c0.1,0,0.2,0,0.2,0.1c0.6,0.1,1.2,0.3,1.8,0.3
	c0.1,0,0.2,0,0.3,0l0.1,0c0.6,0.1,1.2,0.1,1.7,0.1l0.2,0c0.6,0,1.2,0,1.8-0.1L769.1,266.7L769.1,266.7z M719.4,206.6
	c2-1.5,4.3-2.3,6.8-2.3c0.5,0,1,0,1.5,0.1c3,0.4,5.6,1.9,7.4,4.3l9.5,12.5l-0.1,0c-0.4,0-0.8-0.1-1.2-0.1c-0.2,0-0.4,0-0.6,0
	c-0.4,0-0.9,0-1.3,0.1l-0.1,0c-0.1,0-0.2,0-0.3,0c-0.6,0.1-1.2,0.2-1.7,0.3c-0.1,0-0.2,0.1-0.3,0.1l-0.1,0c-0.5,0.1-0.9,0.2-1.3,0.4
	c-0.2,0.1-0.4,0.1-0.6,0.2c-0.4,0.1-0.8,0.3-1.2,0.5l-0.1,0.1c-0.1,0.1-0.3,0.1-0.4,0.2c-0.6,0.3-1.1,0.6-1.6,1l-0.1,0.1
	c-0.2,0.1-0.3,0.2-0.5,0.4c-0.1,0.1-0.3,0.2-0.4,0.3l-0.3,0.2c-0.4,0.4-0.9,0.8-1.3,1.2c-0.1,0.1-0.2,0.2-0.3,0.3l-0.1,0.1
	c-0.3,0.3-0.6,0.7-0.8,1c-0.1,0.2-0.2,0.3-0.4,0.5c-0.2,0.4-0.5,0.7-0.7,1.1l-0.1,0.1c-0.1,0.1-0.1,0.2-0.2,0.3
	c-0.3,0.5-0.5,1.1-0.8,1.6c0,0.1-0.1,0.2-0.1,0.3l0,0.1c-0.2,0.4-0.3,0.9-0.4,1.3c-0.1,0.2-0.1,0.4-0.1,0.6
	c-0.1,0.4-0.2,0.8-0.2,1.2l0,0.1l-9.3-12.2c-0.1-0.1-0.1-0.2-0.2-0.3C714.9,219.1,713.6,211,719.4,206.6z M786.3,244.1l-0.1,0.1
	c-3.3,4.3-9.2,5.6-14.1,3.1c-0.6-0.3-1.2-0.7-1.6-1c-0.3-0.2-0.6-0.4-0.8-0.7l-0.2-0.2c-0.2-0.2-0.4-0.4-0.5-0.5l-0.1-0.1l-5.6-7.4
	l5.2-6.8c1.8-2.3,4.4-3.8,7.3-4.3c0.1,0,0.2,0,0.4,0l0.4,0c0.1,0,0.2,0,0.3,0c2.1-0.1,4.3,0.4,6.1,1.5l0.1,0.1
	c0.7,0.4,1.2,0.7,1.6,1.1l0.2,0.2c0.5,0.3,1,0.6,1.6,0.9l0.1,0c0.1,0,0.2,0.1,0.2,0.1c0.5,0.3,1.1,0.5,1.6,0.7c0.1,0,0.1,0,0.2,0.1
	l0.1,0c0.5,0.2,1,0.3,1.6,0.5c0.1,0,0.1,0,0.2,0c0.5,0.1,1.1,0.2,1.7,0.3c0.1,0,0.3,0,0.4,0c0.6,0.1,1.1,0.1,1.6,0.1l0.1,0
	c0.2,0,0.4,0,0.6,0l0.4,0c0.2,0,0.4,0,0.7,0L786.3,244.1z M802.9,222.2l-0.1,0.1c-0.2,0.3-0.5,0.6-0.7,0.9c-0.2,0.2-0.5,0.5-0.7,0.7
	c0,0-0.1,0.1-0.1,0.1c-2.4,2.1-5.6,3.1-8.9,2.7l0,0c-0.3,0-0.5-0.1-0.8-0.2c-0.1,0-0.1,0-0.2,0c-0.2,0-0.4-0.1-0.5-0.2l-0.1,0
	c-0.1,0-0.1,0-0.2-0.1c0,0-0.1,0-0.1,0c-0.1,0-0.2-0.1-0.3-0.1l-0.4-0.2c-0.1,0-0.2-0.1-0.3-0.1c-0.1,0-0.1-0.1-0.2-0.1l-0.4-0.2
	c-0.2-0.1-0.3-0.1-0.4-0.2l-0.1,0c-0.1,0-0.1-0.1-0.2-0.1c-0.2-0.2-0.5-0.3-0.7-0.5c-0.1-0.1-0.2-0.1-0.3-0.2
	c-0.1,0-0.1-0.1-0.2-0.1l-0.1-0.1c-0.5-0.3-1-0.7-1.6-1c-0.1-0.1-0.2-0.1-0.4-0.2l-0.1-0.1c-0.4-0.2-0.8-0.4-1.2-0.6
	c-0.2-0.1-0.4-0.2-0.5-0.2c-0.4-0.2-0.9-0.3-1.4-0.4l-0.1,0c-0.1,0-0.2-0.1-0.3-0.1c-0.6-0.1-1.2-0.3-1.8-0.3c-0.1,0-0.2,0-0.3,0
	l-0.1,0c-0.5,0-0.9-0.1-1.3-0.1c-0.2,0-0.4,0-0.6,0c-0.4,0-0.8,0-1.3,0.1l-0.2,0c0,0,0,0,0,0l9.5-12.5l0.1-0.1
	c3.8-4.8,10.8-5.7,15.6-2C805.6,210.3,806.6,217.3,802.9,222.2z"/>
</svg>
